<svg xmlns="http://www.w3.org/2000/svg" xmlns:xlink="http://www.w3.org/1999/xlink" width="500" zoomAndPan="magnify" viewBox="0 0 375 374.999991" height="500" preserveAspectRatio="xMidYMid meet" version="1.0"><defs><clipPath id="110a5b8140"><path d="M 62.066406 52 L 312.566406 52 L 312.566406 304 L 62.066406 304 Z M 62.066406 52 " clip-rule="nonzero"/></clipPath><clipPath id="964cdf8518"><path d="M 64 53 L 312 53 L 312 301 L 64 301 Z M 64 53 " clip-rule="nonzero"/></clipPath><clipPath id="68e4b09476"><path d="M 177.984375 299.429688 C 170.214844 298.554688 161.066406 296.75 160.613281 296.011719 C 160.335938 295.5625 161.597656 294.902344 163.421875 294.550781 C 167.78125 293.703125 167.855469 293.703125 174.519531 294.519531 C 178.3125 294.984375 180.496094 294.839844 180.957031 294.09375 C 181.445312 293.300781 182.847656 293.449219 185.707031 294.59375 C 189.34375 296.050781 192.1875 296.117188 196.90625 294.859375 C 197.800781 294.621094 198.316406 295.035156 198.140625 295.859375 C 197.933594 296.847656 198.386719 297.035156 199.675781 296.488281 C 200.683594 296.0625 202.886719 295.789062 204.574219 295.882812 L 207.644531 296.046875 L 202.714844 292.570312 L 205.054688 291.703125 C 206.546875 291.148438 207.910156 291.265625 208.820312 292.019531 C 210.652344 293.542969 223.234375 292.457031 228.285156 290.34375 C 230.289062 289.503906 233.367188 288.804688 235.125 288.78125 C 236.886719 288.761719 239.476562 288.089844 240.882812 287.28125 C 243.722656 285.65625 245.996094 285.328125 245.996094 286.542969 C 245.996094 287.464844 235.96875 291.9375 227.074219 294.984375 C 214.996094 299.117188 192.902344 301.117188 177.984375 299.433594 Z M 205.300781 282.996094 C 201.628906 281.484375 199.574219 277.828125 201.238281 275.761719 C 201.964844 274.855469 201.855469 274.476562 200.863281 274.464844 C 199.878906 274.453125 199.8125 274.226562 200.640625 273.695312 C 201.285156 273.28125 202.128906 270.640625 202.511719 267.824219 C 202.890625 265.007812 203.804688 260.628906 204.539062 258.09375 C 205.273438 255.558594 205.867188 252.5625 205.859375 251.433594 C 205.84375 249.265625 206.738281 242.433594 207.785156 236.757812 C 208.621094 232.210938 206.605469 228.683594 201.746094 226.203125 C 199.589844 225.101562 197.578125 223.414062 197.269531 222.453125 C 195.75 217.683594 192.214844 210.542969 189.394531 206.550781 C 186.644531 202.65625 188.523438 194.332031 193.070312 190.265625 C 195.8125 187.8125 196.28125 186.738281 196.007812 183.542969 C 195.828125 181.449219 195.308594 179.507812 194.855469 179.226562 C 194.402344 178.945312 193.988281 178.253906 193.933594 177.691406 C 193.878906 177.128906 193.261719 176.667969 192.558594 176.667969 C 191.855469 176.667969 191.390625 177.230469 191.527344 177.921875 C 191.84375 179.546875 185.714844 178.410156 183.796875 176.488281 C 183.050781 175.742188 182.011719 175.128906 181.488281 175.128906 C 180.96875 175.128906 180.539062 174.519531 180.539062 173.773438 C 180.539062 171.578125 176.222656 168.242188 172.359375 167.449219 C 170.390625 167.046875 167.769531 165.789062 166.539062 164.65625 C 165.035156 163.273438 162.585938 162.503906 159.109375 162.316406 C 153.78125 162.027344 148.300781 159.414062 149.375 157.675781 C 149.707031 157.132812 148.601562 156.695312 146.910156 156.695312 C 143.078125 156.695312 141.898438 154.976562 144.386719 153.027344 C 145.425781 152.210938 145.777344 151.667969 145.164062 151.816406 C 144.238281 152.042969 140.304688 148.042969 137.375 143.890625 C 136.976562 143.328125 135.253906 141.253906 133.546875 139.285156 L 130.4375 135.699219 L 132.042969 139.027344 C 132.921875 140.859375 134.058594 142.355469 134.5625 142.355469 C 135.0625 142.355469 135.230469 143 134.925781 143.789062 C 134.625 144.578125 134.871094 145.527344 135.472656 145.898438 C 136.070312 146.269531 136.5625 147.308594 136.5625 148.207031 C 136.5625 149.632812 136.300781 149.605469 134.519531 147.988281 C 133.394531 146.96875 132.472656 145.5 132.472656 144.726562 C 132.472656 143.949219 131.769531 143.046875 130.90625 142.714844 C 129.953125 142.347656 129.570312 141.398438 129.925781 140.273438 C 130.246094 139.261719 130.03125 138.136719 129.445312 137.773438 C 128.859375 137.410156 128.382812 136.285156 128.382812 135.277344 C 128.382812 134.265625 127.273438 132.238281 125.917969 130.773438 C 122.160156 126.714844 121.125 120.152344 123.371094 114.609375 C 125.429688 109.523438 125.828125 105.484375 124.269531 105.484375 C 123.683594 105.484375 123.496094 104.417969 123.84375 103.035156 C 124.179688 101.691406 123.957031 100.28125 123.351562 99.902344 C 122.738281 99.523438 122.246094 99.933594 122.246094 100.816406 C 122.246094 101.695312 121.765625 102.414062 121.183594 102.414062 C 120.601562 102.414062 120.210938 101.375 120.320312 100.109375 C 120.695312 95.734375 120.195312 94.21875 118.371094 94.21875 C 116.046875 94.21875 108.832031 97.871094 107.777344 99.582031 C 107.339844 100.292969 106.617188 100.882812 106.175781 100.886719 C 105.734375 100.894531 103.242188 102.375 100.644531 104.175781 C 98.042969 105.976562 95.644531 107.183594 95.316406 106.851562 C 94.984375 106.519531 96.1875 105.253906 97.988281 104.039062 C 99.792969 102.824219 101.421875 100.921875 101.617188 99.816406 C 101.808594 98.707031 103.652344 96.304688 105.714844 94.476562 C 107.773438 92.648438 108.59375 91.453125 107.53125 91.824219 C 104.59375 92.847656 105.984375 89.882812 109.171875 88.328125 C 110.617188 87.621094 112.074219 86.007812 112.410156 84.742188 C 113.21875 81.699219 120.28125 76.816406 123.941406 76.769531 C 125.539062 76.75 129.609375 76.148438 132.984375 75.429688 C 136.359375 74.710938 140.816406 74.238281 142.886719 74.378906 C 145.984375 74.589844 146.628906 74.300781 146.515625 72.769531 C 146.402344 71.257812 146.035156 71.117188 144.582031 72.023438 C 143.597656 72.640625 142.476562 72.828125 142.089844 72.441406 C 141.113281 71.460938 143.644531 68.613281 145.492188 68.613281 C 146.382812 68.613281 146.78125 68.011719 146.453125 67.160156 C 146.085938 66.203125 147.183594 65.140625 149.667969 64.046875 C 151.742188 63.132812 152.519531 62.59375 151.394531 62.851562 C 148.695312 63.464844 142.640625 65.589844 140.414062 66.703125 C 139.4375 67.191406 137.710938 67.589844 136.578125 67.589844 C 135.445312 67.589844 134.519531 67.996094 134.519531 68.492188 C 134.519531 69.382812 127.230469 72.3125 122.246094 73.425781 C 120.03125 73.917969 120.167969 73.664062 123.269531 71.53125 C 134.34375 63.90625 144.1875 59.710938 159.363281 56.140625 C 167.140625 54.3125 171.984375 53.921875 187.1875 53.894531 C 205.535156 53.863281 219.296875 55.511719 216.277344 57.382812 C 215.519531 57.851562 214.515625 57.996094 214.042969 57.707031 C 213.574219 57.414062 208.40625 57.035156 202.566406 56.867188 C 193.652344 56.609375 192.035156 56.796875 192.511719 58.035156 C 192.824219 58.847656 193.65625 59.292969 194.359375 59.019531 C 196.117188 58.34375 204.375 62.660156 209.71875 67.046875 C 212.140625 69.035156 214.511719 70.660156 214.984375 70.660156 C 215.457031 70.660156 216.441406 71.621094 217.171875 72.789062 C 218.335938 74.65625 218.25 74.984375 216.496094 75.445312 C 213.863281 76.132812 213.144531 80.296875 214.832031 85.085938 C 215.574219 87.191406 215.957031 89.136719 215.6875 89.40625 C 214.75 90.34375 208.707031 86.660156 204.765625 82.753906 C 202.597656 80.601562 200.328125 79.148438 199.726562 79.519531 C 199.125 79.894531 198.929688 79.71875 199.292969 79.128906 C 199.65625 78.542969 199.246094 77.476562 198.382812 76.757812 C 197.519531 76.042969 197.046875 74.835938 197.335938 74.082031 C 197.632812 73.3125 197.191406 72.710938 196.328125 72.710938 C 195.484375 72.710938 194.53125 72.019531 194.207031 71.171875 C 193.882812 70.328125 193.128906 69.636719 192.53125 69.636719 C 191.929688 69.636719 190.695312 68.960938 189.78125 68.132812 C 188.558594 67.023438 187.328125 66.867188 185.097656 67.53125 C 183.4375 68.03125 182.6875 68.476562 183.433594 68.523438 C 185.640625 68.667969 192.960938 76.695312 192.644531 78.621094 C 192.484375 79.59375 192.65625 80.875 193.027344 81.464844 C 193.398438 82.054688 193.285156 83.207031 192.777344 84.023438 C 191.988281 85.289062 191.195312 85.167969 187.472656 83.207031 C 185.066406 81.9375 182.320312 80.898438 181.367188 80.902344 C 179.050781 80.90625 177.976562 78.988281 179.886719 78.257812 C 180.722656 77.933594 181.667969 76.988281 181.988281 76.148438 C 182.429688 75.003906 182.066406 74.785156 180.535156 75.273438 C 179.035156 75.75 178.496094 75.453125 178.496094 74.144531 C 178.496094 73.167969 178.191406 72.671875 177.824219 73.042969 C 177.453125 73.414062 176.648438 73.296875 176.035156 72.789062 C 175.261719 72.148438 174.921875 72.96875 174.929688 75.4375 C 174.9375 77.773438 175.5625 79.363281 176.742188 80.019531 C 177.730469 80.574219 178.324219 81.378906 178.058594 81.804688 C 177.796875 82.230469 178.824219 82.402344 180.339844 82.179688 C 182.199219 81.910156 184.597656 82.792969 187.699219 84.890625 C 191.25 87.292969 192.378906 87.660156 192.632812 86.503906 C 193.136719 84.210938 194.09375 84.640625 198.449219 89.109375 C 200.65625 91.371094 202.90625 93.070312 203.453125 92.886719 C 204.605469 92.5 207.277344 94.996094 209.738281 98.757812 C 211.460938 101.390625 213.960938 102.515625 212.738281 100.109375 C 212.382812 99.402344 213.046875 99.914062 214.214844 101.246094 C 215.382812 102.574219 216.328125 104.417969 216.320312 105.34375 C 216.308594 106.800781 216.175781 106.820312 215.3125 105.484375 C 214.433594 104.117188 214.3125 104.117188 214.226562 105.484375 C 214.160156 106.539062 213.96875 106.621094 213.613281 105.742188 C 212.789062 103.695312 208.355469 104.140625 208.523438 106.253906 C 208.613281 107.386719 207.824219 108.164062 206.367188 108.371094 C 205.101562 108.550781 204.066406 109.1875 204.066406 109.789062 C 204.066406 110.464844 202.523438 110.667969 199.972656 110.324219 C 196.632812 109.878906 195.878906 110.085938 195.859375 111.472656 C 195.847656 112.402344 194.9375 114.320312 193.835938 115.726562 C 192.738281 117.136719 191.828125 118.917969 191.8125 119.691406 C 191.796875 120.882812 191.523438 120.882812 190.019531 119.691406 C 188.375 118.390625 188.378906 118.492188 190.0625 121.132812 C 192.0625 124.265625 191.714844 125.300781 187.488281 128.863281 C 184.605469 131.296875 183.664062 135.492188 185.71875 136.761719 C 187.222656 137.691406 188.871094 142.3125 188.128906 143.515625 C 187.242188 144.953125 184.550781 142.410156 182.984375 138.652344 C 182.015625 136.328125 180.769531 135.28125 178.410156 134.8125 C 173.386719 133.804688 171.335938 134.035156 171.335938 135.601562 C 171.335938 136.527344 170.621094 136.855469 169.332031 136.519531 C 167.015625 135.910156 160.796875 139.460938 158.550781 142.667969 C 156.582031 145.484375 156.609375 148.859375 158.632812 153.132812 C 160.515625 157.105469 162.039062 157.890625 166.246094 157.046875 C 168.351562 156.625 169.507812 155.671875 169.925781 154.003906 C 170.261719 152.667969 171.0625 151.539062 171.703125 151.496094 C 172.34375 151.453125 173.675781 151.261719 174.65625 151.074219 C 177.324219 150.5625 177.753906 152.160156 175.90625 155.734375 C 174.996094 157.496094 174.515625 159.195312 174.832031 159.511719 C 175.148438 159.832031 174.882812 160.730469 174.234375 161.507812 C 173.265625 162.679688 173.726562 162.851562 176.921875 162.496094 C 183.257812 161.796875 184.507812 162.527344 184.449219 166.882812 C 184.347656 174.234375 186.730469 177.292969 190.84375 175.089844 C 192.199219 174.363281 193.433594 174.367188 194.792969 175.09375 C 197.421875 176.503906 197.546875 176.480469 199.78125 174.078125 C 200.84375 172.933594 202.585938 171.820312 203.65625 171.605469 C 204.722656 171.386719 206.480469 170.863281 207.554688 170.4375 C 208.929688 169.894531 209.292969 170.019531 208.773438 170.859375 C 208.367188 171.519531 208.519531 172.058594 209.117188 172.058594 C 209.710938 172.058594 210.199219 171.625 210.199219 171.09375 C 210.199219 170.566406 211.433594 170.773438 212.9375 171.554688 C 214.445312 172.335938 216.128906 172.699219 216.675781 172.359375 C 217.226562 172.019531 217.378906 172.222656 217.015625 172.808594 C 216.65625 173.394531 217.390625 174.148438 218.648438 174.488281 C 221.867188 175.351562 222.683594 175.277344 222.003906 174.175781 C 221.679688 173.652344 221.957031 172.890625 222.613281 172.484375 C 223.363281 172.019531 223.539062 172.1875 223.082031 172.925781 C 222.402344 174.023438 223.828125 174.511719 227.332031 174.382812 C 228.035156 174.355469 228.617188 175.089844 228.628906 176.011719 C 228.652344 178.363281 235.625 183.878906 239.550781 184.652344 C 243.507812 185.4375 247.019531 188.261719 247.019531 190.660156 C 247.019531 191.628906 247.507812 192.726562 248.109375 193.09375 C 248.820312 193.535156 248.566406 194.53125 247.367188 195.972656 C 246.363281 197.183594 246.1875 197.605469 246.980469 196.90625 C 248.152344 195.878906 249.648438 196.3125 254.917969 199.210938 C 258.484375 201.175781 262.238281 202.785156 263.257812 202.785156 C 264.277344 202.785156 265.914062 203.675781 266.898438 204.765625 C 267.882812 205.851562 269.335938 206.496094 270.125 206.191406 C 271.164062 205.789062 271.5625 206.496094 271.5625 208.738281 C 271.5625 210.921875 270.222656 213.410156 267.011719 217.171875 C 264.511719 220.109375 262.152344 223.949219 261.769531 225.707031 C 260.71875 230.550781 256.132812 236.402344 252.386719 237.667969 C 250.558594 238.285156 249.0625 239.433594 249.0625 240.222656 C 249.0625 241.011719 247.796875 242.472656 246.25 243.46875 C 244.703125 244.464844 242.609375 246.304688 241.59375 247.5625 C 236.570312 253.785156 231.101562 258.148438 228.824219 257.746094 C 227.058594 257.4375 226.554688 257.765625 226.777344 259.09375 C 227.097656 260.976562 224.894531 264.238281 223.300781 264.238281 C 222.769531 264.238281 219.835938 266.398438 216.78125 269.042969 C 213.089844 272.234375 211.632812 274.101562 212.445312 274.601562 C 213.304688 275.136719 212.925781 275.992188 211.167969 277.480469 C 208.824219 279.464844 208.777344 279.6875 210.457031 280.992188 C 211.441406 281.757812 212.246094 282.628906 212.246094 282.921875 C 212.246094 284.222656 208.382812 284.261719 205.300781 282.992188 Z M 201.1875 106.832031 C 200.449219 106.535156 199.566406 106.570312 199.226562 106.910156 C 198.886719 107.253906 199.492188 107.496094 200.570312 107.449219 C 201.761719 107.402344 202.003906 107.15625 201.1875 106.832031 Z M 208.117188 102.1875 C 208.136719 101.78125 207.464844 101.714844 206.621094 102.039062 C 205.722656 102.382812 205.078125 102.050781 205.070312 101.238281 C 205.058594 100.105469 204.886719 100.117188 204.144531 101.292969 C 203.589844 102.164062 203.671875 103.699219 204.347656 105.1875 L 205.464844 107.644531 L 206.773438 105.28125 C 207.492188 103.984375 208.097656 102.589844 208.117188 102.1875 Z M 175.425781 105.066406 C 175.425781 104.859375 174.375 104.003906 173.089844 103.160156 C 170.992188 101.785156 170.535156 101.800781 168.640625 103.339844 C 166.585938 105.003906 166.648438 105.054688 170.976562 105.242188 C 173.425781 105.351562 175.425781 105.269531 175.425781 105.066406 Z M 172.964844 99.792969 C 171.109375 98.433594 171.105469 98.335938 172.871094 97.660156 C 173.886719 97.269531 176.445312 97.410156 178.554688 97.976562 C 181.808594 98.84375 182.304688 98.769531 181.804688 97.464844 C 181.421875 96.46875 181.632812 96.1875 182.402344 96.664062 C 183.058594 97.070312 184.402344 96.929688 185.390625 96.351562 C 187.023438 95.398438 186.988281 95.300781 185.015625 95.269531 C 183.347656 95.246094 182.839844 94.601562 182.839844 92.503906 C 182.839844 91 181.976562 89.136719 180.921875 88.363281 C 179.867188 87.589844 179.121094 86.746094 179.261719 86.492188 C 179.96875 85.195312 179.347656 83.972656 177.984375 83.972656 C 177.140625 83.972656 176.449219 83.476562 176.449219 82.863281 C 176.449219 82.253906 175.875 81.960938 175.171875 82.214844 C 174.46875 82.464844 173.074219 82.253906 172.078125 81.738281 C 170.667969 81.011719 169.675781 81.5 167.636719 83.925781 C 166.195312 85.644531 164.644531 86.824219 164.191406 86.542969 C 163.738281 86.261719 163.105469 86.71875 162.785156 87.550781 C 162.464844 88.386719 162.535156 88.96875 162.933594 88.84375 C 163.335938 88.71875 164.953125 89.917969 166.523438 91.507812 C 168.3125 93.316406 169.992188 94.164062 171.015625 93.773438 C 173.125 92.960938 176.65625 94.078125 175.890625 95.3125 C 175.570312 95.835938 174.617188 96.265625 173.773438 96.265625 C 172.871094 96.265625 172.539062 95.773438 172.96875 95.082031 C 173.421875 94.34375 173.246094 94.179688 172.5 94.640625 C 171.839844 95.046875 171.566406 95.8125 171.890625 96.335938 C 172.214844 96.859375 171.992188 97.289062 171.394531 97.289062 C 170.800781 97.289062 170.3125 96.828125 170.3125 96.265625 C 170.3125 94.460938 166.480469 95.167969 165.984375 97.0625 C 165.421875 99.214844 167.804688 101.941406 168.816406 100.300781 C 169.269531 99.566406 169.867188 99.566406 170.753906 100.300781 C 171.457031 100.886719 172.339844 101.0625 172.707031 100.695312 C 173.078125 100.324219 173.382812 100.632812 173.382812 101.386719 C 173.382812 102.136719 173.726562 102.40625 174.144531 101.984375 C 174.566406 101.5625 174.035156 100.578125 172.964844 99.792969 Z M 180.539062 94.277344 C 180.539062 93.746094 180.996094 93.03125 181.550781 92.6875 C 182.128906 92.328125 182.300781 92.738281 181.953125 93.652344 C 181.273438 95.425781 180.539062 95.75 180.539062 94.277344 Z M 167.695312 91.6875 C 166.605469 90.859375 166.25 90.167969 166.90625 90.152344 C 168.847656 90.097656 171.335938 91.292969 171.335938 92.277344 C 171.335938 93.621094 169.949219 93.394531 167.695312 91.6875 Z M 202.015625 101.675781 C 202.015625 101.558594 201.144531 100.992188 200.078125 100.417969 C 198.699219 99.679688 197.839844 99.742188 197.097656 100.640625 C 196.3125 101.585938 196.792969 101.898438 199.035156 101.898438 C 200.675781 101.898438 202.015625 101.796875 202.015625 101.679688 Z M 186.675781 99.335938 C 186.675781 98.773438 185.957031 98.3125 185.082031 98.3125 C 184.203125 98.3125 183.773438 98.773438 184.121094 99.335938 C 184.46875 99.902344 185.183594 100.363281 185.714844 100.363281 C 186.242188 100.363281 186.675781 99.902344 186.675781 99.335938 Z M 190.257812 99.335938 C 189.910156 98.773438 189.421875 98.3125 189.171875 98.3125 C 188.925781 98.3125 188.722656 98.773438 188.722656 99.335938 C 188.722656 99.902344 189.210938 100.363281 189.804688 100.363281 C 190.402344 100.363281 190.605469 99.902344 190.257812 99.335938 Z M 157.015625 94.183594 C 155.71875 93.3125 155.917969 92.769531 158.296875 90.664062 C 159.84375 89.292969 161.109375 87.597656 161.109375 86.898438 C 161.109375 86.203125 160.457031 86.523438 159.65625 87.617188 C 158.859375 88.710938 157.863281 89.257812 157.441406 88.835938 C 157.019531 88.414062 157.214844 88.070312 157.871094 88.070312 C 158.527344 88.070312 159.0625 87.378906 159.0625 86.535156 C 159.0625 84.546875 157.128906 84.542969 156.367188 86.527344 C 156.042969 87.371094 155.359375 87.800781 154.847656 87.480469 C 154.335938 87.164062 154.179688 86.476562 154.503906 85.953125 C 154.828125 85.425781 154.632812 85 154.070312 85 C 153.507812 85 152.757812 85.464844 152.40625 86.039062 C 152.050781 86.613281 151.285156 86.785156 150.703125 86.421875 C 150.015625 86 150.132812 85.453125 151.027344 84.886719 C 152.15625 84.167969 152.128906 84.007812 150.882812 84.027344 C 148.9375 84.050781 143.765625 86.960938 145.570312 87.011719 C 146.308594 87.03125 146.652344 87.464844 146.335938 87.976562 C 146.023438 88.484375 146.800781 88.6875 148.066406 88.421875 L 150.371094 87.941406 L 148.011719 89.351562 L 145.65625 90.761719 L 148.496094 92.058594 C 150.546875 92.996094 151.445312 93.035156 151.71875 92.207031 C 151.996094 91.378906 152.515625 91.402344 153.585938 92.289062 C 154.78125 93.285156 154.8125 93.6875 153.742188 94.367188 C 152.878906 94.914062 153.484375 95.207031 155.484375 95.207031 C 157.871094 95.207031 158.210938 94.980469 157.015625 94.183594 Z M 153.140625 90.523438 C 151.679688 88.941406 152.667969 88.636719 154.824219 90.007812 C 155.589844 90.492188 155.820312 91.128906 155.335938 91.421875 C 154.855469 91.714844 153.867188 91.308594 153.140625 90.523438 Z M 193.289062 90.273438 C 192.710938 89.664062 190.765625 91.203125 190.765625 92.269531 C 190.765625 92.820312 191.410156 92.679688 192.199219 91.953125 C 192.984375 91.226562 193.476562 90.46875 193.289062 90.273438 Z M 164.175781 91.765625 C 164.175781 91.542969 163.460938 91.089844 162.589844 90.753906 C 161.679688 90.402344 161.269531 90.574219 161.625 91.15625 C 162.226562 92.128906 164.175781 92.59375 164.175781 91.765625 Z M 148.617188 81.371094 C 149.5 80.601562 148.992188 80.328125 146.785156 80.382812 C 145.105469 80.421875 142.921875 81.347656 141.9375 82.4375 C 140.179688 84.378906 140.1875 84.378906 142.34375 82.59375 C 144.628906 80.695312 146.496094 81.75 145.242188 84.230469 C 144.882812 84.933594 145.222656 84.820312 145.992188 83.972656 C 146.765625 83.128906 147.945312 81.957031 148.617188 81.371094 Z M 157.015625 82.890625 C 157.015625 82.292969 156.558594 82.089844 155.996094 82.4375 C 155.433594 82.785156 154.972656 83.273438 154.972656 83.523438 C 154.972656 83.769531 155.433594 83.972656 155.996094 83.972656 C 156.558594 83.972656 157.015625 83.484375 157.015625 82.890625 Z M 151.628906 75.070312 C 150.632812 74.8125 149.253906 74.828125 148.5625 75.109375 C 147.867188 75.390625 148.683594 75.601562 150.371094 75.582031 C 152.058594 75.558594 152.625 75.328125 151.628906 75.070312 Z M 159.601562 73.929688 C 159.285156 73.613281 158.460938 73.929688 157.765625 74.628906 C 156.765625 75.640625 156.882812 75.757812 158.339844 75.203125 C 159.347656 74.816406 159.917969 74.246094 159.601562 73.929688 Z M 171.335938 72.648438 C 171.335938 72.117188 170.953125 71.683594 170.484375 71.683594 C 170.015625 71.683594 169.632812 72.355469 169.632812 73.175781 C 169.632812 73.996094 170.015625 74.429688 170.484375 74.136719 C 170.953125 73.847656 171.335938 73.175781 171.335938 72.648438 Z M 167.234375 70.636719 C 166.625 69.5 166.46875 68 166.882812 67.308594 C 167.359375 66.515625 166.988281 66.578125 165.882812 67.476562 C 164.234375 68.8125 164.234375 69.023438 165.84375 70.804688 C 168.082031 73.285156 168.613281 73.21875 167.234375 70.636719 Z M 162.046875 71.316406 C 161.8125 71.113281 160.238281 70.636719 158.550781 70.261719 C 156.3125 69.757812 155.898438 69.851562 157.019531 70.613281 C 158.398438 71.546875 163.074219 72.203125 162.046875 71.316406 Z M 152.925781 68.515625 C 154.289062 67.550781 154.289062 67.480469 152.925781 67.882812 C 152.082031 68.128906 150.472656 67.859375 149.347656 67.28125 C 147.519531 66.339844 147.449219 66.40625 148.707031 67.929688 C 150.339844 69.914062 150.851562 69.984375 152.925781 68.515625 Z M 158.039062 67.105469 C 158.039062 66.15625 157.445312 65.832031 156.421875 66.226562 C 155.117188 66.726562 155.066406 67.015625 156.164062 67.714844 C 157.980469 68.867188 158.039062 68.847656 158.039062 67.105469 Z M 185.039062 66.5625 C 189.058594 66.5625 184.945312 64.316406 180.511719 64.089844 C 177.839844 63.953125 175.707031 63.210938 174.925781 62.144531 C 173.105469 59.648438 172.359375 60.011719 172.359375 63.394531 C 172.359375 65.835938 172.714844 66.277344 174.339844 65.851562 C 175.429688 65.566406 177.367188 66.066406 178.644531 66.960938 C 180.179688 68.039062 181.3125 68.246094 181.980469 67.578125 C 182.539062 67.019531 183.914062 66.5625 185.039062 66.5625 Z M 162.132812 66.5625 C 162.132812 66 161.644531 65.539062 161.046875 65.539062 C 160.453125 65.539062 160.25 66 160.597656 66.5625 C 160.945312 67.125 161.433594 67.585938 161.679688 67.585938 C 161.929688 67.585938 162.132812 67.125 162.132812 66.5625 Z M 189.9375 56.644531 C 189.199219 56.347656 188.316406 56.386719 187.976562 56.726562 C 187.636719 57.066406 188.242188 57.308594 189.320312 57.261719 C 190.511719 57.214844 190.753906 56.972656 189.9375 56.644531 Z M 217.046875 280.988281 C 215.957031 279.894531 217.351562 278.570312 219.589844 278.570312 C 221.351562 278.570312 221.488281 278.824219 220.425781 280.105469 C 219.050781 281.765625 218.078125 282.019531 217.046875 280.988281 Z M 107.421875 256.074219 C 104.609375 252.789062 102.121094 250.28125 101.894531 250.496094 C 101.667969 250.710938 100.390625 249.40625 99.054688 247.597656 C 96.574219 244.230469 93.128906 241.800781 90.742188 241.734375 C 90.003906 241.714844 89.675781 242.140625 90.007812 242.679688 C 90.371094 243.269531 89.378906 243.234375 87.542969 242.59375 C 85.148438 241.753906 83.765625 240.019531 81.25 234.695312 C 76.070312 223.722656 76.007812 223.449219 78.382812 222.179688 C 79.578125 221.539062 80.238281 220.429688 79.917969 219.597656 C 79.609375 218.796875 79.804688 218.140625 80.351562 218.140625 C 80.894531 218.140625 81.339844 217.421875 81.339844 216.539062 C 81.339844 215.46875 82.101562 215.046875 83.640625 215.261719 C 85.238281 215.480469 85.945312 215.054688 85.957031 213.859375 C 85.964844 212.914062 86.308594 211.800781 86.722656 211.386719 C 87.136719 210.96875 87.476562 211.132812 87.476562 211.742188 C 87.476562 212.355469 88.859375 213.160156 90.546875 213.53125 C 92.234375 213.902344 93.613281 214.789062 93.613281 215.496094 C 93.613281 216.207031 94.878906 217.421875 96.425781 218.199219 C 97.972656 218.976562 99.492188 219.75 99.800781 219.917969 C 100.113281 220.085938 100.175781 218.601562 99.945312 216.621094 C 99.429688 212.207031 101.359375 211.777344 102.304688 216.09375 C 102.675781 217.78125 103.367188 219.164062 103.84375 219.164062 C 104.316406 219.164062 105.269531 220.894531 105.957031 223.007812 C 106.648438 225.117188 108.179688 227.839844 109.359375 229.054688 C 112.441406 232.21875 114.066406 234.332031 114.066406 235.171875 C 114.066406 235.574219 114.792969 236.707031 115.679688 237.6875 C 117.832031 240.070312 118.339844 247.746094 116.519531 250.351562 C 115.734375 251.476562 115.089844 253.207031 115.089844 254.195312 C 115.089844 255.273438 114.042969 256.261719 112.484375 256.652344 C 109.90625 257.300781 109.898438 257.324219 111.972656 258.777344 C 114.019531 260.214844 114.832031 262.25 113.300781 262.113281 C 112.878906 262.074219 110.234375 259.355469 107.421875 256.074219 Z M 115.441406 240.117188 C 115.109375 239.246094 114.617188 238.757812 114.351562 239.023438 C 114.082031 239.292969 114.167969 240.003906 114.535156 240.605469 C 115.546875 242.238281 116.136719 241.921875 115.441406 240.117188 Z M 124.863281 260.226562 C 124.253906 259.242188 132.097656 255.023438 134.589844 254.996094 C 135.820312 254.984375 135.808594 254.820312 134.523438 253.988281 C 133.3125 253.207031 133.285156 252.992188 134.394531 252.980469 C 135.410156 252.96875 135.628906 252.109375 135.1875 249.890625 C 134.839844 248.160156 135.007812 246.820312 135.570312 246.820312 C 136.117188 246.820312 136.566406 247.28125 136.566406 247.84375 C 136.566406 248.40625 137.53125 249.832031 138.707031 251.007812 L 140.847656 253.152344 L 138.449219 254.84375 C 137.132812 255.773438 135.824219 256.539062 135.542969 256.542969 C 135.261719 256.546875 133.582031 257.589844 131.808594 258.855469 C 128.414062 261.277344 125.828125 261.789062 124.863281 260.226562 Z M 134.726562 235.347656 C 134.050781 234.671875 133.5 233.75 133.5 233.300781 C 133.5 231.789062 135.039062 232.457031 136.332031 234.527344 C 137.730469 236.769531 136.683594 237.304688 134.726562 235.347656 Z M 295.601562 234.273438 C 296.011719 233.003906 296.765625 226.898438 297.28125 220.703125 C 297.832031 214.03125 298.863281 208.265625 299.808594 206.566406 C 301.15625 204.148438 301.21875 202.898438 300.203125 198.65625 C 299.53125 195.855469 299.304688 191.789062 299.691406 189.492188 C 300.320312 185.769531 300.179688 185.367188 298.25 185.367188 C 297.035156 185.367188 296.117188 184.703125 296.117188 183.828125 C 296.117188 181.894531 294.152344 181.910156 291.566406 183.867188 C 290.472656 184.695312 288.761719 185.117188 287.769531 184.800781 C 286.777344 184.488281 285.078125 184.703125 283.992188 185.285156 C 281.425781 186.660156 277.023438 183.351562 275.015625 178.539062 C 274.230469 176.664062 273.023438 175.246094 272.324219 175.382812 C 271.421875 175.5625 271.058594 173.691406 271.058594 168.820312 C 271.058594 165.074219 271.421875 162.230469 271.863281 162.503906 C 272.308594 162.777344 272.574219 161.464844 272.453125 159.589844 C 272.335938 157.710938 273.121094 154.5625 274.195312 152.589844 C 275.269531 150.621094 276.15625 148.316406 276.164062 147.46875 C 276.171875 146.625 276.636719 146 277.195312 146.078125 C 278.605469 146.273438 284.097656 142.261719 283.390625 141.550781 C 283.074219 141.238281 283.578125 140.136719 284.511719 139.105469 C 285.445312 138.074219 285.847656 137.226562 285.410156 137.226562 C 284.972656 137.226562 285.246094 136.421875 286.019531 135.4375 C 287.292969 133.8125 287.253906 133.773438 285.632812 135.050781 C 284.648438 135.824219 283.785156 136.167969 283.714844 135.816406 C 283.644531 135.464844 283.519531 134.605469 283.4375 133.898438 C 283.355469 133.195312 282.425781 132.769531 281.371094 132.953125 C 279.675781 133.25 279.542969 132.84375 280.207031 129.371094 C 280.621094 127.214844 280.917969 124.367188 280.867188 123.042969 C 280.730469 119.292969 281.667969 118.671875 284.925781 120.359375 C 287.726562 121.808594 287.933594 121.789062 287.933594 120.042969 C 287.933594 119.011719 286.785156 116.605469 285.378906 114.695312 C 282.335938 110.566406 282.320312 110.507812 284.609375 111.226562 C 286.230469 111.738281 286.246094 111.660156 284.765625 110.425781 C 282.992188 108.949219 282.878906 108.667969 282.703125 105.222656 C 282.613281 103.488281 282.46875 103.359375 282.117188 104.710938 C 281.859375 105.695312 281.046875 106.503906 280.308594 106.503906 C 278.429688 106.503906 277.523438 102.410156 279.257812 101.746094 C 280.019531 101.453125 280.394531 100.554688 280.085938 99.75 C 279.679688 98.6875 280.023438 98.476562 281.351562 98.988281 C 282.78125 99.535156 283.03125 99.308594 282.5 97.921875 C 282.070312 96.808594 282.222656 96.402344 282.902344 96.824219 C 283.496094 97.191406 283.722656 98.167969 283.40625 98.992188 C 283.089844 99.820312 283.96875 102.53125 285.355469 105.023438 C 286.742188 107.511719 287.648438 110.363281 287.363281 111.355469 C 287.070312 112.378906 287.359375 112.195312 288.027344 110.921875 C 289.003906 109.074219 288.8125 108.046875 286.921875 104.980469 C 285.664062 102.941406 284.832031 101.074219 285.074219 100.832031 C 285.675781 100.226562 291.640625 108.800781 292.496094 111.5 C 292.875 112.695312 293.519531 113.671875 293.929688 113.671875 C 295.496094 113.671875 306.34375 137.851562 306.34375 141.34375 C 306.34375 142.238281 305.601562 141.9375 304.257812 140.496094 C 302.382812 138.480469 300.207031 137.519531 300.207031 138.707031 C 300.207031 139.410156 304.453125 146.445312 304.878906 146.445312 C 305.085938 146.445312 304.964844 145.691406 304.613281 144.765625 C 304.085938 143.390625 304.304688 143.277344 305.847656 144.140625 C 306.882812 144.722656 307.820312 146.054688 307.929688 147.101562 C 308.039062 148.148438 308.421875 150.390625 308.78125 152.078125 C 309.136719 153.769531 310.101562 159.867188 310.925781 165.632812 C 312.546875 176.957031 311.75 191.566406 308.808594 204.523438 C 308.015625 208.019531 307.363281 212.398438 307.359375 214.253906 C 307.351562 219.902344 305.355469 225.492188 303.144531 226.070312 C 302.035156 226.363281 299.992188 228.84375 298.605469 231.589844 C 295.980469 236.773438 294.304688 238.269531 295.601562 234.273438 Z M 302.441406 135.980469 C 301.707031 135.246094 301.230469 135.1875 301.230469 135.828125 C 301.230469 137.195312 302.4375 138.40625 303.121094 137.722656 C 303.414062 137.433594 303.105469 136.648438 302.441406 135.980469 Z M 299.746094 135.949219 C 298.890625 132.042969 295.390625 125.980469 293.988281 125.972656 C 292.117188 125.960938 289.527344 130.238281 290.195312 132.238281 C 290.441406 132.988281 291.53125 133.644531 292.613281 133.703125 C 297.929688 133.980469 299.175781 134.214844 299.0625 134.921875 C 298.875 136.109375 299.140625 137.226562 299.605469 137.226562 C 299.835938 137.226562 299.898438 136.652344 299.746094 135.949219 Z M 156 229.832031 C 156 228.941406 156.546875 228.394531 157.214844 228.617188 C 159.113281 229.25 159.425781 231.457031 157.621094 231.457031 C 156.730469 231.457031 156 230.726562 156 229.832031 Z M 159.589844 228.398438 C 159.238281 227.828125 159.667969 227.359375 160.542969 227.359375 C 162.339844 227.359375 162.605469 227.972656 161.1875 228.851562 C 160.664062 229.175781 159.945312 228.972656 159.589844 228.398438 Z M 138.1875 225.675781 C 137.332031 223.441406 138.46875 222.402344 139.675781 224.316406 C 140.886719 226.230469 140.914062 227.359375 139.746094 227.359375 C 139.246094 227.359375 138.542969 226.601562 138.1875 225.675781 Z M 129.410156 215.101562 C 129.410156 214.554688 128.71875 214.375 127.875 214.699219 C 126.011719 215.414062 125.84375 213.683594 127.632812 212.199219 C 128.589844 211.402344 129.226562 211.769531 130.09375 213.609375 C 130.738281 214.972656 130.847656 216.09375 130.335938 216.09375 C 129.828125 216.09375 129.410156 215.644531 129.410156 215.101562 Z M 109.445312 213.78125 C 108.332031 213.167969 106.820312 211.824219 106.085938 210.792969 C 104.664062 208.800781 101.796875 208.234375 101.796875 209.945312 C 101.796875 210.511719 100.875 210.972656 99.75 210.972656 C 98.625 210.972656 97.707031 210.511719 97.707031 209.945312 C 97.707031 209.382812 96.785156 208.921875 95.660156 208.921875 C 94.535156 208.921875 93.617188 208.460938 93.617188 207.898438 C 93.617188 207.335938 94.078125 206.875 94.648438 206.875 C 96.667969 206.875 93.238281 202.976562 89.757812 201.3125 C 87.429688 200.203125 86.453125 199.140625 86.835938 198.136719 C 87.179688 197.242188 86.816406 196.632812 85.945312 196.632812 C 85.058594 196.632812 84.707031 197.242188 85.0625 198.167969 C 85.492188 199.285156 84.941406 199.703125 83.046875 199.703125 C 81.613281 199.703125 80.15625 199.242188 79.808594 198.679688 C 79.460938 198.117188 80.125 197.65625 81.28125 197.65625 C 82.441406 197.65625 83.445312 197.195312 83.515625 196.632812 C 83.585938 196.070312 83.703125 195.183594 83.773438 194.667969 C 83.980469 193.148438 85.433594 192.078125 85.433594 193.449219 C 85.433594 194.140625 85.839844 194.453125 86.339844 194.144531 C 86.839844 193.835938 87.816406 194.269531 88.511719 195.105469 C 89.207031 195.945312 89.394531 196.632812 88.933594 196.632812 C 88.472656 196.632812 88.625 197.164062 89.277344 197.816406 C 90.171875 198.714844 90.824219 198.703125 91.957031 197.757812 C 93.15625 196.761719 94.441406 197.015625 98.457031 199.054688 C 101.207031 200.449219 104.0625 202.320312 104.800781 203.210938 C 105.535156 204.097656 107.40625 204.824219 108.957031 204.824219 C 111.804688 204.824219 114.621094 202.644531 113.378906 201.402344 C 113.007812 201.03125 113.214844 200.730469 113.839844 200.730469 C 116.019531 200.730469 116.203125 202.769531 114.210938 204.910156 C 112.863281 206.355469 111.527344 206.855469 110.152344 206.417969 C 106.578125 205.28125 106.359375 208.03125 109.785156 211.097656 C 113.132812 214.089844 112.925781 215.703125 109.445312 213.78125 Z M 121.625 210.78125 C 121.148438 210.011719 121.445312 209.808594 122.472656 210.203125 C 123.339844 210.539062 124.511719 210.347656 125.082031 209.777344 C 125.773438 209.082031 126.335938 209.109375 126.800781 209.855469 C 127.175781 210.46875 127.34375 211.003906 127.171875 211.046875 C 123.925781 211.828125 122.21875 211.746094 121.625 210.78125 Z M 75.582031 207.742188 C 75.09375 206.957031 73.445312 205.515625 71.917969 204.542969 C 68.007812 202.054688 66.542969 199.082031 68.800781 198.214844 C 69.757812 197.847656 70.210938 197.878906 69.804688 198.285156 C 68.769531 199.324219 72.179688 202.871094 73.457031 202.082031 C 74.042969 201.71875 74.1875 201.9375 73.789062 202.589844 C 73.359375 203.285156 74.105469 204 75.675781 204.394531 C 78.476562 205.097656 78.726562 205.597656 77.355469 207.765625 C 76.605469 208.949219 76.328125 208.945312 75.582031 207.742188 Z M 78.898438 207.464844 C 79.203125 206.664062 80.160156 205.738281 81.023438 205.40625 C 82.148438 204.972656 82.414062 205.265625 81.96875 206.433594 C 81.625 207.332031 81.34375 208.257812 81.34375 208.496094 C 81.34375 208.730469 80.667969 208.921875 79.839844 208.921875 C 78.960938 208.921875 78.570312 208.316406 78.898438 207.464844 Z M 118.160156 206.875 C 116.78125 204.292969 117.933594 204.292969 121.226562 206.875 C 123.757812 208.855469 123.761719 208.878906 121.519531 208.898438 C 120.273438 208.914062 118.761719 208 118.160156 206.875 Z M 85.433594 206.421875 C 85.433594 206.175781 85.894531 205.6875 86.457031 205.335938 C 87.019531 204.988281 87.480469 205.191406 87.480469 205.789062 C 87.480469 206.386719 87.019531 206.875 86.457031 206.875 C 85.894531 206.875 85.433594 206.671875 85.433594 206.421875 Z M 89.097656 204.964844 C 88.65625 204.25 88.574219 203.386719 88.910156 203.050781 C 89.824219 202.132812 90.824219 203.480469 90.328125 204.96875 C 89.984375 206.007812 89.742188 206.007812 89.097656 204.964844 Z M 74.878906 201.085938 C 74.496094 200.703125 74.128906 198.273438 74.0625 195.691406 C 73.960938 191.738281 73.839844 191.476562 73.296875 194.011719 C 72.941406 195.671875 72.304688 196.9375 71.882812 196.828125 C 71.460938 196.722656 70.707031 196.632812 70.207031 196.632812 C 68.128906 196.632812 68.015625 189.636719 70.011719 184.707031 C 71.972656 179.859375 72.246094 179.9375 72.65625 185.46875 C 72.945312 189.402344 74.128906 190.734375 76.859375 190.214844 C 78.460938 189.90625 79.296875 190.222656 79.296875 191.140625 C 79.296875 191.90625 78.261719 192.5625 76.996094 192.601562 L 74.695312 192.664062 L 76.996094 193.589844 C 78.261719 194.101562 79.289062 195.109375 79.28125 195.832031 C 79.269531 196.839844 79.0625 196.824219 78.386719 195.753906 C 77.902344 194.992188 77.25 194.78125 76.933594 195.292969 C 76.621094 195.800781 76.785156 196.886719 77.304688 197.707031 C 77.820312 198.523438 78.214844 199.882812 78.179688 200.730469 C 78.125 201.933594 77.992188 201.960938 77.558594 200.871094 C 77.167969 199.886719 76.792969 199.816406 76.289062 200.628906 C 75.898438 201.265625 75.265625 201.46875 74.878906 201.085938 Z M 176.625 197.65625 C 177.140625 196.109375 178.785156 195.949219 179.269531 197.398438 C 179.503906 198.105469 178.925781 198.679688 177.988281 198.679688 C 177.050781 198.679688 176.4375 198.21875 176.625 197.65625 Z M 90.628906 196.203125 C 90.582031 195.125 90.824219 194.519531 91.164062 194.859375 C 91.503906 195.199219 91.539062 196.085938 91.246094 196.824219 C 90.917969 197.640625 90.675781 197.398438 90.628906 196.203125 Z M 65.421875 190.230469 C 64.25 180.632812 64.234375 180.195312 65.015625 179.707031 C 65.414062 179.460938 66.058594 182.132812 66.445312 185.640625 C 66.832031 189.152344 67.402344 193.058594 67.710938 194.328125 C 68.015625 195.59375 67.804688 196.632812 67.234375 196.632812 C 66.667969 196.632812 65.851562 193.75 65.421875 190.230469 Z M 81.265625 196.375 C 80.496094 193.785156 80.511719 190.996094 81.304688 189.636719 C 82.066406 188.332031 82.308594 188.953125 82.335938 192.277344 C 82.351562 194.671875 82.136719 196.632812 81.855469 196.632812 C 81.574219 196.632812 81.308594 196.515625 81.265625 196.375 Z M 127.363281 187.902344 C 127.363281 187.046875 126.214844 185.820312 124.808594 185.179688 C 122.582031 184.164062 121.265625 182.292969 122.777344 182.292969 C 123.71875 182.292969 127.859375 184.828125 128.628906 185.878906 C 129.71875 187.363281 129.578125 189.460938 128.386719 189.460938 C 127.824219 189.460938 127.363281 188.761719 127.363281 187.902344 Z M 76.226562 181.269531 C 75.484375 179.878906 75.476562 179.21875 76.191406 179.21875 C 76.773438 179.21875 77.25 178.5 77.25 177.625 C 77.25 176.746094 77.710938 176.3125 78.273438 176.660156 C 79.585938 177.472656 79.617188 183.316406 78.308594 183.316406 C 77.765625 183.316406 76.832031 182.394531 76.226562 181.269531 Z M 71.128906 178 C 71.140625 177.261719 71.59375 175.96875 72.136719 175.125 C 72.945312 173.875 73.132812 174.007812 73.144531 175.832031 C 73.152344 177.066406 72.699219 178.359375 72.136719 178.707031 C 71.574219 179.054688 71.121094 178.738281 71.128906 178 Z M 64.847656 174.867188 C 64.441406 164.648438 68.058594 141.21875 70.15625 140.472656 C 70.683594 140.285156 71.113281 139.09375 71.113281 137.832031 C 71.113281 135.054688 75.871094 122.921875 77.707031 121.015625 C 78.792969 119.890625 79.125 119.941406 79.65625 121.328125 C 80.0625 122.390625 79.890625 122.742188 79.175781 122.300781 C 78.433594 121.84375 78.28125 122.316406 78.71875 123.703125 C 79.164062 125.109375 78.714844 126.421875 77.359375 127.6875 C 75.210938 129.695312 73.160156 134.226562 73.160156 136.976562 C 73.160156 138.371094 73.40625 138.316406 74.660156 136.65625 C 75.488281 135.5625 76.179688 133.398438 76.195312 131.851562 C 76.214844 130.300781 76.6875 129.035156 77.25 129.035156 C 79.101562 129.035156 78.320312 136.054688 75.972656 140.523438 C 74.003906 144.28125 73.625 144.578125 73.34375 142.605469 C 73.164062 141.335938 72.644531 140.300781 72.1875 140.300781 C 70.191406 140.300781 69.210938 152.949219 71.113281 154.128906 C 72.816406 155.179688 72.363281 159.042969 70.617188 158.371094 C 68.367188 157.503906 67.316406 160.46875 67.230469 167.953125 C 67.113281 178.066406 67.097656 178.195312 66 178.195312 C 65.4375 178.195312 64.917969 176.699219 64.847656 174.867188 Z M 74.414062 174.703125 C 74.730469 173.058594 74.476562 172.394531 73.652344 172.710938 C 72.03125 173.335938 70.621094 164.964844 72.097656 163.484375 C 72.832031 162.75 73.160156 163.339844 73.160156 165.386719 C 73.160156 167.203125 74.214844 169.457031 75.875 171.191406 C 78.136719 173.558594 78.371094 174.285156 77.28125 175.597656 C 75.332031 177.949219 73.882812 177.496094 74.414062 174.703125 Z M 194.65625 157.507812 C 195.613281 156.550781 196.15625 156.550781 197.113281 157.507812 C 198.066406 158.464844 197.792969 158.738281 195.882812 158.738281 C 193.976562 158.738281 193.703125 158.464844 194.65625 157.507812 Z M 201 157.652344 C 201 157.003906 201.652344 156.71875 202.449219 157.027344 C 203.246094 157.332031 204.164062 156.890625 204.484375 156.046875 C 204.84375 155.117188 205.582031 154.824219 206.359375 155.3125 C 207.066406 155.753906 208.636719 155.984375 209.847656 155.828125 C 211.0625 155.671875 212.355469 156.03125 212.722656 156.628906 C 213.097656 157.234375 212.574219 157.742188 211.542969 157.777344 C 210.523438 157.8125 207.734375 158.0625 205.34375 158.339844 C 202.449219 158.671875 201 158.445312 201 157.652344 Z M 215.113281 157.507812 C 216.066406 156.550781 216.613281 156.550781 217.566406 157.507812 C 218.519531 158.464844 218.25 158.738281 216.339844 158.738281 C 214.429688 158.738281 214.15625 158.464844 215.113281 157.507812 Z M 191.511719 151.992188 C 189.953125 151.144531 188.15625 150.773438 187.519531 151.167969 C 186.8125 151.605469 186.648438 151.425781 187.09375 150.699219 C 187.558594 149.949219 187.035156 149.519531 185.65625 149.519531 C 184.464844 149.519531 183.714844 149.878906 183.988281 150.324219 C 184.261719 150.765625 183.597656 151.128906 182.515625 151.128906 C 179.792969 151.128906 180.046875 149.703125 183.003906 148.351562 C 184.992188 147.445312 186.667969 147.695312 191.699219 149.648438 C 197.824219 152.027344 199.664062 153.65625 196.140625 153.574219 C 195.15625 153.550781 193.074219 152.839844 191.511719 151.992188 Z M 282.816406 138.3125 C 282.816406 137.714844 283.277344 137.226562 283.839844 137.226562 C 284.402344 137.226562 284.863281 137.429688 284.863281 137.679688 C 284.863281 137.925781 284.402344 138.414062 283.839844 138.765625 C 283.277344 139.113281 282.816406 138.910156 282.816406 138.3125 Z M 284.863281 119.363281 C 284.863281 119.117188 285.320312 118.628906 285.882812 118.28125 C 286.445312 117.929688 286.90625 118.136719 286.90625 118.730469 C 286.90625 119.328125 286.445312 119.816406 285.882812 119.816406 C 285.320312 119.816406 284.863281 119.613281 284.863281 119.363281 Z M 82.363281 114.304688 C 82.363281 113.457031 82.824219 112.484375 83.386719 112.132812 C 83.949219 111.785156 84.40625 112.191406 84.40625 113.039062 C 84.40625 113.882812 83.949219 114.859375 83.386719 115.207031 C 82.824219 115.554688 82.363281 115.148438 82.363281 114.304688 Z M 86.453125 114.242188 C 86.453125 113.996094 86.914062 113.507812 87.476562 113.160156 C 88.039062 112.8125 88.5 113.015625 88.5 113.609375 C 88.5 114.207031 88.039062 114.695312 87.476562 114.695312 C 86.914062 114.695312 86.453125 114.492188 86.453125 114.242188 Z M 92.589844 108.609375 C 92.589844 108.011719 93.050781 107.527344 93.613281 107.527344 C 94.175781 107.527344 94.636719 107.730469 94.636719 107.976562 C 94.636719 108.226562 94.175781 108.714844 93.613281 109.0625 C 93.050781 109.410156 92.589844 109.207031 92.589844 108.609375 Z M 94.101562 99.292969 C 93.753906 98.734375 92.925781 98.601562 92.261719 99 C 91.574219 99.414062 91.660156 98.980469 92.457031 97.992188 C 93.917969 96.191406 97.210938 95.65625 98.089844 97.078125 C 98.367188 97.527344 97.722656 98.441406 96.660156 99.105469 C 95.414062 99.886719 94.507812 99.953125 94.101562 99.292969 Z M 229.316406 84.875 C 228.296875 84.28125 226.777344 84.0625 225.9375 84.382812 C 225.078125 84.714844 224.683594 84.527344 225.039062 83.957031 C 225.382812 83.402344 225.097656 82.945312 224.410156 82.945312 C 222.140625 82.945312 224.457031 81.589844 227.226562 81.292969 C 230.414062 80.953125 236.105469 83.617188 235.230469 85.035156 C 234.441406 86.3125 231.652344 86.238281 229.316406 84.875 Z M 229.316406 84.875 " clip-rule="nonzero"/></clipPath><radialGradient gradientTransform="matrix(1.00229, 0, 0, 0.99771, -184.910091, -137.966917)" gradientUnits="userSpaceOnUse" r="286.657857" cx="252.638419" id="6aaa3eb40e" cy="169.636688" fx="252.638419" fy="169.636688"><stop stop-opacity="1" stop-color="rgb(21.595764%, 66.999817%, 78.239441%)" offset="0"/><stop stop-opacity="1" stop-color="rgb(21.589661%, 66.827393%, 77.960205%)" offset="0.015625"/><stop stop-opacity="1" stop-color="rgb(21.585083%, 66.680908%, 77.720642%)" offset="0.0273438"/><stop stop-opacity="1" stop-color="rgb(21.580505%, 66.532898%, 77.482605%)" offset="0.0390625"/><stop stop-opacity="1" stop-color="rgb(21.575928%, 66.384888%, 77.243042%)" offset="0.0507812"/><stop stop-opacity="1" stop-color="rgb(21.57135%, 66.236877%, 77.003479%)" offset="0.0625"/><stop stop-opacity="1" stop-color="rgb(21.566772%, 66.090393%, 76.765442%)" offset="0.0742188"/><stop stop-opacity="1" stop-color="rgb(21.562195%, 65.942383%, 76.525879%)" offset="0.0859375"/><stop stop-opacity="1" stop-color="rgb(21.557617%, 65.794373%, 76.286316%)" offset="0.0976562"/><stop stop-opacity="1" stop-color="rgb(21.55304%, 65.646362%, 76.048279%)" offset="0.109375"/><stop stop-opacity="1" stop-color="rgb(21.548462%, 65.498352%, 75.808716%)" offset="0.121094"/><stop stop-opacity="1" stop-color="rgb(21.542358%, 65.351868%, 75.569153%)" offset="0.132812"/><stop stop-opacity="1" stop-color="rgb(21.537781%, 65.203857%, 75.331116%)" offset="0.144531"/><stop stop-opacity="1" stop-color="rgb(21.533203%, 65.055847%, 75.091553%)" offset="0.15625"/><stop stop-opacity="1" stop-color="rgb(21.528625%, 64.907837%, 74.85199%)" offset="0.167969"/><stop stop-opacity="1" stop-color="rgb(21.524048%, 64.761353%, 74.613953%)" offset="0.179688"/><stop stop-opacity="1" stop-color="rgb(21.51947%, 64.613342%, 74.37439%)" offset="0.191406"/><stop stop-opacity="1" stop-color="rgb(21.514893%, 64.465332%, 74.134827%)" offset="0.203125"/><stop stop-opacity="1" stop-color="rgb(21.510315%, 64.317322%, 73.89679%)" offset="0.214844"/><stop stop-opacity="1" stop-color="rgb(21.505737%, 64.170837%, 73.657227%)" offset="0.226562"/><stop stop-opacity="1" stop-color="rgb(21.50116%, 64.022827%, 73.417664%)" offset="0.238281"/><stop stop-opacity="1" stop-color="rgb(21.496582%, 63.874817%, 73.179626%)" offset="0.25"/><stop stop-opacity="1" stop-color="rgb(21.49353%, 63.751221%, 72.979736%)" offset="0.261719"/><stop stop-opacity="1" stop-color="rgb(21.490479%, 63.653564%, 72.821045%)" offset="0.269531"/><stop stop-opacity="1" stop-color="rgb(21.487427%, 63.554382%, 72.660828%)" offset="0.277344"/><stop stop-opacity="1" stop-color="rgb(21.482849%, 63.456726%, 72.502136%)" offset="0.285156"/><stop stop-opacity="1" stop-color="rgb(21.479797%, 63.357544%, 72.341919%)" offset="0.292969"/><stop stop-opacity="1" stop-color="rgb(21.476746%, 63.259888%, 72.183228%)" offset="0.300781"/><stop stop-opacity="1" stop-color="rgb(21.473694%, 63.160706%, 72.024536%)" offset="0.308594"/><stop stop-opacity="1" stop-color="rgb(21.470642%, 63.063049%, 71.864319%)" offset="0.316406"/><stop stop-opacity="1" stop-color="rgb(21.46759%, 62.963867%, 71.705627%)" offset="0.324219"/><stop stop-opacity="1" stop-color="rgb(21.464539%, 62.866211%, 71.54541%)" offset="0.332031"/><stop stop-opacity="1" stop-color="rgb(21.461487%, 62.767029%, 71.386719%)" offset="0.339844"/><stop stop-opacity="1" stop-color="rgb(21.458435%, 62.669373%, 71.226501%)" offset="0.347656"/><stop stop-opacity="1" stop-color="rgb(21.455383%, 62.57019%, 71.06781%)" offset="0.355469"/><stop stop-opacity="1" stop-color="rgb(21.452332%, 62.472534%, 70.907593%)" offset="0.363281"/><stop stop-opacity="1" stop-color="rgb(21.44928%, 62.373352%, 70.748901%)" offset="0.371094"/><stop stop-opacity="1" stop-color="rgb(21.444702%, 62.225342%, 70.509338%)" offset="0.378906"/><stop stop-opacity="1" stop-color="rgb(21.438599%, 62.028503%, 70.19043%)" offset="0.394531"/><stop stop-opacity="1" stop-color="rgb(21.432495%, 61.831665%, 69.871521%)" offset="0.410156"/><stop stop-opacity="1" stop-color="rgb(21.426392%, 61.634827%, 69.552612%)" offset="0.425781"/><stop stop-opacity="1" stop-color="rgb(21.418762%, 61.437988%, 69.235229%)" offset="0.441406"/><stop stop-opacity="1" stop-color="rgb(21.412659%, 61.24115%, 68.916321%)" offset="0.457031"/><stop stop-opacity="1" stop-color="rgb(21.406555%, 61.044312%, 68.597412%)" offset="0.472656"/><stop stop-opacity="1" stop-color="rgb(21.400452%, 60.847473%, 68.278503%)" offset="0.488281"/><stop stop-opacity="1" stop-color="rgb(21.394348%, 60.675049%, 67.999268%)" offset="0.503906"/><stop stop-opacity="1" stop-color="rgb(21.389771%, 60.528564%, 67.759705%)" offset="0.515625"/><stop stop-opacity="1" stop-color="rgb(21.385193%, 60.380554%, 67.521667%)" offset="0.527344"/><stop stop-opacity="1" stop-color="rgb(21.380615%, 60.232544%, 67.282104%)" offset="0.539062"/><stop stop-opacity="1" stop-color="rgb(21.376038%, 60.084534%, 67.042542%)" offset="0.550781"/><stop stop-opacity="1" stop-color="rgb(21.37146%, 59.938049%, 66.804504%)" offset="0.5625"/><stop stop-opacity="1" stop-color="rgb(21.366882%, 59.790039%, 66.564941%)" offset="0.574219"/><stop stop-opacity="1" stop-color="rgb(21.362305%, 59.642029%, 66.325378%)" offset="0.585938"/><stop stop-opacity="1" stop-color="rgb(21.357727%, 59.494019%, 66.087341%)" offset="0.597656"/><stop stop-opacity="1" stop-color="rgb(21.353149%, 59.346008%, 65.847778%)" offset="0.609375"/><stop stop-opacity="1" stop-color="rgb(21.347046%, 59.199524%, 65.608215%)" offset="0.621094"/><stop stop-opacity="1" stop-color="rgb(21.343994%, 59.075928%, 65.409851%)" offset="0.632812"/><stop stop-opacity="1" stop-color="rgb(21.340942%, 58.978271%, 65.25116%)" offset="0.640625"/><stop stop-opacity="1" stop-color="rgb(21.337891%, 58.879089%, 65.090942%)" offset="0.648438"/><stop stop-opacity="1" stop-color="rgb(21.334839%, 58.781433%, 64.932251%)" offset="0.65625"/><stop stop-opacity="1" stop-color="rgb(21.331787%, 58.682251%, 64.772034%)" offset="0.664062"/><stop stop-opacity="1" stop-color="rgb(21.328735%, 58.584595%, 64.613342%)" offset="0.671875"/><stop stop-opacity="1" stop-color="rgb(21.325684%, 58.485413%, 64.453125%)" offset="0.679688"/><stop stop-opacity="1" stop-color="rgb(21.322632%, 58.387756%, 64.294434%)" offset="0.6875"/><stop stop-opacity="1" stop-color="rgb(21.318054%, 58.239746%, 64.054871%)" offset="0.695312"/><stop stop-opacity="1" stop-color="rgb(21.311951%, 58.042908%, 63.735962%)" offset="0.710938"/><stop stop-opacity="1" stop-color="rgb(21.305847%, 57.846069%, 63.417053%)" offset="0.726562"/><stop stop-opacity="1" stop-color="rgb(21.299744%, 57.649231%, 63.098145%)" offset="0.742188"/><stop stop-opacity="1" stop-color="rgb(21.29364%, 57.476807%, 62.820435%)" offset="0.757812"/><stop stop-opacity="1" stop-color="rgb(21.289062%, 57.328796%, 62.580872%)" offset="0.769531"/><stop stop-opacity="1" stop-color="rgb(21.282959%, 57.180786%, 62.341309%)" offset="0.78125"/><stop stop-opacity="1" stop-color="rgb(21.278381%, 57.032776%, 62.103271%)" offset="0.792969"/><stop stop-opacity="1" stop-color="rgb(21.273804%, 56.886292%, 61.863708%)" offset="0.804688"/><stop stop-opacity="1" stop-color="rgb(21.270752%, 56.762695%, 61.663818%)" offset="0.816406"/><stop stop-opacity="1" stop-color="rgb(21.2677%, 56.665039%, 61.505127%)" offset="0.824219"/><stop stop-opacity="1" stop-color="rgb(21.264648%, 56.565857%, 61.346436%)" offset="0.832031"/><stop stop-opacity="1" stop-color="rgb(21.261597%, 56.468201%, 61.186218%)" offset="0.839844"/><stop stop-opacity="1" stop-color="rgb(21.257019%, 56.32019%, 60.946655%)" offset="0.847656"/><stop stop-opacity="1" stop-color="rgb(21.250916%, 56.123352%, 60.627747%)" offset="0.863281"/><stop stop-opacity="1" stop-color="rgb(21.244812%, 55.950928%, 60.350037%)" offset="0.878906"/><stop stop-opacity="1" stop-color="rgb(21.240234%, 55.802917%, 60.110474%)" offset="0.890625"/><stop stop-opacity="1" stop-color="rgb(21.235657%, 55.654907%, 59.870911%)" offset="0.902344"/><stop stop-opacity="1" stop-color="rgb(21.232605%, 55.532837%, 59.672546%)" offset="0.914062"/><stop stop-opacity="1" stop-color="rgb(21.229553%, 55.433655%, 59.512329%)" offset="0.921875"/><stop stop-opacity="1" stop-color="rgb(21.22345%, 55.285645%, 59.274292%)" offset="0.929688"/><stop stop-opacity="1" stop-color="rgb(21.217346%, 55.11322%, 58.995056%)" offset="0.945312"/><stop stop-opacity="1" stop-color="rgb(21.214294%, 54.99115%, 58.795166%)" offset="0.957031"/><stop stop-opacity="1" stop-color="rgb(21.209717%, 54.84314%, 58.557129%)" offset="0.964844"/><stop stop-opacity="1" stop-color="rgb(21.205139%, 54.695129%, 58.317566%)" offset="0.980469"/><stop stop-opacity="1" stop-color="rgb(21.200562%, 54.573059%, 58.117676%)" offset="0.988281"/><stop stop-opacity="1" stop-color="rgb(21.199036%, 54.499817%, 57.998657%)" offset="1"/></radialGradient><clipPath id="19780b2465"><path d="M 186 27 L 322.699219 27 L 322.699219 321 L 186 321 Z M 186 27 " clip-rule="nonzero"/></clipPath><clipPath id="9ad1097188"><path d="M 71.449219 25 L 289 25 L 289 332.085938 L 71.449219 332.085938 Z M 71.449219 25 " clip-rule="nonzero"/></clipPath></defs><rect x="-37.5" width="450" fill="#ffffff" y="-37.499999" height="449.999989" fill-opacity="1"/><rect x="-37.5" width="450" fill="#ffffff" y="-37.499999" height="449.999989" fill-opacity="1"/><rect x="-37.5" width="450" fill="#ffffff" y="-37.499999" height="449.999989" fill-opacity="1"/><g clip-path="url(#110a5b8140)"><path fill="#dcf4f7" d="M 312.074219 177.992188 C 312.074219 180.039062 312.023438 182.082031 311.921875 184.128906 C 311.820312 186.171875 311.671875 188.214844 311.472656 190.25 C 311.269531 192.289062 311.019531 194.316406 310.722656 196.34375 C 310.421875 198.367188 310.070312 200.382812 309.671875 202.390625 C 309.273438 204.398438 308.828125 206.394531 308.332031 208.378906 C 307.832031 210.367188 307.289062 212.339844 306.695312 214.296875 C 306.101562 216.257812 305.460938 218.199219 304.773438 220.125 C 304.082031 222.054688 303.347656 223.960938 302.566406 225.855469 C 301.785156 227.746094 300.957031 229.617188 300.082031 231.464844 C 299.207031 233.316406 298.289062 235.144531 297.324219 236.949219 C 296.363281 238.753906 295.355469 240.535156 294.304688 242.289062 C 293.253906 244.046875 292.160156 245.773438 291.023438 247.476562 C 289.890625 249.179688 288.714844 250.851562 287.496094 252.496094 C 286.277344 254.140625 285.019531 255.753906 283.722656 257.335938 C 282.425781 258.917969 281.09375 260.46875 279.71875 261.984375 C 278.347656 263.5 276.9375 264.980469 275.492188 266.429688 C 274.046875 267.878906 272.566406 269.289062 271.054688 270.664062 C 269.539062 272.039062 267.992188 273.375 266.414062 274.671875 C 264.832031 275.972656 263.222656 277.230469 261.578125 278.449219 C 259.9375 279.667969 258.265625 280.847656 256.566406 281.984375 C 254.867188 283.121094 253.140625 284.214844 251.390625 285.269531 C 249.636719 286.320312 247.859375 287.328125 246.054688 288.292969 C 244.253906 289.257812 242.429688 290.179688 240.582031 291.054688 C 238.734375 291.929688 236.863281 292.757812 234.976562 293.542969 C 233.085938 294.324219 231.179688 295.0625 229.257812 295.75 C 227.332031 296.441406 225.390625 297.082031 223.4375 297.675781 C 221.480469 298.269531 219.511719 298.816406 217.527344 299.3125 C 215.546875 299.8125 213.550781 300.257812 211.546875 300.660156 C 209.542969 301.058594 207.53125 301.40625 205.507812 301.707031 C 203.484375 302.007812 201.457031 302.257812 199.425781 302.460938 C 197.390625 302.660156 195.351562 302.8125 193.3125 302.910156 C 191.269531 303.011719 189.226562 303.0625 187.183594 303.0625 C 185.140625 303.0625 183.097656 303.011719 181.054688 302.910156 C 179.011719 302.8125 176.976562 302.660156 174.941406 302.460938 C 172.90625 302.257812 170.878906 302.007812 168.859375 301.707031 C 166.835938 301.40625 164.824219 301.058594 162.816406 300.660156 C 160.8125 300.257812 158.820312 299.8125 156.835938 299.3125 C 154.855469 298.816406 152.886719 298.269531 150.929688 297.675781 C 148.972656 297.082031 147.03125 296.441406 145.109375 295.75 C 143.183594 295.0625 141.277344 294.324219 139.390625 293.542969 C 137.5 292.757812 135.632812 291.929688 133.785156 291.054688 C 131.9375 290.179688 130.113281 289.257812 128.308594 288.292969 C 126.507812 287.328125 124.730469 286.320312 122.976562 285.269531 C 121.222656 284.214844 119.496094 283.121094 117.796875 281.984375 C 116.097656 280.847656 114.425781 279.667969 112.785156 278.449219 C 111.144531 277.230469 109.535156 275.972656 107.953125 274.671875 C 106.375 273.375 104.828125 272.039062 103.3125 270.664062 C 101.796875 269.289062 100.316406 267.878906 98.871094 266.429688 C 97.425781 264.980469 96.019531 263.5 94.644531 261.984375 C 93.273438 260.46875 91.9375 258.917969 90.640625 257.335938 C 89.34375 255.753906 88.085938 254.140625 86.871094 252.496094 C 85.652344 250.851562 84.476562 249.179688 83.339844 247.476562 C 82.203125 245.773438 81.113281 244.046875 80.0625 242.289062 C 79.011719 240.535156 78.003906 238.753906 77.039062 236.949219 C 76.074219 235.144531 75.15625 233.316406 74.285156 231.464844 C 73.410156 229.617188 72.582031 227.746094 71.800781 225.855469 C 71.015625 223.960938 70.28125 222.054688 69.59375 220.125 C 68.90625 218.199219 68.265625 216.257812 67.671875 214.296875 C 67.078125 212.339844 66.53125 210.367188 66.035156 208.378906 C 65.539062 206.394531 65.089844 204.398438 64.691406 202.390625 C 64.292969 200.382812 63.945312 198.367188 63.644531 196.34375 C 63.34375 194.316406 63.09375 192.289062 62.894531 190.25 C 62.695312 188.214844 62.542969 186.171875 62.441406 184.128906 C 62.34375 182.082031 62.292969 180.039062 62.292969 177.992188 C 62.292969 175.945312 62.34375 173.898438 62.441406 171.855469 C 62.542969 169.808594 62.695312 167.769531 62.894531 165.730469 C 63.09375 163.695312 63.34375 161.664062 63.644531 159.640625 C 63.945312 157.613281 64.292969 155.597656 64.691406 153.589844 C 65.089844 151.582031 65.539062 149.585938 66.035156 147.601562 C 66.53125 145.617188 67.078125 143.644531 67.671875 141.683594 C 68.265625 139.726562 68.90625 137.78125 69.59375 135.855469 C 70.28125 133.929688 71.015625 132.019531 71.800781 130.128906 C 72.582031 128.238281 73.410156 126.367188 74.285156 124.515625 C 75.15625 122.664062 76.074219 120.839844 77.039062 119.03125 C 78.003906 117.226562 79.011719 115.449219 80.0625 113.691406 C 81.113281 111.9375 82.203125 110.207031 83.339844 108.503906 C 84.476562 106.804688 85.652344 105.128906 86.871094 103.484375 C 88.085938 101.84375 89.34375 100.230469 90.640625 98.648438 C 91.9375 97.066406 93.273438 95.515625 94.644531 94 C 96.019531 92.480469 97.425781 91 98.871094 89.550781 C 100.316406 88.105469 101.796875 86.695312 103.3125 85.320312 C 104.828125 83.945312 106.375 82.609375 107.953125 81.308594 C 109.535156 80.011719 111.144531 78.753906 112.785156 77.53125 C 114.425781 76.3125 116.097656 75.136719 117.796875 74 C 119.496094 72.859375 121.222656 71.765625 122.976562 70.714844 C 124.730469 69.660156 126.507812 68.652344 128.308594 67.6875 C 130.113281 66.722656 131.9375 65.804688 133.785156 64.929688 C 135.632812 64.054688 137.5 63.222656 139.390625 62.441406 C 141.277344 61.65625 143.183594 60.921875 145.109375 60.230469 C 147.03125 59.542969 148.972656 58.898438 150.929688 58.304688 C 152.886719 57.710938 154.855469 57.164062 156.835938 56.667969 C 158.820312 56.171875 160.8125 55.722656 162.816406 55.324219 C 164.824219 54.921875 166.835938 54.574219 168.859375 54.273438 C 170.878906 53.972656 172.90625 53.722656 174.941406 53.523438 C 176.976562 53.320312 179.011719 53.171875 181.054688 53.070312 C 183.097656 52.96875 185.140625 52.917969 187.183594 52.917969 C 189.226562 52.917969 191.269531 52.96875 193.3125 53.070312 C 195.351562 53.171875 197.390625 53.320312 199.425781 53.523438 C 201.457031 53.722656 203.484375 53.972656 205.507812 54.273438 C 207.53125 54.574219 209.542969 54.921875 211.546875 55.324219 C 213.550781 55.722656 215.546875 56.171875 217.527344 56.667969 C 219.511719 57.164062 221.480469 57.710938 223.4375 58.304688 C 225.390625 58.898438 227.332031 59.542969 229.257812 60.230469 C 231.179688 60.921875 233.085938 61.65625 234.976562 62.441406 C 236.863281 63.222656 238.734375 64.054688 240.582031 64.929688 C 242.429688 65.804688 244.253906 66.722656 246.054688 67.6875 C 247.859375 68.652344 249.636719 69.660156 251.390625 70.714844 C 253.140625 71.765625 254.867188 72.859375 256.566406 74 C 258.265625 75.136719 259.9375 76.3125 261.578125 77.53125 C 263.222656 78.753906 264.832031 80.011719 266.414062 81.308594 C 267.992188 82.609375 269.539062 83.945312 271.054688 85.320312 C 272.566406 86.695312 274.046875 88.105469 275.492188 89.550781 C 276.9375 91 278.347656 92.480469 279.71875 94 C 281.09375 95.515625 282.425781 97.066406 283.722656 98.648438 C 285.019531 100.230469 286.277344 101.84375 287.496094 103.484375 C 288.714844 105.128906 289.890625 106.804688 291.023438 108.503906 C 292.160156 110.207031 293.253906 111.9375 294.304688 113.691406 C 295.355469 115.449219 296.363281 117.226562 297.324219 119.03125 C 298.289062 120.839844 299.207031 122.664062 300.082031 124.515625 C 300.957031 126.367188 301.785156 128.238281 302.566406 130.128906 C 303.347656 132.019531 304.082031 133.929688 304.773438 135.855469 C 305.460938 137.78125 306.101562 139.726562 306.695312 141.683594 C 307.289062 143.644531 307.832031 145.617188 308.332031 147.601562 C 308.828125 149.585938 309.273438 151.582031 309.671875 153.589844 C 310.070312 155.597656 310.421875 157.613281 310.722656 159.640625 C 311.019531 161.664062 311.269531 163.695312 311.472656 165.730469 C 311.671875 167.769531 311.820312 169.808594 311.921875 171.855469 C 312.023438 173.898438 312.074219 175.945312 312.074219 177.992188 Z M 312.074219 177.992188 " fill-opacity="1" fill-rule="evenodd"/></g><g clip-path="url(#964cdf8518)"><g clip-path="url(#68e4b09476)"><path fill="url(#6aaa3eb40e)" d="M 64.234375 53.863281 L 64.234375 301.117188 L 312.546875 301.117188 L 312.546875 53.863281 Z M 64.234375 53.863281 " fill-rule="nonzero"/></g></g><g clip-path="url(#19780b2465)"><path fill="#37abc8" d="M 288.890625 296.371094 C 301.492188 300.714844 312.617188 306.898438 322.417969 314.925781 C 302.890625 209.769531 177.179688 93.496094 231.121094 43.273438 C 232.519531 41.949219 236.941406 39.222656 238.636719 38.046875 C 233.992188 31.640625 228.539062 28.324219 224.339844 27 C 223.085938 27.367188 221.835938 27.882812 220.582031 28.398438 C 188.234375 42.980469 181.601562 86.425781 190.148438 117.503906 C 205.402344 173.320312 258.457031 238.34375 265.238281 320.742188 C 279.089844 303.21875 286.972656 295.042969 288.890625 296.371094 Z M 288.890625 296.371094 " fill-opacity="1" fill-rule="evenodd"/></g><g clip-path="url(#9ad1097188)"><path fill="#69c9d2" d="M 223.601562 27.222656 C 224.929688 26.78125 226.328125 26.410156 227.730469 26.117188 C 239.152344 23.835938 249.835938 26.117188 258.972656 31.34375 C 322.566406 67.796875 269.730469 183.921875 237.898438 224.351562 C 186.832031 284.367188 139.894531 320.375 97.007812 332.085938 C 105.335938 312.421875 109.019531 302.039062 108.0625 301.007812 L 71.585938 292.097656 C 159.199219 255.425781 280.785156 158.296875 243.128906 55.941406 C 239.667969 46.441406 233.109375 31.859375 223.601562 27.222656 Z M 223.601562 27.222656 " fill-opacity="1" fill-rule="evenodd"/></g></svg>