<?xml version="1.0" encoding="utf-8"?>
<!-- Generator: Adobe Illustrator 27.5.0, SVG Export Plug-In . SVG Version: 6.00 Build 0)  -->
<svg version="1.1" id="Layer_1" xmlns="http://www.w3.org/2000/svg" xmlns:xlink="http://www.w3.org/1999/xlink" x="0px" y="0px"
	 viewBox="0 0 500 500" style="enable-background:new 0 0 250 250;" xml:space="preserve">
<style type="text/css">
	.st0{clip-path:url(#SVGID_00000115497750556117572570000002353344166697561242_);}
	.st1{fill-rule:evenodd;clip-rule:evenodd;fill:#DCF4F7;}
	.st2{clip-path:url(#SVGID_00000070822532290630015480000006165086969587285144_);}
	.st3{clip-path:url(#SVGID_00000053545215645807309400000003238831828320769933_);}
	.st4{fill:url(#SVGID_00000013163401089952327700000000048863364114594205_);}
	.st5{clip-path:url(#SVGID_00000084495006535898427480000018166689860186522787_);}
	.st6{fill-rule:evenodd;clip-rule:evenodd;fill:#37ABC8;}
	.st7{clip-path:url(#SVGID_00000006701347928311347620000003425146485723091329_);}
	.st8{fill-rule:evenodd;clip-rule:evenodd;fill:#69C9D2;}
</style>
<g>
	<defs>
		<rect id="SVGID_1_" x="76.2" y="81.3" width="334" height="336"/>
	</defs>
	<clipPath id="SVGID_00000124859935208730578900000001473103416708279973_">
		<use xlink:href="#SVGID_1_"  style="overflow:visible;"/>
	</clipPath>
	<g style="clip-path:url(#SVGID_00000124859935208730578900000001473103416708279973_);">
		<path class="st1" d="M409.6,249.3c0,2.7-0.1,5.5-0.2,8.2c-0.1,2.7-0.3,5.4-0.6,8.2c-0.3,2.7-0.6,5.4-1,8.1
			c-0.4,2.7-0.9,5.4-1.4,8.1s-1.1,5.3-1.8,8c-0.7,2.7-1.4,5.3-2.2,7.9c-0.8,2.6-1.6,5.2-2.6,7.8c-0.9,2.6-1.9,5.1-2.9,7.6
			c-1,2.5-2.1,5-3.3,7.5c-1.2,2.5-2.4,4.9-3.7,7.3c-1.3,2.4-2.6,4.8-4,7.1c-1.4,2.3-2.9,4.6-4.4,6.9c-1.5,2.3-3.1,4.5-4.7,6.7
			c-1.6,2.2-3.3,4.3-5,6.5c-1.7,2.1-3.5,4.2-5.3,6.2c-1.8,2-3.7,4-5.6,5.9c-1.9,1.9-3.9,3.8-5.9,5.6c-2,1.8-4.1,3.6-6.2,5.3
			c-2.1,1.7-4.3,3.4-6.4,5c-2.2,1.6-4.4,3.2-6.7,4.7s-4.6,3-6.9,4.4c-2.3,1.4-4.7,2.7-7.1,4c-2.4,1.3-4.8,2.5-7.3,3.7
			s-5,2.3-7.5,3.3c-2.5,1-5.1,2-7.6,2.9c-2.6,0.9-5.2,1.8-7.8,2.6c-2.6,0.8-5.2,1.5-7.9,2.2c-2.6,0.7-5.3,1.3-8,1.8
			c-2.7,0.5-5.4,1-8.1,1.4s-5.4,0.7-8.1,1c-2.7,0.3-5.4,0.5-8.2,0.6c-2.7,0.1-5.4,0.2-8.2,0.2c-2.7,0-5.4-0.1-8.2-0.2
			c-2.7-0.1-5.4-0.3-8.2-0.6c-2.7-0.3-5.4-0.6-8.1-1c-2.7-0.4-5.4-0.9-8.1-1.4c-2.7-0.5-5.3-1.1-8-1.8c-2.6-0.7-5.3-1.4-7.9-2.2
			s-5.2-1.6-7.8-2.6c-2.6-0.9-5.1-1.9-7.6-2.9c-2.5-1-5-2.2-7.5-3.3c-2.5-1.2-4.9-2.4-7.3-3.7c-2.4-1.3-4.8-2.6-7.1-4
			c-2.3-1.4-4.6-2.9-6.9-4.4s-4.5-3.1-6.7-4.7s-4.3-3.3-6.4-5c-2.1-1.7-4.2-3.5-6.2-5.3s-4-3.7-5.9-5.6c-1.9-1.9-3.8-3.9-5.6-5.9
			c-1.8-2-3.6-4.1-5.3-6.2c-1.7-2.1-3.4-4.3-5-6.5c-1.6-2.2-3.2-4.4-4.7-6.7c-1.5-2.3-3-4.6-4.4-6.9c-1.4-2.3-2.7-4.7-4-7.1
			s-2.5-4.8-3.7-7.3c-1.2-2.5-2.3-5-3.3-7.5c-1-2.5-2-5.1-2.9-7.6c-0.9-2.6-1.8-5.2-2.6-7.8c-0.8-2.6-1.5-5.2-2.2-7.9
			c-0.7-2.6-1.3-5.3-1.8-8s-1-5.4-1.4-8.1c-0.4-2.7-0.7-5.4-1-8.1c-0.3-2.7-0.5-5.4-0.6-8.2c-0.1-2.7-0.2-5.5-0.2-8.2
			s0.1-5.5,0.2-8.2c0.1-2.7,0.3-5.4,0.6-8.2c0.3-2.7,0.6-5.4,1-8.1c0.4-2.7,0.9-5.4,1.4-8.1c0.5-2.7,1.1-5.3,1.8-8
			c0.7-2.6,1.4-5.3,2.2-7.9c0.8-2.6,1.6-5.2,2.6-7.8c0.9-2.6,1.9-5.1,2.9-7.6c1-2.5,2.1-5,3.3-7.5c1.2-2.5,2.4-4.9,3.7-7.3
			c1.3-2.4,2.6-4.8,4-7.1c1.4-2.3,2.9-4.6,4.4-6.9c1.5-2.3,3.1-4.5,4.7-6.7c1.6-2.2,3.3-4.3,5-6.4c1.7-2.1,3.5-4.2,5.3-6.2
			c1.8-2,3.7-4,5.6-5.9c1.9-1.9,3.9-3.8,5.9-5.6c2-1.8,4.1-3.6,6.2-5.3c2.1-1.7,4.3-3.4,6.4-5c2.2-1.6,4.4-3.2,6.7-4.7
			c2.3-1.5,4.6-3,6.9-4.4c2.3-1.4,4.7-2.8,7.1-4c2.4-1.3,4.8-2.5,7.3-3.7c2.5-1.2,5-2.3,7.5-3.3c2.5-1,5.1-2,7.6-2.9
			c2.6-0.9,5.2-1.8,7.8-2.6c2.6-0.8,5.2-1.5,7.9-2.2c2.6-0.7,5.3-1.3,8-1.8c2.7-0.5,5.4-1,8.1-1.4c2.7-0.4,5.4-0.7,8.1-1
			c2.7-0.3,5.4-0.5,8.2-0.6c2.7-0.1,5.4-0.2,8.2-0.2c2.7,0,5.4,0.1,8.2,0.2c2.7,0.1,5.4,0.3,8.2,0.6c2.7,0.3,5.4,0.6,8.1,1
			c2.7,0.4,5.4,0.9,8.1,1.4c2.7,0.5,5.3,1.1,8,1.8c2.6,0.7,5.3,1.4,7.9,2.2c2.6,0.8,5.2,1.7,7.8,2.6c2.6,0.9,5.1,1.9,7.6,2.9
			c2.5,1,5,2.2,7.5,3.3c2.5,1.2,4.9,2.4,7.3,3.7c2.4,1.3,4.8,2.6,7.1,4c2.3,1.4,4.6,2.9,6.9,4.4c2.3,1.5,4.5,3.1,6.7,4.7
			c2.2,1.6,4.3,3.3,6.4,5c2.1,1.7,4.2,3.5,6.2,5.3c2,1.8,4,3.7,5.9,5.6c1.9,1.9,3.8,3.9,5.6,5.9c1.8,2,3.6,4.1,5.3,6.2
			c1.7,2.1,3.4,4.3,5,6.4c1.6,2.2,3.2,4.4,4.7,6.7c1.5,2.3,3,4.6,4.4,6.9c1.4,2.3,2.7,4.7,4,7.1c1.3,2.4,2.5,4.8,3.7,7.3
			c1.2,2.5,2.3,5,3.3,7.5c1,2.5,2,5.1,2.9,7.6c0.9,2.6,1.8,5.2,2.6,7.8c0.8,2.6,1.5,5.2,2.2,7.9c0.7,2.6,1.3,5.3,1.8,8
			c0.5,2.7,1,5.4,1.4,8.1c0.4,2.7,0.7,5.4,1,8.1c0.3,2.7,0.5,5.4,0.6,8.2C409.5,243.8,409.6,246.5,409.6,249.3z"/>
	</g>
</g>
<g>
	<defs>
		<rect id="SVGID_00000134228632891922553650000011754997120076096944_" x="78.8" y="82.6" width="330.7" height="330.7"/>
	</defs>
	<clipPath id="SVGID_00000061447560124195379960000001617741912351890605_">
		<use xlink:href="#SVGID_00000134228632891922553650000011754997120076096944_"  style="overflow:visible;"/>
	</clipPath>
	<g style="clip-path:url(#SVGID_00000061447560124195379960000001617741912351890605_);">
		<g>
			<defs>
				<path id="SVGID_00000000197020414599653640000007461775749321187993_" d="M230.8,411.2c-10.4-1.2-22.6-3.6-23.2-4.6
					c-0.4-0.6,1.3-1.5,3.7-1.9c5.8-1.1,5.9-1.1,14.8,0c5.1,0.6,8,0.4,8.6-0.6c0.7-1.1,2.5-0.9,6.3,0.7c4.8,1.9,8.6,2,14.9,0.4
					c1.2-0.3,1.9,0.2,1.6,1.3c-0.3,1.3,0.3,1.6,2,0.8c1.3-0.6,4.3-0.9,6.5-0.8l4.1,0.2l-6.6-4.6l3.1-1.2c2-0.7,3.8-0.6,5,0.4
					c2.4,2,19.2,0.6,26-2.2c2.7-1.1,6.8-2.1,9.1-2.1c2.3,0,5.8-0.9,7.7-2c3.8-2.2,6.8-2.6,6.8-1c0,1.2-13.4,7.2-25.2,11.3
					C280.2,410.8,250.7,413.4,230.8,411.2L230.8,411.2z M267.2,389.3c-4.9-2-7.6-6.9-5.4-9.6c1-1.2,0.8-1.7-0.5-1.7
					c-1.3,0-1.4-0.3-0.3-1c0.9-0.6,2-4.1,2.5-7.8c0.5-3.8,1.7-9.6,2.7-13c1-3.4,1.8-7.4,1.8-8.9c0-2.9,1.2-12,2.6-19.6
					c1.1-6.1-1.6-10.8-8.1-14.1c-2.9-1.5-5.6-3.7-6-5c-2-6.4-6.7-15.9-10.5-21.2c-3.7-5.2-1.2-16.3,4.9-21.7c3.7-3.3,4.3-4.7,3.9-9
					c-0.2-2.8-0.9-5.4-1.5-5.8s-1.2-1.3-1.2-2c-0.1-0.8-0.9-1.4-1.8-1.4s-1.6,0.8-1.4,1.7c0.4,2.2-7.8,0.7-10.3-1.9
					c-1-1-2.4-1.8-3.1-1.8c-0.7,0-1.3-0.8-1.3-1.8c0-2.9-5.8-7.4-10.9-8.4c-2.6-0.5-6.1-2.2-7.8-3.7c-2-1.8-5.3-2.9-9.9-3.1
					c-7.1-0.4-14.4-3.9-13-6.2c0.4-0.7-1-1.3-3.3-1.3c-5.1,0-6.7-2.3-3.4-4.9c1.4-1.1,1.9-1.8,1-1.6c-1.2,0.3-6.5-5-10.4-10.6
					c-0.5-0.8-2.8-3.5-5.1-6.1l-4.1-4.8l2.1,4.4c1.2,2.4,2.7,4.4,3.4,4.4c0.7,0,0.9,0.9,0.5,1.9c-0.4,1.1-0.1,2.3,0.7,2.8
					c0.8,0.5,1.5,1.9,1.5,3.1c0,1.9-0.3,1.9-2.7-0.3c-1.5-1.4-2.7-3.3-2.7-4.3c0-1-0.9-2.2-2.1-2.7c-1.3-0.5-1.8-1.8-1.3-3.3
					c0.4-1.3,0.1-2.8-0.6-3.3s-1.4-2-1.4-3.3c0-1.3-1.5-4.1-3.3-6c-5-5.4-6.4-14.2-3.4-21.6c2.7-6.8,3.3-12.2,1.2-12.2
					c-0.8,0-1-1.4-0.6-3.3c0.4-1.8,0.2-3.7-0.7-4.2c-0.8-0.5-1.5,0-1.5,1.2c0,1.2-0.6,2.1-1.4,2.1s-1.3-1.4-1.2-3.1
					c0.5-5.8-0.2-7.9-2.6-7.9c-3.1,0-12.7,4.9-14.1,7.2c-0.6,0.9-1.5,1.7-2.1,1.7c-0.6,0-3.9,2-7.4,4.4c-3.5,2.4-6.7,4-7.1,3.6
					c-0.4-0.4,1.2-2.1,3.6-3.8c2.4-1.6,4.6-4.2,4.8-5.6c0.3-1.5,2.7-4.7,5.5-7.1c2.7-2.4,3.8-4,2.4-3.5c-3.9,1.4-2.1-2.6,2.2-4.7
					c1.9-0.9,3.9-3.1,4.3-4.8c1.1-4.1,10.5-10.6,15.4-10.6c2.1,0,7.6-0.8,12.1-1.8c4.5-1,10.4-1.6,13.2-1.4c4.1,0.3,5-0.1,4.8-2.1
					c-0.2-2-0.6-2.2-2.6-1c-1.3,0.8-2.8,1.1-3.3,0.6c-1.3-1.3,2.1-5.1,4.5-5.1c1.2,0,1.7-0.8,1.3-1.9c-0.5-1.3,1-2.7,4.3-4.2
					c2.8-1.2,3.8-1.9,2.3-1.6c-3.6,0.8-11.7,3.7-14.6,5.1c-1.3,0.7-3.6,1.2-5.1,1.2s-2.7,0.5-2.7,1.2c0,1.2-9.7,5.1-16.4,6.6
					c-3,0.7-2.8,0.3,1.4-2.5c14.8-10.2,27.9-15.8,48.1-20.5c10.4-2.4,16.8-3,37.1-3c24.5,0,42.8,2.2,38.8,4.7c-1,0.6-2.3,0.8-3,0.4
					c-0.6-0.4-7.5-0.9-15.3-1.1c-11.9-0.3-14-0.1-13.4,1.6c0.4,1.1,1.5,1.7,2.5,1.3c2.3-0.9,13.4,4.9,20.5,10.7
					c3.2,2.7,6.4,4.8,7,4.8c0.6,0,1.9,1.3,2.9,2.8c1.6,2.5,1.4,2.9-0.9,3.5c-3.5,0.9-4.5,6.5-2.2,12.9c1,2.8,1.5,5.4,1.1,5.8
					c-1.2,1.2-9.3-3.7-14.6-8.9c-2.9-2.9-5.9-4.8-6.7-4.3c-0.8,0.5-1.1,0.3-0.6-0.5c0.5-0.8-0.1-2.2-1.2-3.2c-1.2-1-1.8-2.6-1.4-3.6
					c0.4-1-0.2-1.8-1.3-1.8c-1.1,0-2.4-0.9-2.8-2.1c-0.4-1.1-1.4-2-2.2-2c-0.8,0-2.4-0.9-3.7-2c-1.6-1.5-3.3-1.7-6.2-0.8
					c-2.2,0.7-3.2,1.3-2.2,1.3c2.9,0.2,12.7,10.9,12.3,13.5c-0.2,1.3,0,3,0.5,3.8c0.5,0.8,0.3,2.3-0.3,3.4c-1.1,1.7-2.1,1.5-7.1-1.1
					c-3.2-1.7-6.9-3.1-8.1-3.1c-3.1,0-4.5-2.6-2-3.5c1.1-0.4,2.4-1.7,2.8-2.8c0.6-1.5,0.1-1.8-1.9-1.2c-2,0.6-2.7,0.2-2.7-1.5
					c0-1.3-0.4-2-0.9-1.5c-0.5,0.5-1.6,0.3-2.4-0.3c-1-0.9-1.5,0.2-1.5,3.5c0,3.1,0.8,5.2,2.4,6.1c1.3,0.7,2.1,1.8,1.8,2.4
					c-0.3,0.6,1,0.8,3,0.5c2.5-0.4,5.7,0.8,9.8,3.6c4.7,3.2,6.2,3.7,6.6,2.2c0.7-3.1,1.9-2.5,7.8,3.5c2.9,3,5.9,5.3,6.7,5
					c1.5-0.5,5.1,2.8,8.4,7.8c2.3,3.5,5.6,5,4,1.8c-0.5-0.9,0.4-0.3,2,1.5c1.6,1.8,2.8,4.2,2.8,5.5c0,1.9-0.2,2-1.3,0.2
					c-1.2-1.8-1.3-1.8-1.4,0c-0.1,1.4-0.3,1.5-0.8,0.3c-1.1-2.7-7-2.1-6.8,0.7c0.1,1.5-0.9,2.5-2.9,2.8c-1.7,0.2-3.1,1.1-3.1,1.9
					c0,0.9-2.1,1.2-5.5,0.7c-4.5-0.6-5.5-0.3-5.5,1.5c0,1.2-1.2,3.8-2.7,5.7c-1.5,1.9-2.7,4.3-2.7,5.3c0,1.6-0.4,1.6-2.4,0
					c-2.2-1.7-2.2-1.6,0.1,1.9c2.7,4.2,2.2,5.6-3.4,10.3c-3.8,3.2-5.1,8.8-2.4,10.5c2,1.2,4.2,7.4,3.2,9c-1.2,1.9-4.8-1.5-6.9-6.5
					c-1.3-3.1-3-4.5-6.1-5.1c-6.7-1.3-9.4-1-9.4,1.1c0,1.2-1,1.7-2.7,1.2c-3.1-0.8-11.4,3.9-14.4,8.2c-2.6,3.8-2.6,8.3,0.1,14
					c2.5,5.3,4.5,6.3,10.2,5.2c2.8-0.6,4.3-1.8,4.9-4.1c0.4-1.8,1.5-3.3,2.4-3.3c0.9-0.1,2.6-0.3,3.9-0.6c3.6-0.7,4.1,1.4,1.7,6.2
					c-1.2,2.3-1.9,4.6-1.4,5c0.4,0.4,0.1,1.6-0.8,2.7c-1.3,1.6-0.7,1.8,3.6,1.3c8.4-0.9,10.1,0,10,5.8c-0.1,9.8,3,13.9,8.5,10.9
					c1.8-1,3.5-1,5.3,0c3.5,1.9,3.7,1.8,6.7-1.4c1.4-1.5,3.7-3,5.2-3.3c1.4-0.3,3.8-1,5.2-1.6c1.8-0.7,2.3-0.6,1.6,0.6
					c-0.5,0.9-0.3,1.6,0.5,1.6c0.8,0,1.4-0.6,1.4-1.3c0-0.7,1.6-0.4,3.7,0.6c2,1,4.3,1.5,5,1.1c0.7-0.5,0.9-0.2,0.5,0.6
					c-0.5,0.8,0.5,1.8,2.2,2.2c4.3,1.2,5.4,1.1,4.5-0.4c-0.4-0.7-0.1-1.7,0.8-2.3c1-0.6,1.2-0.4,0.6,0.6c-0.9,1.5,1,2.1,5.7,1.9
					c0.9,0,1.7,0.9,1.7,2.2c0,3.1,9.3,10.5,14.6,11.5c5.3,1,10,4.8,10,8c0,1.3,0.7,2.8,1.5,3.2c0.9,0.6,0.6,1.9-1,3.8
					c-1.3,1.6-1.6,2.2-0.5,1.2c1.6-1.4,3.6-0.8,10.6,3.1c4.8,2.6,9.8,4.8,11.1,4.8s3.5,1.2,4.9,2.6c1.3,1.4,3.2,2.3,4.3,1.9
					c1.4-0.5,1.9,0.4,1.9,3.4c0,2.9-1.8,6.2-6.1,11.2c-3.3,3.9-6.5,9-7,11.4c-1.4,6.5-7.5,14.3-12.5,15.9c-2.4,0.8-4.4,2.4-4.4,3.4
					c0,1.1-1.7,3-3.8,4.3s-4.9,3.8-6.2,5.5c-6.7,8.3-14,14.1-17,13.6c-2.4-0.4-3,0-2.7,1.8c0.4,2.5-2.5,6.9-4.6,6.9
					c-0.7,0-4.6,2.9-8.7,6.4c-4.9,4.3-6.9,6.7-5.8,7.4c1.1,0.7,0.6,1.9-1.7,3.8c-3.1,2.6-3.2,2.9-0.9,4.7c1.3,1,2.4,2.2,2.4,2.6
					C276.5,390.9,271.3,391,267.2,389.3L267.2,389.3z M261.7,154.4c-1-0.4-2.2-0.3-2.6,0.1c-0.5,0.5,0.4,0.8,1.8,0.7
					C262.5,155.1,262.8,154.8,261.7,154.4z M271,148.2c0-0.5-0.9-0.6-2-0.2c-1.2,0.5-2.1,0-2.1-1.1c0-1.5-0.2-1.5-1.2,0.1
					c-0.7,1.2-0.6,3.2,0.3,5.2l1.5,3.3l1.7-3.2C270.1,150.6,271,148.7,271,148.2z M227.4,152c0-0.3-1.4-1.4-3.1-2.5
					c-2.8-1.8-3.4-1.8-5.9,0.2c-2.7,2.2-2.7,2.3,3.1,2.5C224.7,152.4,227.4,152.3,227.4,152z M224.1,145c-2.5-1.8-2.5-1.9-0.1-2.8
					c1.4-0.5,4.8-0.3,7.6,0.4c4.3,1.2,5,1.1,4.3-0.7c-0.5-1.3-0.2-1.7,0.8-1.1c0.9,0.5,2.7,0.4,4-0.4c2.2-1.3,2.1-1.4-0.5-1.4
					c-2.2,0-2.9-0.9-2.9-3.7c0-2-1.2-4.5-2.6-5.5s-2.4-2.2-2.2-2.5c0.9-1.7,0.1-3.4-1.7-3.4c-1.1,0-2-0.7-2-1.5
					c0-0.8-0.8-1.2-1.7-0.9c-0.9,0.3-2.8,0.1-4.1-0.6c-1.9-1-3.2-0.3-5.9,2.9c-1.9,2.3-4,3.9-4.6,3.5c-0.6-0.4-1.4,0.2-1.9,1.3
					c-0.4,1.1-0.3,1.9,0.2,1.7c0.5-0.2,2.7,1.4,4.8,3.6c2.4,2.4,4.6,3.5,6,3c2.8-1.1,7.5,0.4,6.5,2.1c-0.4,0.7-1.7,1.3-2.8,1.3
					c-1.2,0-1.6-0.7-1.1-1.6c0.6-1,0.4-1.2-0.6-0.6c-0.9,0.5-1.2,1.6-0.8,2.3c0.4,0.7,0.1,1.3-0.7,1.3c-0.8,0-1.4-0.6-1.4-1.4
					c0-2.4-5.1-1.5-5.8,1.1c-0.8,2.9,2.4,6.5,3.8,4.3c0.6-1,1.4-1,2.6,0c0.9,0.8,2.1,1,2.6,0.5c0.5-0.5,0.9-0.1,0.9,0.9
					c0,1,0.5,1.4,1,0.8C226.2,147.4,225.5,146,224.1,145z M234.2,137.6c0-0.7,0.6-1.7,1.3-2.1c0.8-0.5,1,0.1,0.5,1.3
					C235.2,139.2,234.2,139.6,234.2,137.6z M217.1,134.2c-1.5-1.1-1.9-2-1.1-2c2.6-0.1,5.9,1.5,5.9,2.8
					C221.9,136.8,220.1,136.5,217.1,134.2z M262.8,147.5c0-0.2-1.2-0.9-2.6-1.7c-1.8-1-3-0.9-4,0.3c-1,1.3-0.4,1.7,2.6,1.7
					C261.1,147.8,262.8,147.7,262.8,147.5L262.8,147.5z M242.4,144.4c0-0.8-1-1.4-2.1-1.4c-1.2,0-1.7,0.6-1.3,1.4
					c0.5,0.8,1.4,1.4,2.1,1.4C241.8,145.8,242.4,145.1,242.4,144.4z M247.2,144.4c-0.5-0.8-1.1-1.4-1.4-1.4c-0.3,0-0.6,0.6-0.6,1.4
					c0,0.8,0.7,1.4,1.4,1.4C247.4,145.8,247.6,145.1,247.2,144.4z M202.8,137.5c-1.7-1.2-1.5-1.9,1.7-4.7c2.1-1.8,3.8-4.1,3.8-5
					c0-0.9-0.9-0.5-1.9,1c-1.1,1.5-2.4,2.2-3,1.6s-0.3-1,0.6-1s1.6-0.9,1.6-2c0-2.7-2.6-2.7-3.6,0c-0.4,1.1-1.3,1.7-2,1.3
					c-0.7-0.4-0.9-1.3-0.5-2c0.4-0.7,0.2-1.3-0.6-1.3s-1.8,0.6-2.2,1.4c-0.5,0.8-1.5,1-2.3,0.5c-0.9-0.6-0.8-1.3,0.4-2
					c1.5-1,1.5-1.2-0.2-1.1c-2.6,0-9.5,3.9-7.1,4c1,0,1.4,0.6,1,1.3c-0.4,0.7,0.6,0.9,2.3,0.6l3.1-0.6l-3.1,1.9l-3.1,1.9l3.8,1.7
					c2.7,1.2,3.9,1.3,4.3,0.2c0.4-1.1,1.1-1.1,2.5,0.1c1.6,1.3,1.6,1.9,0.2,2.8c-1.2,0.7-0.3,1.1,2.3,1.1
					C204,138.9,204.4,138.6,202.8,137.5z M197.7,132.6c-1.9-2.1-0.6-2.5,2.2-0.7c1,0.6,1.3,1.5,0.7,1.9
					C200,134.2,198.6,133.7,197.7,132.6z M251.2,132.3c-0.8-0.8-3.4,1.2-3.4,2.7c0,0.7,0.9,0.5,1.9-0.4
					C250.8,133.6,251.5,132.6,251.2,132.3z M212.4,134.3c0-0.3-1-0.9-2.1-1.3c-1.2-0.5-1.8-0.2-1.3,0.5
					C209.8,134.8,212.4,135.4,212.4,134.3z M191.6,120.4c1.2-1,0.5-1.4-2.4-1.3c-2.2,0.1-5.2,1.3-6.5,2.7c-2.3,2.6-2.3,2.6,0.5,0.2
					c3-2.5,5.5-1.1,3.9,2.2c-0.5,0.9,0,0.8,1-0.3C189.2,122.8,190.8,121.2,191.6,120.4z M202.8,122.5c0-0.8-0.6-1.1-1.4-0.6
					c-0.8,0.5-1.4,1.1-1.4,1.4c0,0.3,0.6,0.6,1.4,0.6S202.8,123.3,202.8,122.5z M195.7,112c-1.3-0.3-3.2-0.3-4.1,0.1
					c-0.9,0.4,0.2,0.7,2.4,0.6C196.2,112.7,197,112.4,195.7,112z M206.3,110.5c-0.4-0.4-1.5,0-2.4,0.9c-1.3,1.3-1.2,1.5,0.8,0.8
					C206,111.7,206.7,110.9,206.3,110.5z M221.9,108.8c0-0.7-0.5-1.3-1.1-1.3s-1.1,0.9-1.1,2s0.5,1.7,1.1,1.3
					C221.4,110.4,221.9,109.5,221.9,108.8z M216.5,106.1c-0.8-1.5-1-3.5-0.5-4.4c0.6-1.1,0.1-1-1.3,0.2c-2.2,1.8-2.2,2.1-0.1,4.4
					C217.6,109.7,218.3,109.6,216.5,106.1z M209.6,107c-0.3-0.3-2.4-0.9-4.7-1.4c-3-0.7-3.5-0.5-2,0.5
					C204.7,107.3,210.9,108.2,209.6,107z M197.4,103.3c1.8-1.3,1.8-1.4,0-0.8c-1.1,0.3-3.3,0-4.8-0.8c-2.4-1.3-2.5-1.2-0.9,0.9
					C193.9,105.2,194.6,105.3,197.4,103.3z M204.2,101.4c0-1.3-0.8-1.7-2.2-1.2c-1.7,0.7-1.8,1.1-0.3,2
					C204.1,103.8,204.2,103.7,204.2,101.4z M240.2,100.7c5.4,0-0.1-3-6-3.3c-3.6-0.2-6.4-1.2-7.4-2.6c-2.4-3.3-3.4-2.8-3.4,1.7
					c0,3.3,0.5,3.8,2.6,3.3c1.5-0.4,4,0.3,5.7,1.5c2,1.4,3.6,1.7,4.4,0.8C236.9,101.3,238.7,100.7,240.2,100.7z M209.7,100.7
					c0-0.8-0.7-1.4-1.4-1.4c-0.8,0-1.1,0.6-0.6,1.4c0.5,0.8,1.1,1.4,1.4,1.4C209.4,102.1,209.7,101.4,209.7,100.7z M246.7,87.5
					c-1-0.4-2.2-0.3-2.6,0.1s0.4,0.8,1.8,0.7C247.5,88.2,247.8,87.9,246.7,87.5z M282.9,386.6c-1.5-1.5,0.4-3.2,3.4-3.2
					c2.3,0,2.5,0.3,1.1,2C285.6,387.6,284.3,388,282.9,386.6z M136.7,353.4c-3.8-4.4-7.1-7.7-7.4-7.4s-2-1.5-3.8-3.9
					c-3.3-4.5-7.9-7.7-11.1-7.8c-1,0-1.4,0.5-1,1.3c0.5,0.8-0.8,0.7-3.3-0.1c-3.2-1.1-5-3.4-8.4-10.5c-6.9-14.6-7-15-3.8-16.7
					c1.6-0.9,2.5-2.3,2-3.4c-0.4-1.1-0.2-1.9,0.6-1.9c0.7,0,1.3-1,1.3-2.1c0-1.4,1-2,3.1-1.7c2.1,0.3,3.1-0.3,3.1-1.9
					c0-1.3,0.5-2.7,1-3.3c0.6-0.6,1-0.3,1,0.5c0,0.8,1.8,1.9,4.1,2.4c2.2,0.5,4.1,1.7,4.1,2.6c0,0.9,1.7,2.6,3.8,3.6
					s4.1,2.1,4.5,2.3c0.4,0.2,0.5-1.8,0.2-4.4c-0.7-5.9,1.9-6.5,3.1-0.7c0.5,2.2,1.4,4.1,2.1,4.1c0.6,0,1.9,2.3,2.8,5.1
					c0.9,2.8,3,6.4,4.5,8.1c4.1,4.2,6.3,7,6.3,8.2c0,0.5,1,2,2.2,3.4c2.9,3.2,3.5,13.4,1.1,16.9c-1,1.5-1.9,3.8-1.9,5.1
					c0,1.4-1.4,2.8-3.5,3.3c-3.4,0.9-3.4,0.9-0.7,2.8c2.7,1.9,3.8,4.6,1.8,4.4C144,361.4,140.5,357.8,136.7,353.4z M147.4,332.1
					c-0.4-1.2-1.1-1.8-1.5-1.5c-0.4,0.4-0.2,1.3,0.2,2.1C147.6,334.9,148.3,334.5,147.4,332.1z M160,358.9c-0.8-1.3,9.6-6.9,13-7
					c1.6,0,1.6-0.2-0.1-1.3c-1.6-1-1.7-1.3-0.2-1.3c1.4,0,1.6-1.2,1.1-4.1c-0.5-2.3-0.2-4.1,0.5-4.1c0.7,0,1.3,0.6,1.3,1.4
					s1.3,2.7,2.9,4.2l2.9,2.9l-3.2,2.3c-1.8,1.2-3.5,2.3-3.9,2.3s-2.6,1.4-5,3.1C164.7,360.3,161.3,361,160,358.9z M173.1,325.7
					c-0.9-0.9-1.6-2.1-1.6-2.7c0-2,2.1-1.1,3.8,1.6C177.1,327.6,175.7,328.3,173.1,325.7z M387.6,324.3c0.5-1.7,1.6-9.8,2.2-18.1
					c0.7-8.9,2.1-16.6,3.4-18.8c1.8-3.2,1.9-4.9,0.5-10.5c-0.9-3.7-1.2-9.2-0.7-12.2c0.8-5,0.7-5.5-1.9-5.5c-1.6,0-2.8-0.9-2.8-2.1
					c0-2.6-2.6-2.6-6.1,0.1c-1.5,1.1-3.7,1.7-5.1,1.2c-1.3-0.4-3.6-0.1-5,0.6c-3.4,1.8-9.3-2.6-12-9c-1-2.5-2.7-4.4-3.6-4.2
					c-1.2,0.2-1.7-2.3-1.7-8.8c0-5,0.5-8.8,1.1-8.4c0.6,0.4,0.9-1.4,0.8-3.9c-0.2-2.5,0.9-6.7,2.3-9.3c1.4-2.6,2.6-5.7,2.6-6.8
					c0-1.1,0.6-2,1.4-1.9c1.9,0.3,9.2-5.1,8.3-6c-0.4-0.4,0.2-1.9,1.5-3.3c1.2-1.4,1.8-2.5,1.2-2.5c-0.6,0-0.2-1.1,0.8-2.4
					c1.7-2.2,1.6-2.2-0.5-0.5c-1.3,1-2.5,1.5-2.6,1s-0.3-1.6-0.4-2.6c-0.1-0.9-1.3-1.5-2.8-1.3c-2.3,0.4-2.4-0.1-1.6-4.8
					c0.6-2.9,0.9-6.7,0.9-8.4c-0.2-5,1.1-5.8,5.4-3.6c3.7,1.9,4,1.9,4-0.4c0-1.4-1.5-4.6-3.4-7.1c-4.1-5.5-4.1-5.6-1-4.6
					c2.2,0.7,2.2,0.6,0.2-1.1c-2.4-2-2.5-2.3-2.8-6.9c-0.1-2.3-0.3-2.5-0.8-0.7c-0.3,1.3-1.4,2.4-2.4,2.4c-2.5,0-3.7-5.5-1.4-6.3
					c1-0.4,1.5-1.6,1.1-2.7c-0.5-1.4-0.1-1.7,1.7-1c1.9,0.7,2.2,0.4,1.5-1.4c-0.6-1.5-0.4-2,0.5-1.5c0.8,0.5,1.1,1.8,0.7,2.9
					c-0.4,1.1,0.8,4.7,2.6,8c1.8,3.3,3.1,7.1,2.7,8.4c-0.4,1.4,0,1.1,0.9-0.6c1.3-2.5,1-3.8-1.5-7.9c-1.7-2.7-2.8-5.2-2.5-5.5
					c0.8-0.8,8.8,10.6,9.9,14.2c0.5,1.6,1.4,2.9,1.9,2.9c2.1,0,16.6,32.2,16.6,36.9c0,1.2-1,0.8-2.8-1.1c-2.5-2.7-5.4-4-5.4-2.4
					c0,0.9,5.7,10.3,6.2,10.3c0.3,0,0.1-1-0.4-2.2c-0.7-1.8-0.4-2,1.6-0.8c1.4,0.8,2.6,2.6,2.8,3.9s0.7,4.4,1.1,6.6
					c0.5,2.3,1.8,10.4,2.9,18.1c2.2,15.1,1.1,34.6-2.8,51.9c-1.1,4.7-1.9,10.5-1.9,13c0,7.5-2.7,15-5.6,15.8
					c-1.5,0.4-4.2,3.7-6.1,7.4C388.1,327.6,385.9,329.6,387.6,324.3z M396.7,193.2c-1-1-1.6-1.1-1.6-0.2c0,1.8,1.6,3.4,2.5,2.5
					C398,195.2,397.6,194.1,396.7,193.2z M393.2,193.2c-1.1-5.2-5.8-13.3-7.7-13.3c-2.5,0-5.9,5.7-5.1,8.4c0.3,1,1.8,1.9,3.2,2
					c7.1,0.4,8.8,0.7,8.6,1.6c-0.2,1.6,0.1,3.1,0.7,3.1C393.3,194.9,393.4,194.1,393.2,193.2z M201.5,318.4c0-1.2,0.7-1.9,1.6-1.6
					c2.5,0.8,2.9,3.8,0.5,3.8C202.5,320.6,201.5,319.6,201.5,318.4z M206.3,316.5c-0.5-0.8,0.1-1.4,1.3-1.4c2.4,0,2.8,0.8,0.9,2
					C207.7,317.5,206.8,317.2,206.3,316.5z M177.7,312.8c-1.1-3,0.4-4.4,2-1.8c1.6,2.6,1.7,4.1,0.1,4.1
					C179.2,315.1,178.2,314.1,177.7,312.8z M166,298.7c0-0.7-0.9-1-2-0.5c-2.5,1-2.7-1.4-0.3-3.3c1.3-1.1,2.1-0.6,3.3,1.9
					c0.9,1.8,1,3.3,0.3,3.3C166.6,300.1,166,299.5,166,298.7z M139.4,297c-1.5-0.8-3.5-2.6-4.5-4c-1.9-2.7-5.7-3.4-5.7-1.1
					c0,0.8-1.2,1.4-2.7,1.4s-2.7-0.6-2.7-1.4c0-0.8-1.2-1.4-2.7-1.4s-2.7-0.6-2.7-1.4s0.6-1.4,1.4-1.4c2.7,0-1.9-5.2-6.5-7.4
					c-3.1-1.5-4.4-2.9-3.9-4.2c0.5-1.2,0-2-1.2-2c-1.2,0-1.7,0.8-1.2,2c0.6,1.5-0.2,2-2.7,2c-1.9,0-3.9-0.6-4.3-1.4
					c-0.5-0.8,0.4-1.4,2-1.4c1.5,0,2.9-0.6,3-1.4s0.2-1.9,0.3-2.6c0.3-2,2.2-3.5,2.2-1.6c0,0.9,0.5,1.3,1.2,0.9
					c0.7-0.4,2,0.2,2.9,1.3c0.9,1.1,1.2,2,0.6,2s-0.4,0.7,0.5,1.6c1.2,1.2,2.1,1.2,3.6-0.1c1.6-1.3,3.3-1,8.7,1.7
					c3.7,1.9,7.5,4.4,8.5,5.5c1,1.2,3.5,2.2,5.5,2.2c3.8,0,7.6-2.9,5.9-4.6c-0.5-0.5-0.2-0.9,0.6-0.9c2.9,0,3.2,2.7,0.5,5.6
					c-1.8,1.9-3.6,2.6-5.4,2c-4.8-1.5-5.1,2.2-0.5,6.2C144.3,297.4,144.1,299.5,139.4,297z M155.7,293c-0.6-1-0.2-1.3,1.1-0.8
					c1.2,0.4,2.7,0.2,3.5-0.6c0.9-0.9,1.7-0.9,2.3,0.1c0.5,0.8,0.7,1.5,0.5,1.6C158.7,294.4,156.4,294.3,155.7,293z M94.3,288.9
					c-0.7-1-2.8-3-4.9-4.3c-5.2-3.3-7.2-7.3-4.2-8.4c1.3-0.5,1.9-0.4,1.3,0.1c-1.4,1.4,3.2,6.1,4.9,5.1c0.8-0.5,1-0.2,0.4,0.7
					c-0.6,0.9,0.4,1.9,2.5,2.4c3.7,0.9,4.1,1.6,2.2,4.5C95.6,290.5,95.3,290.5,94.3,288.9z M98.7,288.6c0.4-1.1,1.7-2.3,2.8-2.7
					c1.5-0.6,1.9-0.2,1.3,1.4c-0.5,1.2-0.8,2.4-0.8,2.8c0,0.3-0.9,0.6-2,0.6C98.8,290.5,98.2,289.7,98.7,288.6z M151,287.8
					c-1.8-3.4-0.3-3.4,4.1,0c3.4,2.6,3.4,2.7,0.4,2.7C153.9,290.5,151.8,289.3,151,287.8z M107.4,287.2c0-0.3,0.6-1,1.4-1.4
					c0.8-0.5,1.4-0.2,1.4,0.6s-0.6,1.4-1.4,1.4S107.4,287.5,107.4,287.2z M112.3,285.2c-0.6-1-0.7-2.1-0.2-2.6
					c1.2-1.2,2.6,0.6,1.9,2.6C113.5,286.6,113.1,286.6,112.3,285.2z M93.3,280.1c-0.5-0.5-1-3.8-1.1-7.2c-0.1-5.3-0.3-5.6-1-2.2
					c-0.5,2.2-1.3,3.9-1.9,3.8c-0.6-0.1-1.6-0.3-2.2-0.3c-2.8,0-2.9-9.3-0.3-15.9c2.6-6.5,3-6.4,3.5,1c0.4,5.2,2,7,5.6,6.3
					c2.1-0.4,3.2,0,3.2,1.2c0,1-1.4,1.9-3.1,1.9l-3.1,0.1l3.1,1.2c1.7,0.7,3.1,2,3,3c0,1.3-0.3,1.3-1.2-0.1c-0.6-1-1.5-1.3-1.9-0.6
					c-0.4,0.7-0.2,2.1,0.5,3.2c0.7,1.1,1.2,2.9,1.2,4c-0.1,1.6-0.2,1.6-0.8,0.2c-0.5-1.3-1-1.4-1.7-0.3
					C94.7,280.3,93.8,280.6,93.3,280.1z M229,275.5c0.7-2.1,2.9-2.3,3.5-0.3c0.3,0.9-0.5,1.7-1.7,1.7S228.7,276.2,229,275.5z
					 M114.3,273.5c-0.1-1.4,0.3-2.2,0.7-1.8s0.5,1.6,0.1,2.6C114.7,275.5,114.4,275.1,114.3,273.5z M80.7,265.6
					c-1.6-12.8-1.6-13.4-0.5-14c0.5-0.3,1.4,3.2,1.9,7.9c0.5,4.7,1.3,9.9,1.7,11.6c0.4,1.7,0.1,3.1-0.6,3.1
					C82.4,274.1,81.3,270.3,80.7,265.6z M101.8,273.8c-1-3.5-1-7.2,0.1-9c1-1.7,1.3-0.9,1.4,3.5c0,3.2-0.3,5.8-0.6,5.8
					S101.9,274,101.8,273.8z M163.3,262.5c0-1.1-1.5-2.8-3.4-3.6c-3-1.4-4.7-3.8-2.7-3.8c1.3,0,6.8,3.4,7.8,4.8
					c1.5,2,1.3,4.8-0.3,4.8C163.9,264.6,163.3,263.6,163.3,262.5z M95.1,253.6c-1-1.9-1-2.7,0-2.7c0.8,0,1.4-1,1.4-2.1
					c0-1.2,0.6-1.8,1.4-1.3c1.8,1.1,1.8,8.9,0,8.9C97.2,256.4,95.9,255.1,95.1,253.6z M88.3,249.3c0-1,0.6-2.7,1.3-3.8
					c1.1-1.7,1.3-1.5,1.3,0.9c0,1.6-0.6,3.4-1.3,3.8S88.3,250.3,88.3,249.3z M80,245.1c-0.5-13.6,4.3-44.9,7.1-45.9
					c0.7-0.2,1.3-1.8,1.3-3.5c0-3.7,6.3-19.9,8.8-22.4c1.4-1.5,1.9-1.4,2.6,0.4c0.5,1.4,0.3,1.9-0.6,1.3c-1-0.6-1.2,0-0.6,1.9
					c0.6,1.9,0,3.6-1.8,5.3c-2.9,2.7-5.6,8.7-5.6,12.4c0,1.9,0.3,1.8,2-0.4c1.1-1.5,2-4.3,2-6.4c0-2.1,0.7-3.8,1.4-3.8
					c2.5,0,1.4,9.4-1.7,15.3c-2.6,5-3.1,5.4-3.5,2.8c-0.2-1.7-0.9-3.1-1.5-3.1c-2.7,0-4,16.9-1.4,18.4c2.3,1.4,1.7,6.6-0.7,5.7
					c-3-1.2-4.4,2.8-4.5,12.8c-0.2,13.5-0.2,13.7-1.6,13.7C80.7,249.5,80,247.5,80,245.1z M92.7,244.9c0.4-2.2,0.1-3.1-1-2.7
					c-2.2,0.8-4-10.3-2.1-12.3c1-1,1.4-0.2,1.4,2.5c0,2.4,1.4,5.4,3.6,7.7c3,3.2,3.3,4.1,1.9,5.9C93.9,249.2,92,248.6,92.7,244.9z
					 M253,222c1.3-1.3,2-1.3,3.3,0c1.3,1.3,0.9,1.6-1.6,1.6C252.1,223.6,251.8,223.2,253,222z M261.5,222.1c0-0.9,0.9-1.2,1.9-0.8
					c1.1,0.4,2.3-0.2,2.7-1.3c0.5-1.2,1.5-1.6,2.5-1c0.9,0.6,3,0.9,4.7,0.7c1.6-0.2,3.3,0.3,3.8,1.1c0.5,0.8-0.2,1.5-1.6,1.5
					c-1.4,0-5.1,0.4-8.3,0.8C263.4,223.5,261.5,223.2,261.5,222.1z M280.3,222c1.3-1.3,2-1.3,3.3,0s0.9,1.6-1.6,1.6
					S279,223.2,280.3,222z M248.8,214.6c-2.1-1.1-4.5-1.6-5.3-1.1c-0.9,0.6-1.2,0.3-0.6-0.6c0.6-1-0.1-1.6-1.9-1.6
					c-1.6,0-2.6,0.5-2.2,1.1c0.4,0.6-0.5,1.1-2,1.1c-3.6,0-3.3-1.9,0.7-3.7c2.7-1.2,4.9-0.9,11.6,1.7c8.2,3.2,10.6,5.3,5.9,5.2
					C253.7,216.7,250.9,215.7,248.8,214.6z M370.6,196.4c0-0.8,0.6-1.4,1.4-1.4s1.4,0.3,1.4,0.6c0,0.3-0.6,1-1.4,1.4
					C371.2,197.4,370.6,197.2,370.6,196.4z M373.3,171.1c0-0.3,0.6-1,1.4-1.4c0.8-0.5,1.4-0.2,1.4,0.6c0,0.8-0.6,1.4-1.4,1.4
					S373.3,171.4,373.3,171.1z M103.3,164.3c0-1.1,0.6-2.4,1.4-2.9c0.8-0.5,1.4,0.1,1.4,1.2c0,1.1-0.6,2.4-1.4,2.9
					C103.9,166,103.3,165.5,103.3,164.3z M108.8,164.3c0-0.3,0.6-1,1.4-1.4c0.8-0.5,1.4-0.2,1.4,0.6c0,0.8-0.6,1.4-1.4,1.4
					S108.8,164.6,108.8,164.3z M116.9,156.8c0-0.8,0.6-1.4,1.4-1.4s1.4,0.3,1.4,0.6c0,0.3-0.6,1-1.4,1.4
					C117.6,157.8,116.9,157.6,116.9,156.8z M119,144.3c-0.5-0.7-1.6-0.9-2.5-0.4c-0.9,0.6-0.8,0,0.3-1.3c1.9-2.4,6.3-3.1,7.5-1.2
					c0.4,0.6-0.5,1.8-1.9,2.7C120.7,145.1,119.5,145.2,119,144.3z M299.2,125.1c-1.4-0.8-3.4-1.1-4.5-0.7c-1.1,0.4-1.7,0.2-1.2-0.6
					c0.5-0.7,0.1-1.3-0.8-1.3c-3,0,0.1-1.8,3.8-2.2c4.2-0.5,11.8,3.1,10.7,5C306.1,127,302.4,126.9,299.2,125.1z"/>
			</defs>
			<clipPath id="SVGID_00000118379741926620581690000017020237488904887435_">
				<use xlink:href="#SVGID_00000000197020414599653640000007461775749321187993_"  style="overflow:visible;"/>
			</clipPath>
			<g style="clip-path:url(#SVGID_00000118379741926620581690000017020237488904887435_);">
				
					<radialGradient id="SVGID_00000019646370800889620910000009552121239201741952_" cx="69.3018" cy="395.1382" r="286.6579" gradientTransform="matrix(1.3364 0 0 -1.3303 -8.0486 579.2956)" gradientUnits="userSpaceOnUse">
					<stop  offset="0" style="stop-color:#37ABC8"/>
					<stop  offset="1.562500e-02" style="stop-color:#37AAC7"/>
					<stop  offset="2.734380e-02" style="stop-color:#37AAC6"/>
					<stop  offset="3.906250e-02" style="stop-color:#37AAC6"/>
					<stop  offset="5.078120e-02" style="stop-color:#37A9C5"/>
					<stop  offset="6.250000e-02" style="stop-color:#37A9C4"/>
					<stop  offset="7.421880e-02" style="stop-color:#37A9C4"/>
					<stop  offset="8.593750e-02" style="stop-color:#37A8C3"/>
					<stop  offset="9.765621e-02" style="stop-color:#37A8C3"/>
					<stop  offset="0.1094" style="stop-color:#37A7C2"/>
					<stop  offset="0.1211" style="stop-color:#37A7C1"/>
					<stop  offset="0.1328" style="stop-color:#37A7C1"/>
					<stop  offset="0.1445" style="stop-color:#37A6C0"/>
					<stop  offset="0.1562" style="stop-color:#37A6BF"/>
					<stop  offset="0.168" style="stop-color:#37A6BF"/>
					<stop  offset="0.1797" style="stop-color:#37A5BE"/>
					<stop  offset="0.1914" style="stop-color:#37A5BE"/>
					<stop  offset="0.2031" style="stop-color:#37A4BD"/>
					<stop  offset="0.2148" style="stop-color:#37A4BC"/>
					<stop  offset="0.2266" style="stop-color:#37A4BC"/>
					<stop  offset="0.2383" style="stop-color:#37A3BB"/>
					<stop  offset="0.25" style="stop-color:#37A3BB"/>
					<stop  offset="0.2617" style="stop-color:#37A3BA"/>
					<stop  offset="0.2695" style="stop-color:#37A2BA"/>
					<stop  offset="0.2773" style="stop-color:#37A2B9"/>
					<stop  offset="0.2852" style="stop-color:#37A2B9"/>
					<stop  offset="0.293" style="stop-color:#37A2B8"/>
					<stop  offset="0.3008" style="stop-color:#37A1B8"/>
					<stop  offset="0.3086" style="stop-color:#37A1B8"/>
					<stop  offset="0.3164" style="stop-color:#37A1B7"/>
					<stop  offset="0.3242" style="stop-color:#37A1B7"/>
					<stop  offset="0.332" style="stop-color:#37A0B6"/>
					<stop  offset="0.3398" style="stop-color:#37A0B6"/>
					<stop  offset="0.3477" style="stop-color:#37A0B6"/>
					<stop  offset="0.3555" style="stop-color:#37A0B5"/>
					<stop  offset="0.3633" style="stop-color:#379FB5"/>
					<stop  offset="0.3711" style="stop-color:#379FB4"/>
					<stop  offset="0.3789" style="stop-color:#379FB4"/>
					<stop  offset="0.3945" style="stop-color:#379EB3"/>
					<stop  offset="0.4102" style="stop-color:#379EB2"/>
					<stop  offset="0.4258" style="stop-color:#379DB1"/>
					<stop  offset="0.4414" style="stop-color:#379DB1"/>
					<stop  offset="0.457" style="stop-color:#379CB0"/>
					<stop  offset="0.4727" style="stop-color:#379CAF"/>
					<stop  offset="0.4883" style="stop-color:#379BAE"/>
					<stop  offset="0.5039" style="stop-color:#379BAD"/>
					<stop  offset="0.5156" style="stop-color:#379AAD"/>
					<stop  offset="0.5273" style="stop-color:#379AAC"/>
					<stop  offset="0.5391" style="stop-color:#379AAC"/>
					<stop  offset="0.5508" style="stop-color:#3799AB"/>
					<stop  offset="0.5625" style="stop-color:#3699AA"/>
					<stop  offset="0.5742" style="stop-color:#3698AA"/>
					<stop  offset="0.5859" style="stop-color:#3698A9"/>
					<stop  offset="0.5977" style="stop-color:#3698A9"/>
					<stop  offset="0.6094" style="stop-color:#3697A8"/>
					<stop  offset="0.6211" style="stop-color:#3697A7"/>
					<stop  offset="0.6328" style="stop-color:#3697A7"/>
					<stop  offset="0.6406" style="stop-color:#3696A6"/>
					<stop  offset="0.6484" style="stop-color:#3696A6"/>
					<stop  offset="0.6562" style="stop-color:#3696A6"/>
					<stop  offset="0.6641" style="stop-color:#3696A5"/>
					<stop  offset="0.6719" style="stop-color:#3695A5"/>
					<stop  offset="0.6797" style="stop-color:#3695A4"/>
					<stop  offset="0.6875" style="stop-color:#3695A4"/>
					<stop  offset="0.6953" style="stop-color:#3695A3"/>
					<stop  offset="0.7109" style="stop-color:#3694A3"/>
					<stop  offset="0.7266" style="stop-color:#3694A2"/>
					<stop  offset="0.7422" style="stop-color:#3693A1"/>
					<stop  offset="0.7578" style="stop-color:#3693A0"/>
					<stop  offset="0.7695" style="stop-color:#3692A0"/>
					<stop  offset="0.7812" style="stop-color:#36929F"/>
					<stop  offset="0.793" style="stop-color:#36919E"/>
					<stop  offset="0.8047" style="stop-color:#36919E"/>
					<stop  offset="0.8164" style="stop-color:#36919D"/>
					<stop  offset="0.8242" style="stop-color:#36909D"/>
					<stop  offset="0.832" style="stop-color:#36909C"/>
					<stop  offset="0.8398" style="stop-color:#36909C"/>
					<stop  offset="0.8477" style="stop-color:#36909B"/>
					<stop  offset="0.8633" style="stop-color:#368F9B"/>
					<stop  offset="0.8789" style="stop-color:#368F9A"/>
					<stop  offset="0.8906" style="stop-color:#368E99"/>
					<stop  offset="0.9023" style="stop-color:#368E99"/>
					<stop  offset="0.9141" style="stop-color:#368E98"/>
					<stop  offset="0.9219" style="stop-color:#368D98"/>
					<stop  offset="0.9297" style="stop-color:#368D97"/>
					<stop  offset="0.9453" style="stop-color:#368D96"/>
					<stop  offset="0.957" style="stop-color:#368C96"/>
					<stop  offset="0.9648" style="stop-color:#368C95"/>
					<stop  offset="0.9805" style="stop-color:#368B95"/>
					<stop  offset="0.9883" style="stop-color:#368B94"/>
					<stop  offset="1" style="stop-color:#368B94"/>
				</radialGradient>
				<path style="fill:url(#SVGID_00000019646370800889620910000009552121239201741952_);" d="M79.1,83.8v329.7h331.1V83.8H79.1z"/>
			</g>
		</g>
	</g>
</g>
<g>
	<defs>
		<rect id="SVGID_00000062902051004809106850000013900247844858861206_" x="241.5" y="47.9" width="182.3" height="392"/>
	</defs>
	<clipPath id="SVGID_00000024721157953010489620000001569942589715234730_">
		<use xlink:href="#SVGID_00000062902051004809106850000013900247844858861206_"  style="overflow:visible;"/>
	</clipPath>
	<g style="clip-path:url(#SVGID_00000024721157953010489620000001569942589715234730_);">
		<path class="st6" d="M378.7,407.1c16.8,5.8,31.6,14,44.7,24.7c-26-140.2-193.7-295.2-121.7-362.2c1.9-1.8,7.8-5.4,10-7
			c-6.2-8.5-13.5-13-19.1-14.7c-1.7,0.5-3.3,1.2-5,1.9c-43.1,19.4-52,77.4-40.6,118.8c20.3,74.4,91.1,161.1,100.1,271
			C365.6,416.2,376.1,405.3,378.7,407.1z"/>
	</g>
</g>
<g>
	<defs>
		<rect id="SVGID_00000128471868641636256580000009702535554529147296_" x="88.8" y="45.3" width="290.1" height="409.4"/>
	</defs>
	<clipPath id="SVGID_00000139280645992791143270000014275981062649350572_">
		<use xlink:href="#SVGID_00000128471868641636256580000009702535554529147296_"  style="overflow:visible;"/>
	</clipPath>
	<g style="clip-path:url(#SVGID_00000139280645992791143270000014275981062649350572_);">
		<path class="st8" d="M291.6,48.2c1.8-0.6,3.6-1.1,5.5-1.5c15.2-3,29.5,0,41.7,7c84.8,48.6,14.3,203.4-28.1,257.3
			c-68.1,80-130.7,128-187.9,143.6c11.1-26.2,16-40.1,14.7-41.4l-48.6-11.9C205.8,352.5,367.9,223,317.7,86.5
			C313,73.9,304.3,54.4,291.6,48.2z"/>
	</g>
</g>
</svg>
