<?xml version="1.0" standalone="no"?>
<!DOCTYPE svg PUBLIC "-//W3C//DTD SVG 20010904//EN"
 "http://www.w3.org/TR/2001/REC-SVG-20010904/DTD/svg10.dtd">
<svg version="1.0" xmlns="http://www.w3.org/2000/svg"
 width="500.000000pt" height="500.000000pt" viewBox="0 0 500.000000 500.000000"
 preserveAspectRatio="xMidYMid meet">

<g transform="translate(0.000000,500.000000) scale(0.100000,-0.100000)"
fill="#000000" stroke="none">
<path d="M4057 3027 c-3 -8 1 -21 9 -27 15 -13 17 -6 5 24 -6 17 -8 17 -14 3z"/>
<path d="M3993 2826 c-23 -68 -71 -190 -106 -270 -41 -92 -60 -146 -52 -146 7
0 32 9 56 20 42 19 45 19 59 1 8 -10 23 -21 33 -24 14 -5 17 -19 17 -75 0 -38
4 -93 10 -121 8 -41 7 -60 -5 -88 -8 -19 -15 -44 -15 -55 0 -22 71 -158 82
-158 8 0 15 34 23 115 3 33 16 110 28 170 31 158 31 428 -1 605 -13 69 -30
132 -38 140 -12 12 -14 12 -14 -3 0 -21 -9 -22 -24 -2 -9 12 -20 -10 -53 -109z"/>
<path d="M3039 2444 c-69 -74 -257 -238 -354 -311 -55 -42 -102 -77 -104 -79
-2 -2 8 -34 24 -71 25 -61 72 -123 94 -123 4 0 77 71 162 158 158 161 319 351
319 377 0 8 -15 22 -32 31 -18 9 -42 25 -54 35 -20 19 -21 18 -55 -17z"/>
<path d="M3410 1758 c-24 -29 -33 -44 -20 -33 29 23 46 43 61 68 18 31 3 18
-41 -35z"/>
<path d="M1535 1604 c-6 -2 -53 -12 -105 -22 l-95 -17 94 -95 c51 -52 90 -88
85 -80 -4 8 -16 21 -26 28 -25 18 -23 26 8 38 27 9 51 58 61 122 5 31 1 36
-22 26z"/>
<path d="M1807 1539 c4 -21 1 -34 -8 -40 -10 -6 -10 -9 -1 -9 27 0 9 -16 -37
-33 -27 -9 -59 -26 -72 -37 l-24 -19 23 -1 c21 0 157 74 168 91 5 9 -37 78
-48 79 -4 0 -5 -14 -1 -31z"/>
<path d="M2895 1141 c-10 -18 17 -23 33 -7 15 15 15 16 -5 16 -12 0 -24 -4
-28 -9z"/>
<path d="M2783 1113 c-22 -8 -14 -23 13 -23 15 0 24 5 22 12 -5 14 -18 18 -35
11z"/>
<path d="M3215 1039 c-22 -10 -52 -19 -66 -19 -15 0 -58 -10 -95 -22 -57 -19
-91 -23 -201 -23 -73 0 -133 -1 -133 -3 0 -2 12 -14 28 -27 l27 -24 -52 -1
c-28 0 -58 -3 -67 -6 -11 -4 -16 -1 -16 11 0 12 -5 15 -16 11 -9 -3 -25 -6
-37 -6 -12 -1 -35 -12 -52 -26 l-30 -26 135 6 c139 5 254 22 355 51 79 23 247
93 265 111 19 19 4 17 -45 -7z"/>
</g>
</svg>
