<?xml version="1.0" encoding="UTF-8"?><svg id="Layer_1" xmlns="http://www.w3.org/2000/svg" xmlns:xlink="http://www.w3.org/1999/xlink" viewBox="0 0 1930.89 1277.55"><defs><linearGradient id="linear-gradient" x1="256.61" y1="1695.58" x2="100.97" y2="772.45" gradientTransform="translate(311.43 -356.16) rotate(-17.93)" gradientUnits="userSpaceOnUse"><stop offset="0" stop-color="#9a7fba"/><stop offset="1" stop-color="#e09ac4"/></linearGradient><linearGradient id="linear-gradient-2" x1="592.77" y1="2026.95" x2="704.04" y2="846.65" gradientTransform="translate(163.06 -215.9) rotate(-25.41) scale(1.08 1.05) skewX(-2.91)" xlink:href="#linear-gradient"/><linearGradient id="linear-gradient-3" x1="-389.37" y1="719.38" x2="-278.1" y2="-460.9" gradientTransform="translate(745.93 461.21) rotate(-41.04) scale(1.11 1.06) skewX(-4.89)" xlink:href="#linear-gradient"/><linearGradient id="_3" x1="1369.2" y1="79.21" x2="368.85" y2="1393.15" gradientTransform="translate(548.67 132.85) rotate(.69)" gradientUnits="userSpaceOnUse"><stop offset="0" stop-color="#cb266e"/><stop offset=".73" stop-color="#70266d"/><stop offset="1" stop-color="#4c286e"/></linearGradient><linearGradient id="_7" x1="1787.39" y1="177.41" x2="926.06" y2="1916.63" gradientUnits="userSpaceOnUse"><stop offset="0" stop-color="#66cdf3"/><stop offset=".59" stop-color="#5478bb"/><stop offset="1" stop-color="#4a5aa8"/></linearGradient><linearGradient id="_7-2" x1="884.42" y1="160.29" x2="576.87" y2="618.16" gradientTransform="translate(548.67 132.85) rotate(.69)" xlink:href="#_7"/><linearGradient id="_7-3" x1="936.95" y1="195.56" x2="629.39" y2="653.45" gradientTransform="translate(548.67 132.85) rotate(.69)" xlink:href="#_7"/><linearGradient id="linear-gradient-4" x1="879.73" y1="349.35" x2="649.93" y2="741.56" gradientTransform="translate(548.67 132.85) rotate(.69)" gradientUnits="userSpaceOnUse"><stop offset="0" stop-color="#8d50a0"/><stop offset="1" stop-color="#ef4a7b"/></linearGradient><linearGradient id="linear-gradient-5" x1="1021.77" y1="-1155.73" x2="735.6" y2="-779.28" gradientTransform="translate(274.26 693.69) rotate(23.37)" gradientUnits="userSpaceOnUse"><stop offset="0" stop-color="#293882"/><stop offset="1" stop-color="#171042"/></linearGradient><linearGradient id="linear-gradient-6" x1="1108.67" y1="-134.87" x2="818.38" y2="246.99" gradientTransform="translate(548.67 132.85) rotate(.69)" xlink:href="#linear-gradient-5"/><linearGradient id="_7-4" x1="1458" y1="79.12" x2="1697.54" y2="675.25" xlink:href="#_7"/><linearGradient id="linear-gradient-7" x1="1152.53" y1="-36.53" x2="855.13" y2="147.32" gradientTransform="translate(-578.04 336.13) rotate(12.91)" xlink:href="#linear-gradient-4"/><linearGradient id="linear-gradient-8" x1="868.49" y1="349.52" x2="721.5" y2="-461.62" gradientTransform="translate(-606.18 290.64) rotate(14.16) scale(.96) skewX(2.12)" xlink:href="#linear-gradient-4"/><linearGradient id="linear-gradient-9" x1="785.28" y1="-468.69" x2="692.26" y2="219.64" gradientUnits="userSpaceOnUse"><stop offset="0" stop-color="#cb266e"/><stop offset="1" stop-color="#4c286e"/></linearGradient><linearGradient id="linear-gradient-10" x1="1707.27" y1="-168.08" x2="-72.5" y2="1381.43" xlink:href="#linear-gradient-9"/><linearGradient id="_3-2" x1="760.93" y1="397.23" x2="72.86" y2="1789.62" gradientTransform="matrix(1, 0, 0, 1, 0, 0)" xlink:href="#_3"/><linearGradient id="linear-gradient-11" x1="2473.32" y1="989.48" x2="2521.37" y2="989.48" gradientTransform="translate(-898.66)" gradientUnits="userSpaceOnUse"><stop offset="0" stop-color="#f7b777"/><stop offset="1" stop-color="#f47960"/></linearGradient><linearGradient id="linear-gradient-12" x1="1569.73" y1="1105.18" x2="1645.71" y2="1242.12" gradientUnits="userSpaceOnUse"><stop offset="0" stop-color="#66cdf3"/><stop offset="1" stop-color="#4a5aa8"/></linearGradient><linearGradient id="linear-gradient-13" x1="-405.16" y1="1194.16" x2="-536.23" y2="1297.08" gradientTransform="translate(1167.04) rotate(-180) scale(1 -1)" xlink:href="#linear-gradient-12"/><linearGradient id="linear-gradient-14" x1="-485.34" y1="1195.65" x2="-492.22" y2="1255.71" gradientTransform="translate(1167.04) rotate(-180) scale(1 -1)" xlink:href="#linear-gradient-11"/><linearGradient id="linear-gradient-15" x1="-381.88" y1="1223.82" x2="-512.95" y2="1326.73" gradientTransform="translate(1167.04) rotate(-180) scale(1 -1)" xlink:href="#linear-gradient-12"/><linearGradient id="linear-gradient-16" x1="1522.25" y1="1157.61" x2="1583.21" y2="1242.42" xlink:href="#linear-gradient-12"/><linearGradient id="linear-gradient-17" x1="-429.28" y1="1202.07" x2="-436.16" y2="1262.13" gradientTransform="translate(1167.04) rotate(-180) scale(1 -1)" xlink:href="#linear-gradient-11"/><linearGradient id="linear-gradient-18" x1="-347.51" y1="927.43" x2="-567.62" y2="1268.97" gradientTransform="translate(1167.04) rotate(-180) scale(1 -1)" xlink:href="#linear-gradient-5"/><linearGradient id="linear-gradient-19" x1="1765.78" y1="860.21" x2="1730.43" y2="1206.3" gradientTransform="translate(-130.89)" xlink:href="#linear-gradient-9"/><linearGradient id="linear-gradient-20" x1="-527.55" y1="867.98" x2="-553.76" y2="981.23" gradientTransform="translate(1079.81 -35.68) rotate(177.96) scale(1 -1)" xlink:href="#linear-gradient-11"/><linearGradient id="linear-gradient-21" x1="-2111.21" y1="-1429.35" x2="-2157.83" y2="-1367.68" gradientTransform="translate(-865.21 322.58) rotate(-135.31) scale(1 -1)" xlink:href="#linear-gradient-11"/><linearGradient id="linear-gradient-22" x1="-2146.82" y1="-1414.54" x2="-2091.13" y2="-1414.54" gradientTransform="translate(-865.21 322.58) rotate(-135.31) scale(1 -1)" xlink:href="#linear-gradient-5"/><linearGradient id="linear-gradient-23" x1="-2179.49" y1="-1380.51" x2="-2142.1" y2="-1418.88" gradientTransform="translate(-865.21 322.58) rotate(-135.31) scale(1 -1)" xlink:href="#linear-gradient-11"/><linearGradient id="linear-gradient-24" x1="2524.72" y1="833.09" x2="2470.33" y2="933.03" gradientTransform="translate(-898.66)" xlink:href="#linear-gradient-9"/><linearGradient id="linear-gradient-25" x1="-1309.47" y1="873.72" x2="-1343.56" y2="1207.49" gradientTransform="translate(399.27) rotate(-180) scale(1 -1)" xlink:href="#linear-gradient-11"/><linearGradient id="linear-gradient-26" x1="-1298.4" y1="874.85" x2="-1332.49" y2="1208.62" gradientTransform="translate(399.27) rotate(-180) scale(1 -1)" xlink:href="#linear-gradient-9"/><linearGradient id="linear-gradient-27" x1="-1316" y1="925.71" x2="-1343.82" y2="1198.04" gradientTransform="translate(399.27) rotate(-180) scale(1 -1)" xlink:href="#linear-gradient-11"/><linearGradient id="linear-gradient-28" x1="-1350.69" y1="782.86" x2="-1494.16" y2="994.48" gradientTransform="translate(399.27) rotate(-180) scale(1 -1)" xlink:href="#linear-gradient-5"/><linearGradient id="linear-gradient-29" x1="-1312.34" y1="625.76" x2="-1406.91" y2="1551.77" gradientTransform="translate(399.27) rotate(-180) scale(1 -1)" xlink:href="#linear-gradient-11"/><linearGradient id="linear-gradient-30" x1="-1421.47" y1="1536.34" x2="-1411.59" y2="1725.49" gradientTransform="translate(3342.64)" gradientUnits="userSpaceOnUse"><stop offset="0" stop-color="#f9ee4a"/><stop offset="1" stop-color="#da3d66"/></linearGradient><linearGradient id="linear-gradient-31" x1="-1556.14" y1="1342.44" x2="-1519.8" y2="917.72" gradientTransform="translate(3342.64)" xlink:href="#linear-gradient-11"/><linearGradient id="linear-gradient-32" x1="-1530.64" y1="1542.04" x2="-1520.76" y2="1731.2" xlink:href="#linear-gradient-30"/><linearGradient id="linear-gradient-33" x1="-1483.04" y1="1348.76" x2="-1446.69" y2="923.93" gradientTransform="translate(3342.64)" xlink:href="#linear-gradient-11"/><linearGradient id="linear-gradient-34" x1="1752" y1="898.86" x2="2007.76" y2="1100.29" gradientTransform="matrix(1, 0, 0, 1, 0, 0)" xlink:href="#linear-gradient-30"/><linearGradient id="linear-gradient-35" x1="1734.23" y1="832.72" x2="1799.25" y2="1019.63" gradientTransform="matrix(1, 0, 0, 1, 0, 0)" xlink:href="#linear-gradient-5"/><linearGradient id="linear-gradient-36" x1="-1560.12" y1="923.8" x2="-1553.3" y2="873.86" gradientTransform="translate(3342.64)" xlink:href="#linear-gradient-11"/><linearGradient id="linear-gradient-37" x1="-1758.11" y1="833.18" x2="-1698.55" y2="727.18" gradientTransform="translate(3333.01 -295.21) rotate(-11.2)" xlink:href="#linear-gradient-11"/><linearGradient id="linear-gradient-38" x1="-1366" y1="772.48" x2="-1509.47" y2="984.1" gradientTransform="translate(399.27) rotate(-180) scale(1 -1)" xlink:href="#linear-gradient-5"/><linearGradient id="linear-gradient-39" x1="-1747.34" y1="840.82" x2="-1687.78" y2="734.83" gradientTransform="translate(3333.01 -295.21) rotate(-11.2)" xlink:href="#linear-gradient-11"/><linearGradient id="linear-gradient-40" x1="-1526.46" y1="962.39" x2="-1405.23" y2="962.39" gradientTransform="translate(399.27) rotate(-180) scale(1 -1)" xlink:href="#linear-gradient-11"/><linearGradient id="linear-gradient-41" x1="710.09" y1="932.07" x2="462.49" y2="1754.2" xlink:href="#linear-gradient-12"/><linearGradient id="linear-gradient-42" x1="621.19" y1="904.64" x2="620.48" y2="954.82" xlink:href="#linear-gradient-12"/><linearGradient id="linear-gradient-43" x1="692.76" y1="1117.87" x2="77.99" y2="2056.97" xlink:href="#linear-gradient-12"/><linearGradient id="linear-gradient-44" x1="830.69" y1="1073.35" x2="771.14" y2="1268.79" xlink:href="#linear-gradient-12"/><linearGradient id="linear-gradient-45" x1="810.46" y1="1057.4" x2="929.55" y2="953.77" xlink:href="#linear-gradient-12"/><linearGradient id="linear-gradient-46" x1="823.29" y1="1136.42" x2="744.66" y2="1397.52" xlink:href="#linear-gradient-12"/><linearGradient id="linear-gradient-47" x1="756.2" y1="1075.09" x2="696.66" y2="1270.53" xlink:href="#linear-gradient-12"/><linearGradient id="linear-gradient-48" x1="735.97" y1="1059.15" x2="855.06" y2="955.52" xlink:href="#linear-gradient-12"/><linearGradient id="linear-gradient-49" x1="748.81" y1="1138.17" x2="670.18" y2="1399.26" xlink:href="#linear-gradient-12"/><linearGradient id="linear-gradient-50" x1="290.61" y1="1267.12" x2="310.37" y2="1007.34" gradientTransform="matrix(1, 0, 0, 1, 0, 0)" xlink:href="#linear-gradient-5"/><linearGradient id="linear-gradient-51" x1="292.92" y1="772.67" x2="370.74" y2="772.67" gradientTransform="matrix(1, 0, 0, 1, 0, 0)" xlink:href="#linear-gradient-5"/><linearGradient id="linear-gradient-52" x1="416.09" y1="1031.75" x2="406.7" y2="999.82" xlink:href="#linear-gradient-12"/><linearGradient id="linear-gradient-53" x1="210.03" y1="688.41" x2="396" y2="607.64" xlink:href="#linear-gradient-12"/><linearGradient id="linear-gradient-54" x1="250.46" y1="569.51" x2="286.15" y2="336.59" gradientTransform="matrix(1, 0, 0, 1, 0, 0)" xlink:href="#linear-gradient-5"/><linearGradient id="linear-gradient-55" x1="278.12" y1="573.75" x2="313.81" y2="340.83" xlink:href="#linear-gradient-12"/><linearGradient id="linear-gradient-56" x1="104.53" y1="856.76" x2="380.12" y2="856.76" gradientTransform="matrix(1, 0, 0, 1, 0, 0)" xlink:href="#linear-gradient-5"/><linearGradient id="linear-gradient-57" x1="192.83" y1="1234.58" x2="298.02" y2="1046.74" xlink:href="#linear-gradient-12"/><linearGradient id="linear-gradient-58" x1="305.16" y1="999.37" x2="124.83" y2="1245.44" gradientTransform="translate(77.11 -14.78) rotate(4.07)" xlink:href="#linear-gradient-5"/><linearGradient id="linear-gradient-59" x1="385.76" y1="1143.03" x2="376.58" y2="1024.47" gradientTransform="matrix(1, 0, 0, 1, 0, 0)" xlink:href="#linear-gradient-5"/><linearGradient id="linear-gradient-60" x1="368.84" y1="1044.4" x2="378.03" y2="930.85" gradientTransform="matrix(1, 0, 0, 1, 0, 0)" xlink:href="#linear-gradient-5"/><linearGradient id="linear-gradient-61" x1="260.61" y1="977.3" x2="487.77" y2="977.3" xlink:href="#linear-gradient-12"/><linearGradient id="linear-gradient-62" x1="378.18" y1="907.34" x2="374.43" y2="973.09" xlink:href="#linear-gradient-12"/><linearGradient id="linear-gradient-63" x1="206.29" y1="661.25" x2="303.08" y2="661.25" xlink:href="#linear-gradient-12"/><linearGradient id="linear-gradient-64" x1="222.09" y1="664.21" x2="287.27" y2="664.21" gradientTransform="translate(544.26 14.46) rotate(45)" xlink:href="#linear-gradient-5"/><linearGradient id="linear-gradient-65" x1="2241.53" y1="-89.96" x2="2121.11" y2="220.06" gradientTransform="translate(2699.68 -1216.63) rotate(135)" xlink:href="#linear-gradient-30"/><linearGradient id="linear-gradient-66" x1="2238.69" y1="4.82" x2="2027.6" y2="548.27" gradientTransform="translate(845.22 -1747.54) rotate(84.76)" xlink:href="#linear-gradient-30"/><linearGradient id="linear-gradient-67" x1="85.64" y1="1346.92" x2="-34.79" y2="1656.94" gradientTransform="translate(39.46 -443.19) rotate(-27.64)" xlink:href="#linear-gradient-30"/><linearGradient id="linear-gradient-68" x1="82.79" y1="1441.71" x2="-128.3" y2="1985.16" gradientTransform="translate(-497.77 263.15) rotate(-67.98)" xlink:href="#linear-gradient-30"/><linearGradient id="linear-gradient-69" x1="2373.79" y1="-901.41" x2="2253.37" y2="-591.37" gradientTransform="translate(3613.84 1805.11) rotate(-135)" xlink:href="#linear-gradient-30"/><linearGradient id="linear-gradient-70" x1="2370.96" y1="-806.62" x2="2159.86" y2="-263.17" gradientTransform="translate(2498.44 -1464.2) rotate(141.19)" xlink:href="#linear-gradient-30"/><linearGradient id="linear-gradient-71" x1="908.23" y1="530.84" x2="1288.57" y2="1180.05" gradientTransform="matrix(1, 0, 0, 1, 0, 0)" xlink:href="#linear-gradient-30"/><linearGradient id="linear-gradient-72" x1="882.17" y1="713.21" x2="761.75" y2="1023.22" gradientTransform="translate(1330.07 -383.42) rotate(76.72)" xlink:href="#linear-gradient-30"/><linearGradient id="linear-gradient-73" x1="1001.04" y1="741.09" x2="880.62" y2="1051.1" gradientTransform="translate(778.89 -527.45) rotate(45)" xlink:href="#linear-gradient-30"/><linearGradient id="linear-gradient-74" x1="943.39" y1="591.32" x2="822.97" y2="901.34" gradientTransform="matrix(1, 0, 0, 1, 0, 0)" xlink:href="#linear-gradient-30"/><linearGradient id="linear-gradient-75" x1="1098.22" y1="642.93" x2="977.8" y2="952.95" gradientTransform="translate(737.95 -624.91) rotate(45)" xlink:href="#linear-gradient-30"/><linearGradient id="linear-gradient-76" x1="1024.37" y1="839.33" x2="903.95" y2="1149.35" gradientTransform="translate(855.19 -515.17) rotate(45)" xlink:href="#linear-gradient-30"/><linearGradient id="linear-gradient-77" x1="864.6" y1="839.33" x2="744.18" y2="1149.35" gradientTransform="translate(808.4 -402.2) rotate(45)" xlink:href="#linear-gradient-30"/><linearGradient id="linear-gradient-78" x1="1200.6" y1="393.13" x2="1080.17" y2="703.16" gradientTransform="translate(335.17 -714.26) rotate(45)" xlink:href="#linear-gradient-30"/><linearGradient id="linear-gradient-79" x1="1197.76" y1="487.92" x2="986.67" y2="1031.37" gradientTransform="translate(-126.43 -254.82) rotate(15.26)" xlink:href="#linear-gradient-30"/><linearGradient id="linear-gradient-80" x1="-9.09" y1="368.51" x2="-129.51" y2="678.53" gradientTransform="translate(908.63 259.32) rotate(31.94)" xlink:href="#linear-gradient-30"/><linearGradient id="linear-gradient-81" x1="-14.32" y1="462.36" x2="-225.41" y2="1005.8" gradientTransform="translate(531.94 325.85) rotate(-45.94)" xlink:href="#linear-gradient-30"/><linearGradient id="linear-gradient-82" x1="142.49" y1="694.77" x2="22.07" y2="1004.8" gradientTransform="translate(727.17 50.06) scale(1 .82)" xlink:href="#linear-gradient-30"/><linearGradient id="linear-gradient-83" x1="137.26" y1="788.63" x2="-73.83" y2="1332.07" gradientTransform="translate(443.24 266.9) rotate(-38.6) scale(1 .82)" xlink:href="#linear-gradient-30"/><linearGradient id="linear-gradient-84" x1="-423.18" y1="110.78" x2="-543.59" y2="420.78" gradientTransform="translate(1195.73 646.1) scale(1 .86)" xlink:href="#linear-gradient-30"/><linearGradient id="linear-gradient-85" x1="-428.6" y1="295.78" x2="-639.67" y2="839.17" gradientTransform="translate(762.7 278.02) rotate(-81.53) scale(1 .7)" xlink:href="#linear-gradient-30"/><linearGradient id="linear-gradient-86" x1="-617.42" y1="-238.12" x2="-737.84" y2="71.89" gradientTransform="translate(1393.97 940.26) rotate(-13.65)" xlink:href="#linear-gradient-30"/><linearGradient id="linear-gradient-87" x1="-619.99" y1="-146.48" x2="-827.12" y2="386.77" gradientTransform="translate(908.07 140.52) rotate(-103.05)" xlink:href="#linear-gradient-30"/><linearGradient id="linear-gradient-88" x1="-519.69" y1="-668.45" x2="-640.11" y2="-358.43" gradientTransform="translate(976.27 52.58) rotate(-142.38) scale(.87 .81)" xlink:href="#linear-gradient-30"/><linearGradient id="linear-gradient-89" x1="-522.11" y1="-779.97" x2="-729.25" y2="-246.68" gradientTransform="translate(970.46 60.36) rotate(-142.38) scale(.87 .62)" xlink:href="#linear-gradient-30"/><linearGradient id="linear-gradient-90" x1="2099.53" y1="-864.48" x2="1979.11" y2="-554.46" gradientTransform="translate(3288.59 1393.53) rotate(-145.45)" xlink:href="#linear-gradient-30"/><linearGradient id="linear-gradient-91" x1="2096.76" y1="-773.75" x2="1890.64" y2="-243.08" gradientTransform="translate(3302.4 593.04) rotate(-165.33)" xlink:href="#linear-gradient-30"/><linearGradient id="linear-gradient-92" x1="1101.34" y1="1452.53" x2="980.91" y2="1762.56" gradientTransform="translate(1036.53 -1342.23) rotate(45)" xlink:href="#linear-gradient-30"/><linearGradient id="linear-gradient-93" x1="1096.94" y1="1545" x2="887.91" y2="2083.13" gradientTransform="translate(-421.52 -819.03) rotate(-6.36)" xlink:href="#linear-gradient-30"/><linearGradient id="linear-gradient-94" x1="2394.6" y1="-546.07" x2="2274.18" y2="-236.06" gradientTransform="translate(3545.76 -380.44) rotate(169.99)" xlink:href="#linear-gradient-30"/><linearGradient id="linear-gradient-95" x1="2391" y1="-454.46" x2="2183.42" y2="79.96" gradientTransform="translate(1605.15 -1831.47) rotate(111.91)" xlink:href="#linear-gradient-30"/><linearGradient id="linear-gradient-96" x1="2468.07" y1="-530.83" x2="2347.66" y2="-220.83" gradientTransform="translate(3658.47 182.35) rotate(-180) scale(1 .83)" xlink:href="#linear-gradient-30"/><linearGradient id="linear-gradient-97" x1="2464.48" y1="-439.23" x2="2256.9" y2="95.16" gradientTransform="translate(1635.02 -1819.69) rotate(111.91) scale(1 .83)" xlink:href="#linear-gradient-30"/><linearGradient id="linear-gradient-98" x1="2125.19" y1="726.07" x2="2004.77" y2="1036.07" gradientTransform="translate(1619.35 -1598.84) rotate(90) scale(1 .87)" xlink:href="#linear-gradient-30"/><linearGradient id="linear-gradient-99" x1="2121.47" y1="1150.44" x2="1913.88" y2="1684.87" gradientTransform="translate(-195.03 -1310.21) rotate(40.27) scale(1 .62)" xlink:href="#linear-gradient-30"/><linearGradient id="linear-gradient-100" x1="2378.06" y1="-1068.7" x2="2257.64" y2="-758.68" gradientTransform="translate(3803.52 880.23) rotate(-155.03)" xlink:href="#linear-gradient-30"/><linearGradient id="linear-gradient-101" x1="2373.92" y1="-972.13" x2="2160.04" y2="-421.51" gradientTransform="translate(2874.01 -1125.67) rotate(155.8)" xlink:href="#linear-gradient-30"/><linearGradient id="linear-gradient-102" x1="1963.42" y1="343.69" x2="1843" y2="653.69" gradientTransform="translate(-7.67 -1270.25) rotate(48.59)" xlink:href="#linear-gradient-30"/><linearGradient id="linear-gradient-103" x1="1960.58" y1="438.47" x2="1749.51" y2="981.87" gradientTransform="translate(-7.67 -1270.25) rotate(48.59)" xlink:href="#linear-gradient-30"/><linearGradient id="linear-gradient-104" x1="1868.32" y1="-227.08" x2="1747.9" y2="82.93" gradientTransform="translate(2424.26 2057.38) rotate(-134.71)" xlink:href="#linear-gradient-30"/><linearGradient id="linear-gradient-105" x1="1865.6" y1="-136.4" x2="1659.56" y2="394.05" gradientTransform="translate(2424.26 2057.38) rotate(-134.71)" xlink:href="#linear-gradient-30"/><linearGradient id="linear-gradient-106" x1="1323.84" y1="-42.78" x2="394.9" y2="1485.72" xlink:href="#linear-gradient-9"/><linearGradient id="linear-gradient-107" x1="1367.58" y1="-16.2" x2="438.64" y2="1512.29" xlink:href="#linear-gradient-9"/><linearGradient id="linear-gradient-108" x1="1421.3" y1="16.45" x2="492.36" y2="1544.94" xlink:href="#linear-gradient-9"/><linearGradient id="linear-gradient-109" x1="1366.88" y1="-16.62" x2="437.94" y2="1511.87" xlink:href="#linear-gradient-9"/><linearGradient id="linear-gradient-110" x1="1398.24" y1="2.44" x2="469.3" y2="1530.93" xlink:href="#linear-gradient-9"/><linearGradient id="linear-gradient-111" x1="1426.08" y1="19.36" x2="497.14" y2="1547.85" xlink:href="#linear-gradient-9"/><linearGradient id="linear-gradient-112" x1="1455.53" y1="37.26" x2="526.59" y2="1565.74" xlink:href="#linear-gradient-9"/><linearGradient id="linear-gradient-113" x1="1490.38" y1="58.44" x2="561.45" y2="1586.92" xlink:href="#linear-gradient-9"/></defs><path d="M930.1,922.48c-1.18-15.21,5.87-30.22,18.92-39.43,33.2-23.44,63.29-54.74,86.9-92.63,46.44-74.52,56.94-156.98,34.93-221.71-5.54-16.28-.8-34.27,12.44-46.35,35.08-31.98,68.17-75.36,94.11-126.51,66.57-131.25,60.87-263.93-12.72-296.33-73.6-32.41-187.22,47.73-253.79,178.98-26.46,52.17-41.5,104.56-45.39,150.8-1.49,17.67-13.68,33.01-31.23,39.34-58.54,21.13-114.46,65.49-153.07,127.45-10.82,17.36-19.68,35.15-26.64,53.04-6.1,15.68-20.89,26.97-38.23,29.26-90.74,11.98-177.42,64.26-229.73,148.2-87.03,139.65-45.95,314.02,91.75,389.46,137.71,75.44,319.89,23.38,406.93-116.27,35.13-56.37,49.37-118.4,44.82-177.3Z" style="fill:url(#linear-gradient);"/><path d="M1106.82,254.21c-6.16,20.43-13.35,40.53-20.88,60.53-7.57,19.98-15.54,39.84-24,59.51-16.87,39.37-35.32,78.16-55.14,116.33-19.79,38.19-41.15,75.67-63.84,112.43-2.84,4.59-5.58,9.24-8.5,13.79l-8.75,13.65c-5.83,9.1-11.61,18.23-17.73,27.17l-9.06,13.47c-3.05,4.48-5.97,9.02-9.15,13.42l-18.75,26.57c-3.07,4.46-6.41,8.75-9.61,13.13l-9.71,13.07c-3.26,4.34-6.46,8.72-9.78,13.02l-10.07,12.82-10.07,12.82-5.04,6.41c-1.69,2.13-3.46,4.2-5.19,6.3l-20.83,25.15c-3.42,4.23-7.09,8.27-10.66,12.39l-10.76,12.31-10.76,12.31c-3.64,4.06-7.4,8.03-11.09,12.05l-22.26,24.03-23,23.39c-3.87,3.87-7.61,7.85-11.58,11.62l-11.88,11.35-11.88,11.35-5.94,5.67-2.97,2.84-3.06,2.75-24.49,21.98-6.12,5.49-3.06,2.75-3.15,2.65-12.61,10.6-12.64,10.58-6.32,5.28c-2.1,1.77-4.21,3.53-6.4,5.2l-26.02,20.31c-4.36,3.36-8.62,6.82-13.05,10.1l-13.37,9.72-26.78,19.36c-.76,.55-1.82,.42-2.37-.29-.55-.7-.4-1.69,.33-2.24l.05-.04,26.31-19.81,13.18-9.87c4.36-3.32,8.57-6.84,12.86-10.25l25.62-20.6c2.16-1.69,4.23-3.48,6.3-5.27l6.22-5.35,12.44-10.7,12.47-10.67,3.11-2.67,3.02-2.76,6.05-5.52,24.19-22.1,3.02-2.77,2.93-2.85,5.86-5.7,11.73-11.4,11.72-11.4c3.91-3.8,7.61-7.79,11.42-11.67l22.75-23.43,22.09-23.99c3.66-4.01,7.39-7.98,11-12.03l10.68-12.29,10.68-12.29c3.54-4.11,7.18-8.14,10.57-12.37,27.93-33.2,54.26-67.56,79.78-102.43,50.59-70.05,95.89-143.46,136.13-219.21,20.1-37.89,38.73-76.45,55.99-115.53,8.7-19.51,16.93-39.21,24.75-59.05,1.97-4.95,3.91-9.92,5.77-14.91,1.91-4.97,3.76-9.96,5.58-14.97,3.67-9.99,7.23-20.03,10.44-30.12h0c.27-.87,1.22-1.37,2.12-1.13,.89,.24,1.39,1.11,1.14,1.96Z" style="fill:#fff; opacity:.36;"/><path d="M1533.96,808.79c45.84-65.82,64.3-140.58,56.37-205.47-1.6-13.12,4.42-26.09,15.45-33.4,30.14-19.97,60.3-49.81,88.19-89.87,79.62-114.32,110.67-268.52,47.26-312.68-63.41-44.16-197.27,38.44-276.89,152.76-24.4,35.03-40.86,68.98-50.15,100.48-3.91,13.27-15.08,23.01-28.72,25.18-68.99,10.98-139.96,55.85-189.8,127.41-17.48,25.1-30.97,51.49-40.54,78.15-5.71,15.89-21.66,25.67-38.34,23.31-101.12-14.32-206.54,27.53-269.19,117.08-88.85,127.01-56.05,305.77,71.94,392.42,126.43,85.6,298.76,53.62,386.53-72.4,32.36-46.46,48.73-99.27,50.29-151.88,.44-14.93,10.19-27.95,24.38-32.63,56.8-18.71,112.17-59.54,153.2-118.47Z" style="fill:url(#linear-gradient-2);"/><path d="M1653.18,305.95c-9.21,20.57-19.37,40.66-29.82,60.61-10.4,19.98-21.46,39.61-32.67,59.15-22.65,38.95-46.5,77.24-71.85,114.55-50.49,74.74-106.15,146.14-167.03,212.91-30.22,33.59-62.34,65.45-95.37,96.29-33.09,30.78-67.82,59.84-103.84,87.12-9.08,6.73-18.1,13.54-27.22,20.19l-27.9,19.25c-9.23,6.51-18.91,12.36-28.45,18.39l-14.34,9-7.17,4.5-7.34,4.22-29.46,16.67c-4.85,2.87-9.95,5.31-14.96,7.9l-15.08,7.65-15.09,7.59c-5.04,2.51-10.26,4.67-15.37,7.02l-30.9,13.58-.83-1.81,29.58-16.08c4.92-2.69,9.93-5.18,14.76-8.02l14.46-8.58,14.47-8.52c4.81-2.85,9.71-5.55,14.36-8.68l28.23-18.15,7.07-4.5,6.9-4.78,13.78-9.55c9.17-6.39,18.46-12.59,27.3-19.44l26.93-19.94c8.81-6.87,17.5-13.89,26.25-20.82,4.35-3.5,8.78-6.89,13.06-10.48l12.8-10.81,12.82-10.78c4.27-3.59,8.58-7.14,12.69-10.92l24.96-22.34c4.21-3.67,8.21-7.57,12.26-11.41l12.18-11.49,12.22-11.45,11.92-11.77c7.9-7.9,15.96-15.63,23.73-23.66l23.2-24.19c7.72-8.07,15.21-16.37,22.83-24.54,30.24-32.91,59.32-66.91,87.44-101.7,28.11-34.81,55.12-70.51,81.39-106.78,26.11-36.38,51.46-73.35,75.71-111.07,6.16-9.37,12.06-18.9,18.08-28.37l17.63-28.66c2.94-4.78,5.83-9.59,8.68-14.42,2.89-4.81,5.72-9.66,8.55-14.5,5.71-9.66,11.26-19.43,16.68-29.24l1.79,.87Z" style="fill:#fff; opacity:.36;"/><path d="M693.8,702.97c28.98-78.51,29.1-158.44,5.81-221.22-4.71-12.7-1.94-27.33,7.08-37.69,24.64-28.29,46.93-66.46,64.57-114.24,50.34-136.36,43.71-299.28-28.78-326.04-72.49-26.76-183.39,92.77-233.73,229.13-15.43,41.79-23.37,80.3-24.89,114.4-.64,14.36-9.21,27.18-22.01,33.11-64.73,29.98-123.27,94.43-154.78,179.78-11.05,29.93-17.9,60.07-20.86,89.39-1.76,17.48-14.99,31.66-31.85,33.89-102.16,13.49-195.06,84.4-234.76,191.3-56.31,151.61,18.54,321.54,164.27,373.08,143.95,50.9,304.54-28.54,360.03-178.86,20.46-55.42,23.79-112.79,12.71-165.9-3.14-15.07,3.26-30.79,15.98-39.37,50.97-34.36,95.24-90.48,121.19-160.76Z" style="fill:url(#linear-gradient-3);"/><path d="M689.72,166.74c-4.06,23.13-9.17,46.04-14.59,68.89-5.36,22.87-11.46,45.56-17.72,68.21-12.78,45.23-26.89,90.13-42.7,134.45-31.38,88.72-68.62,175.52-112.06,259.12-21.46,41.94-45.18,82.68-70.04,122.65-24.94,39.92-51.87,78.57-80.51,115.8-7.25,9.23-14.43,18.53-21.74,27.7l-22.62,26.95c-7.45,9.06-15.5,17.58-23.38,26.24l-11.84,12.96-5.92,6.48-6.16,6.24-24.77,24.8c-4.05,4.21-8.44,8.05-12.71,12.02l-12.89,11.81-12.92,11.75c-4.31,3.9-8.9,7.5-13.33,11.26l-26.92,22.1-1.24-1.58,25.03-24.24c4.16-4.04,8.46-7.92,12.49-12.09l12.06-12.57,12.08-12.51c4.01-4.18,8.15-8.23,11.94-12.64l23.21-25.94,5.83-6.45,5.59-6.68,11.17-13.35c7.42-8.92,15.01-17.68,21.99-26.98l21.51-27.37c6.95-9.3,13.76-18.72,20.64-28.07,3.41-4.7,6.92-9.32,10.24-14.09l9.9-14.34,9.93-14.32c3.31-4.77,6.66-9.51,9.77-14.43l19.01-29.24c3.23-4.83,6.2-9.84,9.24-14.79l9.14-14.86,9.19-14.83,8.82-15.06c5.82-10.08,11.84-20.04,17.5-30.21l16.85-30.6c5.6-10.21,10.92-20.58,16.4-30.85,21.64-41.27,41.88-83.31,61-125.88,19.11-42.58,36.92-85.76,53.88-129.3,16.77-43.61,32.67-87.6,47.31-132.03,3.76-11.08,7.24-22.24,10.85-33.38l10.34-33.55c1.72-5.6,3.39-11.2,5.02-16.83,1.67-5.61,3.27-11.24,4.87-16.87,3.26-11.24,6.33-22.55,9.28-33.87l1.95,.38Z" style="fill:#fff; opacity:.36;"/><path d="M1199.68,200.63l631.08,7.61c34.82,.42,63.2,28.05,64.55,62.84l35.55,915.51c1.06,27.23-20.64,49.92-47.88,50.09l-723.45,4.43c-25.6,.16-46.35-20.72-46.04-46.32l11.1-920.84c.49-40.98,34.12-73.81,75.1-73.31Z" style="fill:url(#_3);"/><path d="M1265.44,1226h-.02l-80.92-2.02c-26.61-.67-48-22.86-47.68-49.48l1.47-122.19c0-.5,.4-.91,.92-.9,.5,0,.9,.42,.9,.92l-1.47,122.19c-.31,25.63,20.29,47,45.91,47.64l80.92,2.02c.5,.01,.9,.43,.88,.93-.01,.49-.42,.88-.91,.88Z" style="fill:#fff;"/><path d="M1139.65,1015.37h-.01c-.5,0-.9-.42-.9-.92l.24-19.79c0-.5,.45-.9,.92-.9,.5,0,.9,.42,.9,.92l-.24,19.79c0,.5-.41,.9-.91,.9Z" style="fill:#fff;"/><g><path d="M1201.71,193.23c86.04,12.73,381.95,52.44,627.19,36.59,11.18-.72,20.78,7.86,21.24,19.06l37.77,919.61c.52,12.61-9.23,23.27-21.84,23.86-103.12,4.86-527.8,23.31-678.98,5.63-9.2-1.08-16.1-8.92-16.04-18.18l5.96-965.37c.08-13.11,11.74-23.12,24.71-21.2Z" style="fill:url(#_7);"/><path d="M1210.65,217.19c82.8,12.25,367.57,50.47,603.58,35.21,10.76-.7,20,7.56,20.44,18.34l36.34,884.98c.5,12.13-8.89,22.39-21.02,22.96-99.24,4.67-507.92,22.44-653.41,5.42-8.86-1.04-15.49-8.58-15.44-17.5l5.73-929.02c.08-12.62,11.29-22.25,23.78-20.41Z" style="fill:#fff; opacity:.6;"/><path d="M1262.83,306.7l6.52,189.72c.22,6.31,5.25,11.39,11.56,11.64,35.1,1.41,144.49,5.4,206.32,2.93,6.99-.28,12.59-5.87,12.91-12.86,1.61-35.54,5.43-139.01-2.15-182.37-1.22-7-7.17-12.2-14.27-12.53l-207.47-9.76c-7.48-.35-13.67,5.76-13.41,13.24Z" style="fill:#fff; opacity:.78;"/><path d="M1422.2,376.43c-.27,22.51-18.74,40.54-41.25,40.27-22.51-.27-40.54-18.74-40.27-41.25,.27-22.51,18.74-40.54,41.25-40.27,22.51,.27,40.54,18.74,40.27,41.25Z" style="fill:url(#_7-2);"/><path d="M1318.09,494.86l129.86,1.57c7.96,.1,12.84-8.64,8.63-15.4-10.82-17.39-33.59-43.03-73.58-42.36-38.53,.64-61.64,23.27-73.32,39.55-4.96,6.91-.1,16.54,8.4,16.64Z" style="fill:url(#_7-3);"/><g style="opacity:.6;"><path d="M1785.68,329.51c2,.02,3.6-1.59,3.57-3.58l-.09-5.47c-.03-2-1.69-3.68-3.69-3.74l-235.08-7.02c-2-.06-3.1,1.44-2.46,3.33l3.47,10.24c.64,1.89,2.8,3.46,4.79,3.48l229.5,2.77Z" style="fill:#fff;"/></g><g style="opacity:.6;"><path d="M1549.95,345.05c-2-.06-3.1,1.44-2.46,3.33l3.47,10.24c.64,1.89,2.8,3.46,4.79,3.48l229.5,2.77c2,.02,3.6-1.59,3.57-3.58l-.09-5.47c-.03-2-1.69-3.68-3.69-3.74l-235.08-7.02Z" style="fill:#fff;"/></g><g style="opacity:.6;"><path d="M1549.52,380.91c-2-.06-3.1,1.44-2.46,3.33l3.47,10.24c.64,1.89,2.8,3.46,4.79,3.48l229.5,2.77c2,.02,3.6-1.59,3.57-3.58l-.09-5.47c-.03-2-1.69-3.68-3.69-3.74l-235.08-7.02Z" style="fill:#fff;"/></g><g style="opacity:.6;"><path d="M1804.84,573.93c2,.02,3.54-1.59,3.43-3.58l-.3-5.48c-.11-1.99-1.83-3.66-3.82-3.7l-540.7-10.78c-2-.04-2.63,1.22-1.4,2.79l8.91,11.47c1.22,1.58,3.86,2.89,5.85,2.91l528.02,6.37Z" style="fill:#fff;"/></g><g style="opacity:.6;"><path d="M1263.03,585.74c-2-.04-2.63,1.22-1.4,2.79l8.91,11.47c1.22,1.58,3.86,2.89,5.85,2.91l528.02,6.37c2,.02,3.54-1.59,3.43-3.58l-.3-5.48c-.11-1.99-1.83-3.66-3.82-3.7l-540.7-10.78Z" style="fill:#fff;"/></g><g><path d="M1334.99,722.36c-.09,0-.17,0-.26,0l-45-.97c-6.01-.13-10.92-4.3-11.42-9.69l-3.5-37.81c-.18-2,.46-3.96,1.82-5.54,1.54-1.78,3.85-2.89,6.35-3.03h0c3.8-.21,9.14-.6,14.8-1.02,11.9-.87,26.72-1.95,35.03-1.95h0c5.62,0,10.43,3.43,11.69,8.35,2.21,8.59,1.81,24.93,1.15,42.34-.19,5.19-4.96,9.33-10.68,9.33Zm-51.91-55.23c-2.01,.11-3.86,.99-5.08,2.4-1.03,1.2-1.52,2.68-1.39,4.19l3.5,37.81c.41,4.48,4.57,7.94,9.65,8.05l45,.97c4.82,.12,8.92-3.29,9.08-7.58,.65-17.27,1.05-33.47-1.1-41.82-1.06-4.12-5.15-6.99-9.94-6.99h0c-8.24,0-23.02,1.08-34.89,1.95-5.67,.41-11.02,.81-14.84,1.02h0Z" style="fill:#fff;"/><g style="opacity:.6;"><path d="M1374.75,684.5c-2-.03-3.23,1.53-2.75,3.47l3.89,15.52c.49,1.94,2.52,3.52,4.51,3.53l415.73,.66c2,0,3.61-1.63,3.59-3.62l-.09-9.54c-.02-2-1.67-3.65-3.66-3.68l-421.22-6.33Z" style="fill:#fff;"/></g><path d="M1289.77,677.84h0c3.36-1.92,7.65-.7,9.5,2.71l8.68,16.02c.87,1.6,3.19,1.53,3.96-.12l22.61-48.75c1.13-2.43,4.76-1.56,4.69,1.12-.41,14.99-4.73,43.44-28.97,67.01,0,0-13.14-5.29-23.49-28.76-1.49-3.39-.2-7.38,3.02-9.21Z" style="fill:url(#linear-gradient-4);"/><path d="M1333.83,818.81c-.09,0-.17,0-.26,0l-45-.97c-6.01-.13-10.92-4.3-11.42-9.69l-3.5-37.81c-.18-2,.46-3.96,1.82-5.54,1.54-1.78,3.85-2.89,6.35-3.03,3.8-.21,9.14-.6,14.79-1.02,11.91-.87,26.73-1.95,35.04-1.96h0c5.62,0,10.43,3.43,11.69,8.35,2.21,8.59,1.81,24.93,1.15,42.34-.19,5.19-4.96,9.33-10.68,9.33Zm-51.91-55.23c-2.01,.11-3.86,.99-5.08,2.4-1.03,1.2-1.52,2.68-1.39,4.19l3.5,37.81c.41,4.48,4.56,7.94,9.65,8.05l45,.97c4.89,.13,8.92-3.29,9.08-7.58,.65-17.27,1.05-33.47-1.1-41.82-1.06-4.12-5.15-6.99-9.94-6.99h0c-8.24,0-23.03,1.08-34.9,1.95-5.66,.41-11.01,.8-14.83,1.02h0Z" style="fill:#fff;"/><path d="M1286.76,768.35c9.46-.53,30.03-2.37,39.78-2.37,4.13,0,7.72,2.54,8.65,6.13,1.8,6.98,1.38,20.84,.9,33.63-.14,3.83-3.7,6.85-8,6.75l-35.96-.78c-4.42-.1-8.06-3.16-8.42-7.09l-2.8-30.21c-.29-3.13,2.34-5.86,5.85-6.06Z" style="fill:#fff; opacity:.6;"/><g style="opacity:.6;"><path d="M1373.59,780.95c-2-.03-3.23,1.53-2.75,3.47l3.89,15.52c.49,1.94,2.52,3.52,4.51,3.53l415.73,.66c2,0,3.61-1.63,3.59-3.62l-.09-9.54c-.02-2-1.67-3.65-3.66-3.68l-421.22-6.33Z" style="fill:#fff;"/></g><path d="M1332.67,915.26c-.09,0-.17,0-.26,0l-45-.98c-6.01-.13-10.92-4.3-11.42-9.69l-3.5-37.81c-.18-2,.46-3.96,1.82-5.54,1.54-1.78,3.85-2.89,6.35-3.03h0c3.8-.21,9.15-.6,14.81-1.02,11.9-.87,26.72-1.95,35.02-1.96h0c5.62,0,10.43,3.43,11.69,8.35,2.21,8.59,1.81,24.93,1.15,42.34-.19,5.19-4.96,9.33-10.68,9.33Zm-51.91-55.23c-2.01,.11-3.86,.99-5.08,2.4-1.03,1.2-1.52,2.68-1.39,4.19l3.5,37.81c.41,4.48,4.56,7.94,9.65,8.05l45,.98c.07,0,.15,0,.22,0,4.75,0,8.7-3.36,8.86-7.58,.65-17.27,1.05-33.46-1.1-41.82-1.06-4.12-5.15-6.99-9.94-6.99h0c-8.24,0-23.02,1.08-34.89,1.95-5.67,.41-11.02,.81-14.84,1.02h0Z" style="fill:#fff;"/><path d="M1285.6,864.81c9.46-.53,30.03-2.37,39.78-2.37,4.13,0,7.72,2.54,8.65,6.13,1.8,6.98,1.38,20.84,.9,33.63-.14,3.83-3.7,6.85-8,6.75l-35.96-.78c-4.42-.1-8.06-3.16-8.42-7.09l-2.8-30.21c-.29-3.13,2.34-5.86,5.85-6.06Z" style="fill:#fff; opacity:.6;"/><g style="opacity:.6;"><path d="M1372.43,877.41c-2-.03-3.23,1.53-2.75,3.47l3.89,15.52c.49,1.94,2.52,3.52,4.51,3.53l415.73,.66c2,0,3.61-1.63,3.59-3.62l-.09-9.54c-.02-2-1.67-3.65-3.66-3.68l-421.22-6.33Z" style="fill:#fff;"/></g><path d="M1331.51,1011.71c-.09,0-.17,0-.26,0l-45-.97c-6.01-.13-10.92-4.3-11.42-9.69l-3.5-37.81c-.18-2,.46-3.96,1.82-5.54,1.54-1.78,3.85-2.89,6.35-3.03h0c3.8-.21,9.14-.6,14.8-1.02,11.9-.87,26.72-1.95,35.03-1.95h0c5.62,0,10.43,3.43,11.69,8.35,2.21,8.59,1.81,24.93,1.15,42.34-.19,5.19-4.96,9.33-10.67,9.33Zm-51.91-55.23c-2.01,.11-3.86,.99-5.08,2.4-1.03,1.2-1.52,2.68-1.39,4.19l3.5,37.81c.41,4.48,4.56,7.94,9.65,8.05l45,.97c4.81,.11,8.92-3.29,9.08-7.58,.65-17.27,1.05-33.46-1.1-41.82-1.06-4.12-5.15-6.99-9.94-6.99h0c-8.25,0-23.02,1.08-34.9,1.95-5.67,.41-11.02,.81-14.84,1.02h0Z" style="fill:#fff;"/><path d="M1284.44,961.26c9.46-.53,30.03-2.37,39.78-2.37,4.13,0,7.72,2.54,8.65,6.13,1.8,6.98,1.38,20.84,.9,33.63-.14,3.83-3.7,6.85-8,6.75l-35.96-.78c-4.42-.1-8.06-3.16-8.42-7.09l-2.8-30.21c-.29-3.13,2.34-5.86,5.85-6.06Z" style="fill:#fff; opacity:.6;"/><g style="opacity:.6;"><path d="M1371.26,973.86c-2-.03-3.23,1.53-2.75,3.47l3.89,15.52c.49,1.94,2.52,3.52,4.51,3.53l415.73,.66c2,0,3.61-1.63,3.59-3.62l-.09-9.53c-.02-2-1.67-3.65-3.66-3.68l-421.22-6.33Z" style="fill:#fff;"/></g></g></g><path d="M1555.86,80.16c-22.6-16.13-42.43-16.06-56.43-12.11-12.77,3.6-21.17,15.79-20.12,29.02l5.23,65.75,71.53,7.22s44.13-58.24-.2-89.88Zm-32.13,52.61c-9.86-.12-17.76-8.21-17.64-18.07,.12-9.86,8.21-17.76,18.07-17.64,9.86,.12,17.76,8.21,17.64,18.07-.12,9.86-8.21,17.76-18.07,17.64Z" style="fill:url(#linear-gradient-5);"/><path d="M1492.04,134.46c-.47,0-.87-.36-.9-.84l-.83-10.47c-.04-.5,.33-.94,.83-.98,.49-.04,.94,.33,.98,.83l.83,10.47c.04,.5-.33,.94-.83,.98-.02,0-.05,0-.07,0Zm-1.63-20.52c-.47,0-.87-.36-.9-.83l-.63-7.95c-.97-12.22,6.84-23.48,18.58-26.79,8.44-2.38,17.12-2.63,25.79-.75,.49,.11,.8,.59,.69,1.08-.11,.49-.59,.8-1.08,.69-8.37-1.82-16.75-1.58-24.91,.72-10.9,3.08-18.16,13.55-17.26,24.9l.63,7.95c.04,.5-.33,.94-.83,.98-.02,0-.05,0-.07,0Z" style="fill:#fff;"/><path d="M1386.3,204.09l.4-33.02c.14-11.4,9.69-20.41,21.08-19.89l227.57,10.54c10.1,.47,18.19,8.54,18.67,18.64l1.52,31.75-269.24-8.03Z" style="fill:url(#linear-gradient-6);"/><path d="M1471.7,163.57h-.01l-9.79-.12c-.5,0-.9-.42-.9-.92,0-.5,.42-.92,.92-.9l9.79,.12c.5,0,.9,.42,.9,.92,0,.5-.41,.9-.91,.9Z" style="fill:#fff;"/><path d="M1398.77,193.04h-.01c-.5,0-.9-.42-.9-.92l.16-13.36c.06-4.78,1.97-9.25,5.4-12.59,3.42-3.34,7.93-5.14,12.72-5.09l36,.43c.5,0,.9,.42,.9,.92,0,.5-.41,.9-.91,.9h-.01l-36-.43c-.07,0-.13,0-.2,0-4.22,0-8.2,1.62-11.23,4.57-3.07,3-4.8,7.02-4.85,11.32l-.16,13.36c0,.5-.41,.9-.91,.9Z" style="fill:#fff;"/><path d="M1315.11,191.14l398.12,4.79c14.32,.17,26.43,10.62,28.7,24.76l.31,1.95c2.49,15.48-9.58,29.47-25.26,29.28l-408.45-4.92c-9.38-.11-16.77-8.05-16.2-17.42l1.1-18.27c.69-11.43,10.23-20.3,21.67-20.17Z" style="fill:url(#_7-4);"/><path d="M292.49,1045.48s-229.48-300.8-23.59-784.05c4.37-10.26,18.34-11.75,24.7-2.59,59.9,86.36,269.23,436.9-1.11,786.64Z" style="fill:url(#linear-gradient-7);"/><path d="M291.02,1006.04c-6.58-63.27-29.46-306.17-17.71-525.01,.11-2.03,3.11-2.03,3.21,0,5.25,100.01,22.28,437.26,17.7,524.93-.1,1.98-2.99,2.06-3.2,.09Z" style="fill:#fff; opacity:.5;"/><path d="M35.01,197.2C7.4,303.05-94.79,784.59,258.89,1017.3c6.88,4.53,15.8,.23,16.43-7.93,6.71-86.8,21.79-482.53-221.27-815.35-5.45-7.46-16.74-5.58-19.03,3.19Z" style="fill:url(#linear-gradient-8);"/><path d="M61.2,322.58c-.1-1.91-2.86-1.98-2.92-.08-2.71,87.14,5.99,357.53,188.8,650.02,0,0-167.13-297.7-185.88-649.94Z" style="fill:#fff; opacity:.5;"/><path d="M932.06,255.42S707.09,5.45,446.41,239.35l17.85-142.84s183.9-198.19,403.52-8.93c0,0,60.71,78.56,64.28,167.83Z" style="fill:url(#linear-gradient-9);"/><path d="M1099.19,1046.11c.35-.85,.21-1.81-.37-2.52-24.02-29.66-507.06-626.37-552.29-720.4-46.39-96.43-85.31-191.46-61.34-245.72,0,0-92.14,70.68-111.82,177.8-12.78,69.58-17.95,185.23,333.64,623.26,201.97,251.62,269.96,341.4,292.63,372.73,4.93,6.82,15.44,5.5,18.56-2.31l80.98-202.84Z" style="fill:url(#linear-gradient-10);"/><path d="M233.23,1082.12c-6.07-11.93-4.5-26.32,4.01-36.66,84.56-102.67,525.3-640.45,593.05-777.55,74.99-151.77,25.45-190.34,25.45-190.34,0,0,110.24,110,115.6,204.63,5.36,94.63-28.57,221.4-208.9,426.73-156.73,178.45-370.1,467.5-423.27,540.11-5.69,7.76-17.55,6.79-21.92-1.78l-84.01-165.13Z" style="fill:url(#_3-2);"/><g><path d="M1591.96,964.71c-4.93,5.26-12.19,9.81-17.29,12.64,7.63,9.43,17.95,18.87,31.61,28.11l3.91,8.77,12.53-15.02s-22.48-11.19-30.75-34.51Z" style="fill:url(#linear-gradient-11);"/><path d="M1626.37,1249.49c0-.27,.01-.54,.08-.81,4.06-16.09,24.2-26.11,24.2-26.11l7.98,.63c4.59,14.18,4,22.88,3.26,26.75-.02,.11-.05,.21-.08,.32-6.58,.59-20.13,.97-35.44-.77Z" style="fill:url(#linear-gradient-12);"/><path d="M1661.81,1250.26c-.36,1.29-1.31,2.3-2.53,2.56-9.36,1.97-24.25,.38-30.5-.43-1.38-.18-2.39-1.46-2.41-2.89,15.31,1.74,28.86,1.36,35.44,.77Z" style="fill:url(#linear-gradient-13);"/><path d="M1661.84,1211.31l-3.38,16.27c-.25,1.19-1.16,2.09-2.27,2.19-1.36,.13-3.29,.2-5.24-.08-1.74-.26-2.96-2.03-2.65-3.93l2.35-14.45h11.19Z" style="fill:url(#linear-gradient-14);"/><path d="M1591.81,1250.1c8.81-.25,13.37-1.28,15.73-2.25,0,.88,0,1.77-.03,2.69-.03,.99-.76,1.78-1.66,1.77l-48.39-.31c-1.54-.01-2.45-1.8-1.78-3.22,6.35,.52,22.51,1.7,36.13,1.32Z" style="fill:url(#linear-gradient-15);"/><path d="M1555.68,1248.78c.06-.12,.11-.25,.19-.36,4.27-5.97,15.16-17.86,36.67-23.02l10.32-.33s4.59,7.99,4.68,22.78c-2.36,.96-6.92,2-15.73,2.25-13.63,.38-29.79-.79-36.13-1.32Z" style="fill:url(#linear-gradient-16);"/><path d="M1604.77,1209.43c-.11,.77-1.53,12.46-2.08,16.99-.13,1.08-.91,1.91-1.89,2.03-1.76,.21-4.6,.4-7.09-.11-1.34-.28-2.31-1.56-2.31-3.06v-18.35l13.37,2.5Z" style="fill:url(#linear-gradient-17);"/><path d="M1613.05,996.1s-24.89,94.58-24.44,213.61c0,2.17,1.53,4.04,3.66,4.49,3.13,.66,7.73,1.44,11.54,1.33,2.03-.06,3.73-1.56,4.07-3.57,3.49-20.47,20.15-138.09,31.56-156.81,0,0,10.87,105.02,8.47,158.29-.06,1.32,.91,2.47,2.23,2.63,2,.23,5.19,.41,9.26-.03,1.54-.16,2.79-1.33,3.01-2.87,2.49-17.32,16.79-120.42,16.18-194.68-.03-4.19-11.08-22.4-11.08-22.4h-54.47Z" style="fill:url(#linear-gradient-18);"/><path d="M1694.94,861.78c-30.96-22.34-77.58-11.03-95.61-8.76-5.91,.74-11.32,3.66-15.22,8.17-15.45,17.88-49.36,66.84-9.45,116.17,5.11-2.83,12.36-7.38,17.29-12.64-4.42-12.45-4.78-28.35,4.48-47.86,.32,1.55,.71,3.08,1.18,4.58,12.75,40.4,13.43,74.03,13.41,81.78,0,1.05,.63,2,1.6,2.39,16.79,6.73,49.1,2.72,59.94,1.11,1.99-.3,3.33-2.15,3.05-4.14-5.32-38.57,22-102.01,29.21-117.9,.52-1.14-5.81-13.57-9.9-22.9Z" style="fill:url(#linear-gradient-19);"/><path d="M1657.37,821.31l3.82,28.49c.35,2.62-1.38,5.06-3.97,5.58-5.37,1.06-14.63,1.99-23.16-1.56-2.64-1.1-4.07-3.99-3.3-6.75l7.22-25.99,19.4,.24Z" style="fill:url(#linear-gradient-20);"/><g><path d="M1634.46,784.43c-.43,.44-17.57,37.28-17.57,37.28l21.24,9.34,21.43-32.51s-17.87-21.43-25.11-14.11Z" style="fill:url(#linear-gradient-21);"/><path d="M1650.36,799.75c.41,.95,.35,2.03-.15,2.93l-9.8,17.74c-.15,.27-.33,.51-.55,.73-1.2,1.2-5.32,4.71-8.76,.25-2.93-3.8-5.68-7.24-8.55-8.6-1.67-.79-3.67-.04-4.44,1.64-1.59,3.46-4.67,10.52-6.53,17.16-.46,1.67,.45,3.41,2.07,4,4.29,1.56,12.76,4.36,20.21,5.12,1.22,.12,2.41-.43,3.1-1.45,3.04-4.49,11.59-17.02,14.55-20.19,2.75-2.94,8.05-2.06,10.45-1.46,.91,.23,1.86,.07,2.65-.44,2.35-1.54,6.43-5.29,2.37-11.27-1.01-1.49-.59-3.53,.87-4.57,2.62-1.86,5.42-5.28,2.45-10.56-3.01-5.34-8.04-5.65-11.45-5.11-1.51,.24-3.07-.5-3.7-1.89-.28-.62-.81-1.13-1.77-1.29-1.81-.3-3.04-1.9-2.75-3.7,.49-3.1-.1-7.08-5.11-9.61-9.19-4.63-16.79,3.72-18.56,10.61-1.76,6.89,8.48,11.34,14.85,11.92,4.68,.42,7.41,5.41,8.53,8.03Z" style="fill:url(#linear-gradient-22);"/><path d="M1647.85,825.6s3.59-11.87,8.73-11.62c5.14,.25,9.36,5.21,3.21,11.18-7.65,7.43-11.95,.44-11.95,.44Z" style="fill:url(#linear-gradient-23);"/></g><path d="M1594.74,913.83c-6.77-18.51-4.31-40.87-4.29-41.09l1.86,.21c-.02,.22-2.43,22.15,4.18,40.24l-1.76,.64Z" style="fill:url(#linear-gradient-24);"/><g><path d="M1730.24,972.47c.44,12.89,.26,27.16-.76,42.96l-10.59,1.32s-4.37-19.25-11.21-41.73c10.5,1.08,18.02-.76,22.56-2.56Z" style="fill:url(#linear-gradient-25);"/><path d="M1677.84,909.5s2.65-37.07,17.21-47.67c0,0,32.19,23.15,35.19,110.63-4.54,1.8-12.06,3.65-22.56,2.56-7.73-25.42-18.6-54.98-29.84-65.52Z" style="fill:url(#linear-gradient-26);"/></g><path d="M1722.86,1011.46s-6.62,2.65-7.94,13.24c-1.32,10.59,6.62,18.54,13.24,17.21,6.62-1.32,13.72-21.19,1.56-30.45-12.16-9.27-6.86,0-6.86,0Z" style="fill:url(#linear-gradient-27);"/></g><g><path d="M1805.15,805.55s-2.01,4.03,11.1,10.32c7.31,3.51,21.54,8.7,23.42,23.85,.97,7.82,6.76,14.09,14.55,15.28,19.41,2.97,49.32,13.05,54.11,46.75,3.65,25.72-9.46,35.47-23.22,38.85-10.11,2.48-16.82,12.31-14.78,22.51,1.96,9.79-.96,21.1-17.92,30.05-38,20.05-75.94-47.5-75.94-47.5l-7.78-117.94,36.46-22.18Z" style="fill:url(#linear-gradient-28);"/><path d="M1880.38,925.47c-.42,0-.8-.14-1.04-.49-.04-.05-.02-.12,.03-.16,.05-.04,.12-.03,.16,.03,.56,.78,1.83,.25,2.5-.18,8.79-5.73,13.48-17.55,11.4-28.75-1.25-6.71-4.57-12.49-9.36-16.29-3.41-2.7-7.46-4.35-11.32-5.81-6.54-2.47-13.28-4.65-20.03-6.47-.55-.15-1.11-.3-1.67-.45-3.96-1.06-8.07-2.15-11.79-4.01-4.8-2.4-8.3-5.9-9.86-9.86-.97-2.45-1.24-5.15-1.51-7.77-.32-3.15-.66-6.41-2.22-9.17-.03-.05-.01-.12,.04-.15,.05-.03,.12-.01,.15,.04,1.59,2.8,1.92,6.08,2.25,9.26,.27,2.6,.54,5.28,1.5,7.71,1.54,3.9,5,7.36,9.75,9.74,3.7,1.85,7.79,2.94,11.74,3.99,.56,.15,1.11,.3,1.67,.45,6.75,1.82,13.5,4.01,20.05,6.48,3.88,1.47,7.95,3.12,11.38,5.84,4.83,3.83,8.19,9.66,9.44,16.42,2.1,11.29-2.63,23.2-11.49,28.98-.56,.36-1.21,.61-1.76,.61Z" style="fill:#fff;"/><path d="M1882.66,914.82s-.04,0-.06-.02c-.05-.03-.07-.1-.03-.16,3.39-5.07,5.16-10.39,5.11-15.39-.06-5.82-2.76-11.24-7.04-14.13-.05-.03-.07-.11-.03-.16,.03-.05,.1-.07,.16-.03,4.35,2.93,7.08,8.41,7.14,14.31,.05,5.04-1.73,10.4-5.15,15.51-.02,.03-.06,.05-.09,.05Z" style="fill:#fff;"/><path d="M1753.31,901.56s-21.19,60.91-27.81,115.2l6.62,6.62s21.19-68.85,37.07-88.71l-15.89-33.1Z" style="fill:url(#linear-gradient-29);"/><path d="M1893.23,1236.8l1.44,11.81c.27,2.24,2.04,4.01,4.28,4.27,3.79,.43,9.86,.88,15.8,.25,2.61-.28,4.3-2.92,3.51-5.42-1.45-4.56-4.1-11.4-7.92-15.43h-13.1c-2.42,0-4.3,2.12-4.01,4.52Z" style="fill:url(#linear-gradient-30);"/><path d="M1790.64,1098.48l-2.21,13s7.4,74.99,8.72,104.99c.21,4.7-1.01,9.35-3.48,13.36l-12.87,20.91,32.72-19.31,.65-3.99-5.36-7.36,7.02-84.01c.41-4.94-.61-9.88-2.93-14.26l-6.77-12.71-15.49-10.62Z" style="fill:url(#linear-gradient-31);"/><path d="M1778.65,1253.77h10.44c1.95,0,3.8-.9,4.99-2.45,3.26-4.23,10-12.48,13.22-12.7,4.34-.29,3.79,15.14,3.79,15.14h2.43l3.08-19.18c.78-4.82-1.62-9.6-5.96-11.87h0s-.99,7.34-6.37,10.58c-5.38,3.25-21.89,14.87-21.89,14.87,0,0-2.02-.29-4.24,.11-3.29,.6-2.83,5.47,.51,5.47Z" style="fill:url(#linear-gradient-32);"/><path d="M1835.45,1104.66s43.37,82.27,50.27,101.06c6.89,18.78,9.31,34.45,9.4,35.94,.14,2.32,3.03,4.54,10.98,4.54,4.1,0,6.11-1.64,7.1-3.24,.84-1.36,.88-3.06,.18-4.49-2.51-5.08-10.47-21.3-13.42-28.66-3.52-8.79-11.09-48.61-15.25-62.45-4.15-13.84-8.85-28.86-26.93-42.7,0,0-12.42-12.16-22.32,0Z" style="fill:url(#linear-gradient-33);"/><path d="M1808.06,969.85c-11.19-47.41,17.15-74.22,17.15-74.22-17.88-17.17-50.47-24.98-50.47-24.98,0,0-31.09,22.73-27.4,40.52,2.16,10.43,21.85,62.46,21.85,62.46,0,0,18.21,8.62,38.86-3.79Z" style="fill:url(#linear-gradient-34);"/><path d="M1832.86,993.32c-4.55-13.72-24.81-23.47-24.81-23.47-20.65,12.4-38.86,3.79-38.86,3.79,0,0-4.08,15.61-1.26,30.12,2.82,14.51,20.5,107.73,20.5,107.73,27.86,5.65,70.72-5.68,70.72-5.68-17.75-31.51-21.73-98.77-26.29-112.48Z" style="fill:url(#linear-gradient-35);"/><path d="M1795.07,839.33l9.1,40.86c.87,3.6-2.41,3.01-6.05,2.32-5.96-1.12-13.64-3.44-16.21-8.07-.26-.47-.39-1.01-.47-1.54l-3.91-28.33c-.31-2.25,.91-4.43,2.98-5.35l7.54-3.34c2.9-1.29,6.26,.37,7.01,3.46Z" style="fill:url(#linear-gradient-36);"/><g><path d="M1777.65,802.08s-9.68,6.56-13.84,23.25c-4.16,16.69,2.6,22.68,9.53,22.31,6.93-.37,16.98-2.51,25.69-14.49,8.71-11.98-8.69-39.09-21.38-31.08Z" style="fill:url(#linear-gradient-37);"/><path d="M1790.24,826.42s3.55-23.92-16.31-20.26l-4.02,4.18s-9.72-10.95,1.04-19.22c10.76-8.28,25.69-6.16,33.94,8.91,8.26,15.07,11.26,25.65,4.33,35.01-6.92,9.36-12.13,1.33-12.13,1.33,0,0,3.17-8.1,.54-11.58-2.63-3.48-6.03,2.02-6.03,2.02l-1.37-.39Z" style="fill:url(#linear-gradient-38);"/><path d="M1791.19,829.36s1.75-12.31,8.04-8.79c6.29,3.52-2.27,11.5-5.69,14.21l-2.34-5.42Z" style="fill:url(#linear-gradient-39);"/></g><path d="M1825.21,895.63s50.36,103.39,68.59,112.43c0,0,18.52,1.93,29.85,5.36,2.85,.86,2.76,4.91-.12,5.69-7.89,2.15-20.97,3.95-32.95-2.55,0,0,6.44,9.65,2.68,13.41,0,0-8.58-10.19-11.8-13.41-2.83-2.83-54.4-59.05-76.08-92.96-1.75-2.74-.54-10.88,.68-13.9,2.8-6.94,9.01-18.02,19.14-14.08Z" style="fill:url(#linear-gradient-40);"/></g><g><path d="M652.92,998.55l-.12-70.39h-64.08l.12,66.15c0,35.46-11.41,69.98-32.53,98.47l-84.41,113.8c-4.41,5.95-6.79,13.15-6.79,20.55v.05c0,19.05,15.45,34.5,34.5,34.5h243.24c19.05,0,34.5-15.45,34.5-34.5h0c0-7.43-2.4-14.67-6.85-20.63l-87.46-117.26c-19.55-26.21-30.11-58.03-30.11-90.73Z" style="fill:url(#linear-gradient-41);"/><path d="M499.6,1253.05c-14.27,0-25.88-11.61-25.88-25.88,0-5.56,1.81-11.04,5.09-15.47l84.41-113.8c22.07-29.76,34.23-66.55,34.23-103.6l-.1-57.52h46.83l.1,61.78c0,34.31,11.3,68.36,31.82,95.87l87.46,117.26c3.31,4.44,5.13,9.93,5.13,15.47,0,14.27-11.61,25.88-25.88,25.88h-243.24Z" style="fill:#fff; opacity:.49;"/><path d="M654.72,940.81h-67.8c-5.48,0-9.92-4.44-9.92-9.92h0c0-5.27,4.12-9.62,9.39-9.9l67.8-3.65c5.68-.31,10.45,4.22,10.45,9.9v3.65c0,5.48-4.44,9.92-9.92,9.92Z" style="fill:url(#linear-gradient-42);"/><path d="M478.82,1211.71c-3.28,4.43-5.09,9.9-5.09,15.47,0,14.27,11.61,25.88,25.88,25.88h243.24c14.27,0,25.88-11.61,25.88-25.88,0-5.54-1.82-11.03-5.13-15.47l-39.06-52.37h-206.86l-38.85,52.37Z" style="fill:url(#linear-gradient-43);"/></g><g><path d="M806.83,1261.66h0c-13.49,0-24.43-10.94-24.43-24.43v-174.83h54.2l-5.34,174.83c0,13.49-10.94,24.43-24.43,24.43Z" style="fill:url(#linear-gradient-44);"/><path d="M806.83,1255.93c-10.31,0-18.7-8.39-18.7-18.7v-174.83h42.57l-5.17,174.74v.09c0,10.31-8.39,18.7-18.7,18.7Z" style="fill:#fff; opacity:.49;"/><path d="M836.59,1066.6h-54.93c-4.44,0-8.04-3.6-8.04-8.04h0c0-4.27,3.34-7.79,7.6-8.02l54.93-2.95c4.6-.25,8.47,3.42,8.47,8.02v2.95c0,4.44-3.6,8.04-8.04,8.04Z" style="fill:url(#linear-gradient-45);"/><path d="M788.13,1142.18v95.05c0,10.31,8.39,18.7,18.7,18.7s18.7-8.39,18.7-18.7v-.09l2.81-94.96h-40.22Z" style="fill:url(#linear-gradient-46);"/></g><g><path d="M732.35,1263.4h0c-13.49,0-24.43-10.94-24.43-24.43v-174.83h54.2l-5.34,174.83c0,13.49-10.94,24.43-24.43,24.43Z" style="fill:url(#linear-gradient-47);"/><path d="M732.35,1257.68c-10.31,0-18.7-8.39-18.7-18.7v-174.83h42.57l-5.17,174.74v.09c0,10.31-8.39,18.7-18.7,18.7Z" style="fill:#fff; opacity:.49;"/><path d="M762.1,1068.34h-54.93c-4.44,0-8.04-3.6-8.04-8.04h0c0-4.27,3.34-7.79,7.6-8.02l54.93-2.95c4.6-.25,8.47,3.42,8.47,8.02v2.95c0,4.44-3.6,8.04-8.04,8.04Z" style="fill:url(#linear-gradient-48);"/><path d="M713.64,1143.92v95.05c0,10.31,8.39,18.7,18.7,18.7s18.7-8.39,18.7-18.7v-.09l2.81-94.96h-40.22Z" style="fill:url(#linear-gradient-49);"/></g><path d="M506.48,1263.28c-138.28,19.15-281.18,19.36-429.17-1.39-18.03-2.53-29.73-20.35-24.83-37.89l8.27-29.57c2.58-9.23,10.66-15.88,20.22-16.61,145.41-11.1,287.46-16.06,419.88-3.46,8.93,.85,16.67,6.52,20.11,14.8l11.79,28.41c8.36,20.16-4.64,42.71-26.26,45.71Z" style="fill:url(#linear-gradient-50);"/><path d="M292.92,673.72l39.92,200.54c.51,2.55,2.48,4.55,5.02,5.08,5.86,1.22,17.13,2.02,29.61-5.26,2.41-1.4,3.68-4.16,3.14-6.89l-39.84-201.99-37.85,8.52Z" style="fill:url(#linear-gradient-51);"/><path d="M255.89,543.08l61.82,310.54c.79,3.95,3.84,7.05,7.78,7.87,9.08,1.89,26.53,3.13,45.85-8.14,3.73-2.17,5.7-6.44,4.86-10.67l-61.7-312.79-58.62,13.19Z" style="fill:url(#linear-gradient-52);"/><path d="M229,468.66l73.46,359.34c1.06,5.32,5.17,9.5,10.48,10.61,12.24,2.55,35.75,4.21,61.81-10.97,5.02-2.93,7.68-8.68,6.56-14.38l-73.29-362.37-79.01,17.78Z" style="fill:url(#linear-gradient-53);"/><path d="M222,467.51l2.36,4.25c1.58,2.85,4.84,4.35,8.03,3.69l75.57-15.46c3.48-.71,5.98-3.77,5.98-7.32v-6.29c0-4.79-4.44-8.34-9.11-7.29l-77.93,17.49c-4.87,1.09-7.32,6.56-4.9,10.92Z" style="fill:url(#linear-gradient-54);"/><path d="M243.76,533.16l79.13-16.03,6.1,.51c2.9,.24,5.45,2.03,6.67,4.68h0c0,3.57-1.46,6.99-4.03,9.47l-4.92,4.73-79.1,16.02-10.39-3.99c-1.48-.57-2.7-1.67-3.41-3.09h0c-1.58-3.16-.33-7,2.81-8.62l7.13-3.68Z" style="fill:url(#linear-gradient-55);"/><path d="M251.72,688.91l-10.48-89.12c-.77-6.54,3.67-12.56,10.14-13.76l83.96-15.55c6.17-1.14,12.08,2.97,13.16,9.14l31.61,180.39s-51.36,21.73-116.54,21.73c0,0-11.85-25.68-29.63-23.7-17.78,1.98-73.09,25.68-63.21,136.3,9.88,110.62,88.89,96.79,88.89,96.79l33.58,152.1s-170.89-29.71-187.66-219.26c-10.35-117.01,61.42-191.68,89.66-216.26,6.61-5.75,14.58-9.69,23.14-11.55l33.37-7.26Z" style="fill:url(#linear-gradient-56);"/><path d="M169.68,1173.05l30.49-114.69c4.19-15.76,18.46-26.74,34.77-26.74h17.96c16.18,0,30.29,10.99,34.26,26.67l29.05,114.89c1.86,7.35-3.7,14.49-11.28,14.49h-123.99c-7.64,0-13.21-7.24-11.25-14.63Z" style="fill:url(#linear-gradient-57);"/><circle cx="246.78" cy="1079.03" r="25.68" transform="translate(-75.87 20.21) rotate(-4.07)" style="fill:url(#linear-gradient-58);"/><path d="M492.61,978.29c-23.07-18.84-67.44-31.61-118.42-31.61s-95.35,12.76-118.42,31.61h-16.89v29.63c0,33.82,60.58,61.24,135.31,61.24s135.31-27.42,135.31-61.24v-29.63h-16.89Z" style="fill:url(#linear-gradient-59);"/><ellipse cx="374.19" cy="978.29" rx="135.31" ry="61.24" style="fill:url(#linear-gradient-60);"/><ellipse cx="374.19" cy="977.3" rx="113.58" ry="46.42" style="fill:url(#linear-gradient-61);"/><path d="M374.19,938.78c59.47,0,108.23,18.68,113.14,42.47,.27-1.3,.44-2.62,.44-3.95,0-25.64-50.85-46.42-113.58-46.42s-113.58,20.78-113.58,46.42c0,1.33,.17,2.65,.44,3.95,4.91-23.79,53.67-42.47,113.14-42.47Z" style="fill:url(#linear-gradient-62);"/><ellipse cx="254.68" cy="661.25" rx="48.4" ry="45.43" style="fill:url(#linear-gradient-63);"/><circle cx="254.68" cy="664.21" r="32.59" transform="translate(-395.08 374.63) rotate(-45)" style="fill:url(#linear-gradient-64);"/><path d="M427.67,1214.27c-.43,0-.81-.3-.89-.74-.09-.49,.23-.96,.73-1.05,7.79-1.43,15.55-3.03,23.06-4.74,.49-.11,.97,.19,1.08,.68,.11,.49-.19,.97-.68,1.08-7.53,1.72-15.31,3.32-23.13,4.76-.06,.01-.11,.02-.16,.02Z" style="fill:#fff;"/><path d="M300.48,1225.01c-45.62,0-87.33-3.57-119.61-7.55-60.55-7.46-101.86-17.89-102.27-17.99-.48-.12-.77-.61-.65-1.1,.12-.48,.61-.77,1.1-.65,.41,.1,41.62,10.51,102.07,17.95,55.78,6.87,139.8,12.54,223.33,.57,.49-.07,.95,.27,1.02,.77,.07,.49-.27,.95-.77,1.02-35.38,5.07-70.85,6.98-104.22,6.98Z" style="fill:#fff;"/><path d="M364.99,744.27c-.43,0-.82-.31-.89-.75l-2.41-14.37c-.08-.49,.25-.96,.74-1.04,.49-.08,.96,.25,1.04,.74l2.41,14.37c.08,.49-.25,.96-.74,1.04-.05,0-.1,.01-.15,.01Z" style="fill:#fff;"/><path d="M358.62,706.35c-.43,0-.82-.31-.89-.75l-20.28-120.76c-.43-2.53-2.76-4.25-5.3-3.9l-8.37,1.14c-.5,.07-.95-.28-1.02-.77-.07-.49,.28-.95,.77-1.02l8.37-1.14c3.51-.48,6.74,1.89,7.33,5.39l20.28,120.76c.08,.49-.25,.96-.74,1.04-.05,0-.1,.01-.15,.01Z" style="fill:#fff;"/><g><g><circle cx="1206.31" cy="495.44" r="23.06" transform="translate(53.95 1105.94) rotate(-50.24)" style="fill:url(#linear-gradient-65);"/><path d="M1185.91,485.61c-.91,15.92-40.45,31.87-69.35,41.22l1.2,13.12c35.18-12.93,67.56-28.88,85.36-21.67l-17.22-32.66Z" style="fill:url(#linear-gradient-66);"/></g><g><circle cx="732.46" cy="641.37" r="23.06" transform="translate(-241 626.53) rotate(-40.33)" style="fill:url(#linear-gradient-67);"/><path d="M746.09,659.45c8.1-13.73,50.56-9.8,80.52-4.86l4.94-12.21c-37.19-4.62-73.28-5.28-85.81-19.84l.34,36.92Z" style="fill:url(#linear-gradient-68);"/></g><g><circle cx="1234.62" cy="791.9" r="23.06" transform="translate(314.23 1933.95) rotate(-83.81)" style="fill:url(#linear-gradient-69);"/><path d="M1231.53,769.47c-13.77,8.04-48.92-16.08-72.69-34.99l-10.27,8.26c30.22,22.16,61.42,40.32,65.26,59.14l17.69-32.41Z" style="fill:url(#linear-gradient-70);"/></g><circle cx="990.74" cy="671.68" r="213.04" style="fill:url(#linear-gradient-71);"/><circle cx="907.27" cy="648.6" r="23.06" transform="translate(67.57 1382.58) rotate(-76.72)" style="fill:url(#linear-gradient-72);"/><circle cx="1026.13" cy="676.48" r="23.06" transform="translate(-177.8 923.72) rotate(-45)" style="fill:url(#linear-gradient-73);"/><circle cx="968.49" cy="526.72" r="23.06" style="fill:url(#linear-gradient-74);"/><circle cx="1123.31" cy="578.33" r="23.06" transform="translate(-79.93 963.69) rotate(-45)" style="fill:url(#linear-gradient-75);"/><circle cx="1049.47" cy="774.72" r="23.06" transform="translate(-240.43 969) rotate(-45)" style="fill:url(#linear-gradient-76);"/><circle cx="889.7" cy="774.72" r="23.06" transform="translate(-287.22 856.02) rotate(-45)" style="fill:url(#linear-gradient-77);"/><g><circle cx="969.53" cy="384.71" r="23.06" transform="translate(-63.14 531.62) rotate(-29.74)" style="fill:url(#linear-gradient-78);"/><path d="M953.18,400.37c14.59,6.43,15.69,49.05,14.32,79.39l12.71,3.47c.21-37.48-3.39-73.39,9.6-87.55l-36.63,4.69Z" style="fill:url(#linear-gradient-79);"/></g><g><circle cx="761.45" cy="525.68" r="23.06" transform="translate(87.61 1159.77) rotate(-77.88)" style="fill:url(#linear-gradient-80);"/><path d="M767.31,547.55c12.66-9.69,50.54,9.88,76.47,25.7l1.16-1.2c4.04-4.17,2.97-11.06-2.15-13.8-29.18-15.67-56.44-28.73-61.95-45.05l-13.54,34.35Z" style="fill:url(#linear-gradient-81);"/></g><g><ellipse cx="894.77" cy="563.82" rx="23.06" ry="18.8" transform="translate(-156.26 681.5) rotate(-38.6)" style="fill:url(#linear-gradient-82);"/><path d="M895.55,583.46c13.52-8.33,43.89,10.02,64.17,24.74l1.31-1.04c4.54-3.62,5-9.78,.92-12.36-23.26-14.67-45.33-26.97-46.95-41.64l-19.44,30.3Z" style="fill:url(#linear-gradient-83);"/></g><g><ellipse cx="797.65" cy="685.9" rx="23.06" ry="19.87" transform="translate(1.71 1373.78) rotate(-81.53)" style="fill:url(#linear-gradient-84);"/><path d="M810.15,699.54c3.95-15.35,33.85-23.31,55.21-26.87l.25-1.66c.86-5.74-2.35-10.47-6.42-9.48-23.25,5.66-44.39,12.19-53.76,2.82l4.72,35.18Z" style="fill:url(#linear-gradient-85);"/></g><g><circle cx="746.91" cy="785.92" r="23.06" transform="translate(-46.86 1524.48) rotate(-89.39)" style="fill:url(#linear-gradient-86);"/><path d="M768.45,792.88c-1.18-14.97,31.56-34.62,58.22-47.87,2.85-1.42,4.36-4.6,3.64-7.71l-.84-3.61c-.46-1.97-2.67-2.96-4.45-2-31.68,17.11-60.13,35.72-78.08,31.17l21.5,30.02Z" style="fill:url(#linear-gradient-87);"/></g><g><path d="M938.21,770.41c6.28-8.14,18.44-9.29,27.17-2.56,8.73,6.73,10.72,18.78,4.44,26.93-6.28,8.14-18.44,9.29-27.17,2.56-8.73-6.73-10.72-18.78-4.44-26.93Z" style="fill:url(#linear-gradient-88);"/><path d="M969.95,778.43c-9.33-8.94-3.62-33.01,2.64-50.89,.67-1.91-.39-4.45-2.58-6.13l-2.54-1.96c-1.39-1.07-3.12-.9-3.5,.35-6.64,22.09-10.71,43.97-22.76,47.58l28.74,11.05Z" style="fill:url(#linear-gradient-89);"/></g><g><circle cx="1011.79" cy="953.89" r="23.06" transform="translate(-264.09 400.94) rotate(-19.88)" style="fill:url(#linear-gradient-90);"/><path d="M1027.98,938.06c-13.59-5.82-15.9-42.87-15.32-72.43,.08-4-2.6-7.54-6.47-8.55h0c-3.07-.8-6.08,1.54-6.03,4.72,.51,35.14,3.36,67.85-8.76,81.33l36.58-5.07Z" style="fill:url(#linear-gradient-91);"/></g><g><circle cx="851.57" cy="435.58" r="23.06" transform="translate(-20.41 828.72) rotate(-51.36)" style="fill:url(#linear-gradient-92);"/><path d="M842.15,456.17c15.44,.58,31.62,37.43,41.62,65.84,.55,1.58,2.12,2.56,3.78,2.37h0c5.17-.58,8.37-5.93,6.41-10.76-12.65-31.12-25.72-59.03-19.5-75.31l-32.32,17.85Z" style="fill:url(#linear-gradient-93);"/></g><g><circle cx="1268.95" cy="641.37" r="23.06" transform="translate(53.73 1379.49) rotate(-58.09)" style="fill:url(#linear-gradient-94);"/><path d="M1255.28,623.32c-7.66,13.03-46.23,10.25-75.76,5.78-2.79-.42-5.51,1.13-6.56,3.75h0c-1.57,3.9,1.02,8.23,5.2,8.69,34.15,3.75,65.92,5.26,77.54,18.71l-.42-36.92Z" style="fill:url(#linear-gradient-95);"/></g><g><ellipse cx="1165.27" cy="678.65" rx="23.06" ry="19.22" transform="translate(100.87 1506.58) rotate(-68.09)" style="fill:url(#linear-gradient-96);"/><path d="M1154.61,661.8c-7.31,13.17-40.19,12.68-65.23,10.01-2.37-.25-4.78,1.42-5.84,4.04h0c-1.57,3.9,.4,7.98,3.95,8.19,29.04,1.69,56.17,1.33,65.35,13.8l1.77-36.04Z" style="fill:url(#linear-gradient-97);"/></g><g><ellipse cx="1045.9" cy="551.44" rx="19.99" ry="23.06" transform="translate(-50.9 993.05) rotate(-49.73)" style="fill:url(#linear-gradient-98);"/><path d="M1028.36,554.11c10.5,10.73,4.68,35.87-1.79,54.13-.61,1.73,.48,4.23,2.63,6.06h0c3.21,2.72,7.15,2.78,7.92,.12,6.26-21.72,10.38-42.76,22.96-45.01l-31.72-15.31Z" style="fill:url(#linear-gradient-99);"/></g><g><circle cx="1146.64" cy="893.08" r="23.06" transform="translate(-278.8 1176.78) rotate(-49.17)" style="fill:url(#linear-gradient-100);"/><path d="M1149.3,870.6c-13.44,3.77-38.62-25.8-56.91-49.53-3.7-4.81-10.96-4.77-14.61,.08h0c-1.18,1.56-1.14,3.73,.11,5.24,23.04,27.99,47.12,52.5,46.12,71.11l25.3-26.9Z" style="fill:url(#linear-gradient-101);"/></g><g><circle cx="1098.42" cy="405.75" r="23.06" style="fill:url(#linear-gradient-102);"/><path d="M1076.16,409.85c8.66,13.39-13.84,49.6-31.65,74.2l8.72,9.88c20.76-31.2,37.49-63.19,56.12-67.88l-33.18-16.2Z" style="fill:url(#linear-gradient-103);"/></g><g><circle cx="884.93" cy="916.93" r="23.06" style="fill:url(#linear-gradient-104);"/><path d="M906.92,911.56c-8.71-11.92,8.12-44.9,23.65-70.03,2.14-3.46,1.63-7.94-1.23-10.84h0c-2.19-2.22-5.9-1.74-7.45,.97-17.49,30.53-31.71,60.19-49.03,65.63l34.05,14.27Z" style="fill:url(#linear-gradient-105);"/></g></g><g><path d="M949.7,676.07h-19.05v-44.89h-25.14v44.89h-19.05v-102.39h19.05v40.69h25.14v-40.69h19.05v102.39Z" style="fill:url(#linear-gradient-106);"/><path d="M1023.59,605.2c0,10.88-2.74,19.22-8.23,25.04-5.49,5.81-13.41,8.72-23.78,8.72h-4.76v37.12h-19.05v-102.39h25.98c19.89,0,29.84,10.51,29.84,31.52Zm-36.77,17.23h3.64c4.67,0,8.15-1.28,10.44-3.85,2.29-2.57,3.43-6.77,3.43-12.61,0-5.37-1.05-9.35-3.15-11.94-2.1-2.59-5.35-3.89-9.73-3.89h-4.62v32.29Z" style="fill:url(#linear-gradient-107);"/><path d="M1080.53,573.68h19.19l-24.09,102.39h-24.23l-23.95-102.39h19.19l13.38,62.54c1.21,5.32,2.4,12.96,3.57,22.9,.98-8.45,2.22-16.08,3.71-22.9l13.24-62.54Z" style="fill:url(#linear-gradient-108);"/><path d="M918.45,719.09h11.84l-14.86,63.16h-14.95l-14.77-63.16h11.84l8.25,38.58c.75,3.28,1.48,7.99,2.2,14.13,.6-5.21,1.37-9.92,2.29-14.13l8.17-38.58Z" style="fill:url(#linear-gradient-109);"/><path d="M937.98,782.25v-63.16h11.06v63.16h-11.06Z" style="fill:url(#linear-gradient-110);"/><path d="M974.14,757.67v24.58h-11.75v-63.16h15.38c6.51,0,11.31,1.54,14.41,4.62,3.1,3.08,4.64,7.79,4.64,14.13,0,7.98-2.69,13.55-8.08,16.72l12.14,27.69h-12.57l-9.98-24.58h-4.19Zm0-10.11h3.02c2.76,0,4.75-.78,5.96-2.35,1.21-1.57,1.81-3.91,1.81-7.02s-.64-5.52-1.92-6.89c-1.28-1.37-3.26-2.05-5.94-2.05h-2.94v18.32Z" style="fill:url(#linear-gradient-111);"/><path d="M1045.46,719.09v40.87c0,7.52-1.7,13.26-5.1,17.22-3.4,3.96-8.31,5.94-14.73,5.94s-11.06-1.97-14.34-5.9c-3.28-3.93-4.92-9.74-4.92-17.43v-40.7h11.66v41.56c0,8.04,2.66,12.05,7.99,12.05,2.48,0,4.39-1.02,5.75-3.07,1.35-2.04,2.03-4.95,2.03-8.73v-41.82h11.66Z" style="fill:url(#linear-gradient-112);"/><path d="M1085.12,764.84c0,5.9-1.49,10.43-4.47,13.57-2.98,3.14-7.28,4.71-12.9,4.71s-10.18-1.08-14.04-3.24v-11.62c4.72,3.08,9.06,4.62,13,4.62,2.25,0,3.94-.62,5.08-1.86,1.14-1.24,1.71-2.92,1.71-5.05s-.68-4.03-2.03-5.77c-1.35-1.74-3.59-3.68-6.7-5.81-2.71-1.87-4.76-3.66-6.16-5.38-1.4-1.71-2.48-3.64-3.24-5.77-.76-2.13-1.14-4.61-1.14-7.43,0-5.41,1.5-9.71,4.51-12.87,3.01-3.17,7.05-4.75,12.12-4.75s9.49,1.35,13.95,4.06l-3.89,9.42c-1.38-.81-2.83-1.53-4.34-2.16-1.51-.63-3.13-.95-4.86-.95-1.9,0-3.36,.63-4.39,1.88-1.02,1.25-1.53,2.96-1.53,5.12s.61,3.99,1.84,5.57c1.22,1.58,3.36,3.38,6.42,5.4,4.12,2.76,6.99,5.59,8.62,8.47,1.63,2.88,2.44,6.16,2.44,9.85Z" style="fill:url(#linear-gradient-113);"/></g></svg>