<?xml version="1.0" encoding="UTF-8"?><svg id="_Ñëîé_1" xmlns="http://www.w3.org/2000/svg" xmlns:xlink="http://www.w3.org/1999/xlink" viewBox="0 0 1121.17 228.53"><defs><clipPath id="clippath"><rect x="240.59" y="14.26" width="640" height="200" style="fill:none;"/></clipPath><radialGradient id="radial-gradient" cx="560.59" cy="114.26" fx="560.59" fy="114.26" r="471.37" gradientTransform="translate(0 228.53) scale(1 -1)" gradientUnits="userSpaceOnUse"><stop offset="0" stop-color="#fff"/><stop offset=".3" stop-color="#fff"/><stop offset=".45" stop-color="#fbfbfb"/><stop offset=".57" stop-color="#f1f1f1"/><stop offset=".68" stop-color="#e0e0e0"/><stop offset=".78" stop-color="#c9c9c9"/><stop offset=".88" stop-color="#aaa"/><stop offset=".98" stop-color="#858585"/><stop offset="1" stop-color="#7b7b7b"/></radialGradient></defs><g style="clip-path:url(#clippath);"><rect x="240.59" y="14.26" width="640" height="200" style="fill:url(#radial-gradient);"/><g><g style="opacity:.4;"><path d="M826.01,23.75c1.05,.62,2.4,.26,3.02-.8,.14-.25,.23-.52,.27-.79l10.09,.96c-.06,1.12,.49,2.23,1.52,2.83,.29,.18,.59,.29,.89,.35l-1.94,10.97c-1.01-.14-2.05,.33-2.59,1.27-.27,.46-.37,.96-.35,1.45l.02,.22c.11,.76,.55,1.47,1.27,1.89,.94,.54,2.08,.43,2.89-.19l.16-.14c.19-.18,.36-.38,.49-.61,.73-1.24,.3-2.84-.93-3.56-.24-.14-.49-.23-.74-.29l1.95-10.97c.92,.13,1.86-.17,2.54-.82l.15-.16c.14-.15,.27-.32,.38-.51,.5-.86,.52-1.87,.17-2.72l4.45-2.05c.18,.33,.44,.63,.79,.83,.99,.58,2.27,.24,2.85-.75,.58-.99,.24-2.27-.75-2.85-1-.57-2.27-.24-2.86,.76-.33,.58-.36,1.23-.13,1.81l-4.45,2.05c-.26-.51-.67-.96-1.2-1.26-.86-.51-1.87-.54-2.72-.17l-.2,.09c-.51,.26-.95,.66-1.26,1.19-.21,.37-.34,.76-.4,1.14l-10.09-.96c.04-.79-.36-1.58-1.09-2.02-1.06-.61-2.41-.25-3.02,.81-.62,1.05-.26,2.41,.8,3.02Z" style="fill:#7b7b7b;"/><path d="M986.61,109.56c-.4-1.51-1.95-2.41-3.46-2.01-.36,.09-.69,.26-.96,.47l-8.26-10c1.07-.95,1.57-2.46,1.19-3.94-.11-.41-.28-.79-.5-1.12l11.68-8.16c.79,1.05,2.16,1.56,3.49,1.2,.66-.17,1.2-.53,1.63-1l.18-.22c.59-.79,.83-1.83,.57-2.86-.36-1.34-1.49-2.28-2.79-2.45l-.28-.03c-.33-.01-.67,.02-1,.11-1.78,.47-2.84,2.29-2.37,4.07,.09,.34,.23,.66,.41,.93l-11.69,8.16c-.71-.95-1.85-1.54-3.05-1.56h-.29c-.26,.02-.53,.06-.8,.12-1.23,.33-2.16,1.21-2.62,2.3l-5.89-2.17c.14-.47,.17-.97,.03-1.47-.38-1.42-1.85-2.28-3.26-1.9-1.43,.38-2.28,1.83-1.91,3.27,.38,1.42,1.84,2.27,3.28,1.89,.82-.22,1.43-.8,1.76-1.52l5.89,2.17c-.23,.7-.27,1.47-.07,2.23,.32,1.23,1.2,2.18,2.31,2.62l.26,.1c.69,.22,1.45,.27,2.21,.06,.52-.14,.99-.36,1.39-.67l8.26,10c-.75,.68-1.11,1.76-.84,2.82,.41,1.51,1.95,2.4,3.47,2,1.51-.39,2.41-1.94,2.01-3.46Z" style="fill:#7b7b7b;"/><path d="M837.01,196.16c-.41-.1-.82-.09-1.2,0l-1.9-6.35c1.3-.43,2.36-1.5,2.7-2.93,.13-.55,.14-1.11,.05-1.63l-.05-.26c-.26-1.07-.95-2-1.92-2.57l1.47-2.71c.06,.04,.14,.06,.21,.08,.75,.18,1.49-.28,1.67-1.02,.17-.74-.29-1.49-1.03-1.67-.75-.17-1.49,.29-1.66,1.03-.14,.58,.11,1.15,.58,1.47l-1.47,2.71c-.27-.13-.55-.25-.85-.31-.98-.24-1.95-.09-2.79,.33l-.23,.12c-.62,.38-1.15,.92-1.51,1.58l-6.71-3.32c.08-.17,.14-.35,.19-.54,.39-1.66-.64-3.32-2.3-3.71-1.14-.27-2.29,.13-3.01,.95l-.08,.11c-.29,.35-.5,.76-.61,1.23-.19,.83-.04,1.66,.38,2.33l.07,.11c.42,.62,1.06,1.09,1.85,1.27,1.38,.33,2.76-.33,3.4-1.51l6.71,3.32c-.11,.24-.19,.48-.25,.74-.25,1.08-.05,2.16,.48,3.05l.14,.21c.55,.79,1.38,1.39,2.39,1.64,.66,.15,1.32,.13,1.94-.02l1.89,6.36c-.8,.28-1.44,.94-1.65,1.83-.34,1.38,.52,2.77,1.91,3.09,1.38,.33,2.77-.53,3.1-1.91,.32-1.39-.53-2.77-1.92-3.1Z" style="fill:#7b7b7b;"/><path d="M852.73,190.85c.43-.27,.73-.69,.85-1.16l9.96,1.98c-.12,.73-.01,1.49,.35,2.19l-1.53,.83s0,0,0-.01c-.31-.49-.95-.65-1.46-.34-.5,.31-.65,.96-.33,1.46,.3,.5,.95,.65,1.44,.34,.47-.28,.62-.87,.39-1.35l1.54-.82s.04,.09,.07,.13c.6,.97,1.61,1.54,2.66,1.64h.21c.66,.03,1.33-.14,1.93-.5,.11-.06,.21-.14,.31-.22l4.34,5.21c-.68,.63-.85,1.68-.34,2.5,.58,.93,1.8,1.22,2.73,.64,.93-.57,1.22-1.79,.65-2.73-.58-.94-1.8-1.22-2.73-.65-.05,.04-.1,.07-.14,.1l-4.33-5.2c.59-.54,.98-1.24,1.11-1.99l.04-.22c.09-.76-.07-1.54-.5-2.24-.55-.9-1.46-1.46-2.44-1.61l.91-7.21c.35,.03,.71-.05,1.04-.25,.83-.51,1.09-1.6,.58-2.43-.51-.83-1.6-1.08-2.43-.58-.83,.51-1.09,1.6-.58,2.43,.27,.44,.7,.72,1.17,.8l-.9,7.2c-.73-.07-1.48,.1-2.15,.5-.82,.51-1.36,1.31-1.56,2.19l-9.97-1.99c.07-.43-.02-.88-.26-1.28-.57-.91-1.75-1.19-2.65-.63-.91,.55-1.19,1.75-.63,2.65,.56,.9,1.75,1.19,2.66,.63Z" style="fill:#7b7b7b;"/><path d="M802.91,52.72c-.22,.96-.04,1.93,.41,2.73l-16.23,10.85c-.83-1.15-2-2.04-3.44-2.5l.96-3.19s0,.02,.02,0c1.08,.26,2.17-.42,2.43-1.51,.26-1.1-.42-2.18-1.51-2.43-1.09-.26-2.18,.41-2.43,1.5-.25,1.01,.34,2.03,1.29,2.37l-.97,3.2c-.08-.03-.18-.07-.27-.09-2.13-.5-4.27,.08-5.83,1.39l-.32,.27c-.91,.87-1.59,2.01-1.91,3.32-.05,.24-.1,.48-.12,.72l-12.96-1.18c.06-1.79-1.13-3.43-2.93-3.85-2.05-.48-4.11,.78-4.59,2.84-.49,2.04,.78,4.09,2.83,4.57,2.06,.48,4.11-.78,4.58-2.82,.02-.11,.05-.22,.06-.32l12.95,1.17c-.08,1.54,.36,3.01,1.19,4.22l.25,.35c.9,1.14,2.18,2,3.71,2.36,1.98,.47,3.96,0,5.49-1.12l8.56,11.02c-.5,.45-.89,1.05-1.05,1.76-.44,1.83,.69,3.66,2.51,4.08,1.83,.43,3.65-.71,4.08-2.51,.43-1.82-.7-3.65-2.52-4.08-.97-.23-1.93-.02-2.69,.5l-8.56-11.01c1.08-.9,1.89-2.14,2.25-3.61,.42-1.81,.07-3.63-.85-5.09l16.24-10.84c.5,.67,1.23,1.17,2.11,1.38,1.99,.46,3.99-.77,4.46-2.76,.48-1.99-.76-3.99-2.75-4.46-1.99-.47-3.98,.75-4.46,2.76Z" style="fill:#7b7b7b;"/><path d="M760.32,153.39c2.09,.57,4.25-.64,4.83-2.74,.18-.62,.19-1.24,.07-1.83l9.79-2.5c.57,2.01,2.14,3.68,4.3,4.29,.84,.23,1.69,.27,2.5,.17l2.89,17.3c-1.39,.3-2.58,1.34-2.98,2.81-.57,2.1,.65,4.29,2.76,4.87,2.11,.59,4.29-.65,4.88-2.76,.58-2.1-.66-4.28-2.76-4.88-.51-.14-1.02-.17-1.51-.11l-2.89-17.3c1.65-.34,3.12-1.33,4.02-2.78l4.03,2.4c-.05,.1-.1,.22-.13,.33-.31,1.12,.35,2.28,1.47,2.6,1.12,.3,2.29-.35,2.61-1.47,.31-1.13-.35-2.29-1.48-2.6-.88-.24-1.76,.11-2.27,.8l-4.05-2.4c.22-.41,.41-.83,.53-1.29,.42-1.47,.25-2.97-.35-4.27l22.16-10.77c.06,.1,.11,.21,.19,.3,.65,.88,1.62,1.39,2.62,1.5l-1.53,15.45c-.56-.02-1.12,.13-1.61,.5-1.09,.81-1.32,2.36-.5,3.45,.63,.84,1.69,1.17,2.65,.9l.11-.03c.25-.08,.48-.21,.71-.37,1.09-.82,1.32-2.36,.5-3.46-.41-.55-1-.87-1.63-.96l1.53-15.46c.83,.04,1.68-.2,2.4-.71l12.88,17.26c-1.05,.85-1.25,2.39-.43,3.48,.84,1.12,2.43,1.35,3.55,.51,.73-.56,1.09-1.43,1-2.28v-.11c-.07-.41-.23-.81-.49-1.17-.82-1.08-2.34-1.33-3.45-.58l-12.88-17.26c.79-.65,1.26-1.56,1.36-2.5v-.12c.06-.54-.02-1.09-.22-1.61l35.37-17.2c.5,1.01,1.23,1.9,2.15,2.57l-13.45,19.66c-.19-.11-.41-.21-.64-.27-1.45-.4-2.96,.45-3.36,1.91-.4,1.45,.44,2.95,1.9,3.35,1.46,.4,2.96-.44,3.36-1.9,.3-1.09-.11-2.21-.93-2.87l13.44-19.66c.59,.38,1.24,.68,1.94,.88,1.11,.3,2.2,.32,3.24,.11l7.5,34.18c-1.44,.38-2.66,1.5-3.08,3.05-.41,1.46-.02,2.97,.92,4.05l-12.27,11.24c-.32-.32-.71-.56-1.18-.7-.66-.19-1.34-.09-1.92,.2l-3-5.32c.38-.25,.68-.62,.82-1.09,.28-1-.31-2.04-1.32-2.33-1.01-.27-2.06,.31-2.34,1.33-.28,1,.31,2.05,1.31,2.33,.48,.13,.95,.06,1.36-.13l3.01,5.32c-.55,.33-.98,.87-1.16,1.53-.1,.35-.12,.7-.08,1.04l.03,.19c.19,.95,.89,1.75,1.88,2.03,1.41,.39,2.87-.44,3.25-1.84,.25-.88,.02-1.78-.52-2.42l12.27-11.23c.53,.55,1.2,.97,1.99,1.19,2.33,.65,4.74-.71,5.39-3.04,.65-2.33-.72-4.74-3.04-5.38-.65-.18-1.3-.21-1.92-.1l-7.5-34.17c2.36-.6,4.34-2.41,5.03-4.92,0,0,0-.01,0-.02l34.5,9.58s0,.01,0,.02c-.67,2.42,.13,4.9,1.86,6.5l-7.13,8.55c-.44-.34-.95-.6-1.51-.76-2.37-.67-4.84,.73-5.5,3.11-.66,2.38,.73,4.84,3.12,5.5,2.37,.66,4.84-.72,5.5-3.1,.48-1.68-.09-3.4-1.3-4.5l7.13-8.54c.66,.54,1.46,.97,2.36,1.22,1.85,.51,3.72,.16,5.22-.8l20.56,30.17c-1.1,.8-1.94,1.96-2.33,3.38-.52,1.83-.15,3.69,.83,5.16l-10.58,7.59c-.41-.49-.95-.87-1.61-1.05-1.69-.47-3.44,.51-3.91,2.2-.47,1.69,.52,3.43,2.21,3.9,1.69,.47,3.43-.52,3.9-2.21,.25-.89,.09-1.8-.37-2.52l10.58-7.59c.8,1.04,1.93,1.84,3.29,2.22,1.67,.47,3.38,.2,4.78-.6l.33-.2c1.1-.73,1.97-1.79,2.45-3.12l2.94,1.01s0,.01,0,.02c-.28,1,.32,2.04,1.32,2.32,1.01,.28,2.06-.31,2.33-1.32,.28-1.01-.3-2.05-1.31-2.33-.94-.26-1.9,.23-2.25,1.12l-2.95-1.01c.03-.09,.07-.17,.09-.26,.55-1.97,.08-3.99-1.08-5.5l-.25-.31c-.78-.88-1.82-1.56-3.03-1.89-.22-.07-.45-.12-.67-.15l1.57-12.05c1.66,.12,3.23-.93,3.7-2.59,.52-1.89-.58-3.86-2.48-4.38-1.89-.53-3.84,.58-4.37,2.47-.53,1.89,.58,3.86,2.47,4.38,.1,.03,.2,.05,.3,.07l-1.57,12.05c-1.43-.15-2.82,.22-3.98,.95l-20.58-30.17c1.14-.83,2.03-2.03,2.43-3.49,.5-1.8,.19-3.64-.72-5.12l22.54-14.08c.54,.79,1.35,1.4,2.35,1.66,2.25,.63,4.58-.69,5.2-2.93,.48-1.73-.19-3.51-1.54-4.51l-.16-.12c-.37-.25-.79-.45-1.24-.58-2.25-.62-4.58,.69-5.21,2.94-.32,1.13-.14,2.27,.39,3.21l-22.55,14.08c-.8-1.16-2.01-2.07-3.47-2.5l9.93-35.47c2.25,.52,4.54-.81,5.16-3.06,.64-2.31-.71-4.7-3.02-5.35-1.52-.41-3.06,.02-4.13,1.04l-6.58-6.68c.2-.21,.35-.47,.43-.76,.29-1.01-.31-2.06-1.32-2.34-1.01-.27-2.05,.32-2.34,1.32-.27,1.01,.32,2.06,1.33,2.33,.65,.19,1.3,0,1.76-.42l6.57,6.67c-.48,.5-.86,1.14-1.07,1.86-.62,2.24,.64,4.56,2.83,5.28l-9.93,35.48c-1.71-.4-3.43-.08-4.83,.77l-2.17-3.44c.34-.24,.62-.59,.75-1.03,.26-1.01-.32-2.06-1.33-2.34-1.01-.28-2.05,.32-2.33,1.32-.29,1.01,.3,2.05,1.31,2.33,.5,.13,1.01,.06,1.43-.18l2.16,3.43c-1.17,.75-2.1,1.9-2.58,3.3l-34.54-9.59c.55-2.54-.36-5.09-2.2-6.73l6.39-7.56c.51,.41,1.12,.72,1.8,.91,2.74,.76,5.57-.85,6.33-3.59,.39-1.4,.15-2.83-.54-4l11.72-7.25c.24,.33,.57,.59,.99,.71,.97,.26,1.97-.29,2.24-1.26,.26-.96-.29-1.96-1.26-2.23-.97-.27-1.97,.3-2.23,1.26-.14,.47-.07,.96,.15,1.36l-11.72,7.25c-.66-1.02-1.68-1.82-2.94-2.17-1.51-.42-3.04-.12-4.25,.69l-4.84-6.92c.27-.22,.5-.53,.6-.9,.26-.93-.29-1.89-1.21-2.15-.93-.25-1.88,.28-2.14,1.21-.26,.93,.28,1.89,1.22,2.14,.48,.14,.98,.05,1.38-.21l4.84,6.93c-.9,.66-1.61,1.62-1.93,2.78-.53,1.93,.11,3.9,1.49,5.18l-6.4,7.55c-.71-.56-1.54-1-2.47-1.26-2.55-.7-5.14,.08-6.87,1.83l-23.1-21.15c.35-.42,.61-.9,.76-1.45,.57-2.09-.64-4.24-2.72-4.81-2.08-.59-4.23,.64-4.81,2.72-.58,2.08,.63,4.24,2.72,4.81,1.39,.39,2.82-.03,3.79-.99l23.1,21.15c-.69,.78-1.23,1.71-1.52,2.78-.44,1.59-.3,3.21,.31,4.62l-35.36,17.19c-.06-.13-.13-.27-.21-.4l-.14-.19s0,0,0-.01c-.88-1.17-2.32-1.68-3.67-1.46l-1.42-6.35c.32-.09,.62-.23,.89-.44,1.16-.86,1.39-2.5,.53-3.65-.87-1.16-2.5-1.39-3.66-.52-1.16,.86-1.39,2.5-.52,3.65,.6,.82,1.6,1.17,2.54,1.01l1.41,6.34c-.49,.12-.98,.33-1.41,.66-.9,.67-1.41,1.66-1.49,2.7l-.02,.22c-.02,.59,.11,1.18,.37,1.73l-22.13,10.77c-.53-.99-1.33-1.81-2.32-2.39l5.45-10.04c.26,.13,.53,.24,.81,.31,2.5,.7,5.09-.77,5.8-3.27,.47-1.72-.07-3.49-1.28-4.65l12.82-13.9c.19,.16,.41,.29,.67,.35,.97,.27,1.97-.3,2.24-1.27,.28-.97-.3-1.97-1.26-2.24-.97-.27-1.97,.3-2.25,1.27-.18,.65,.02,1.3,.45,1.75l-12.82,13.91c-.52-.45-1.14-.81-1.85-1.01-1.25-.35-2.52-.16-3.58,.43l-5.34-9.02c.49-.32,.86-.8,1.04-1.4,.36-1.31-.41-2.66-1.71-3.02-1.3-.37-2.65,.4-3.01,1.71-.37,1.3,.4,2.65,1.7,3.02,.64,.19,1.29,.08,1.82-.21l5.35,9.03c-.97,.6-1.73,1.55-2.06,2.73-.58,2.09,.34,4.23,2.11,5.28l-5.46,10.04c-.35-.18-.71-.33-1.11-.43-1.63-.46-3.29-.21-4.66,.55l-.33,.2c-1.24,.79-2.2,2.02-2.63,3.56-.27,.99-.29,2-.08,2.95l-9.8,2.5c-.39-1.23-1.36-2.25-2.7-2.62-2.09-.58-4.25,.63-4.83,2.73-.58,2.09,.64,4.25,2.73,4.84Z" style="fill:#7b7b7b;"/><path d="M838.89,60.35c-.38,.64-.16,1.46,.48,1.84,.64,.38,1.46,.17,1.84-.48,.02-.04,.03-.09,.05-.14l2.52,1c-.45,1.23,.03,2.64,1.2,3.33,.69,.41,1.49,.48,2.2,.25l1.76,5.23c-.38,.14-.71,.41-.93,.79-.51,.87-.22,2,.65,2.51,.87,.52,1.99,.22,2.51-.65,.51-.87,.22-1.99-.65-2.5-.46-.27-.98-.31-1.45-.17l-1.75-5.23c.59-.21,1.1-.62,1.44-1.2,.63-1.07,.45-2.4-.35-3.27l10.64-10.85c.29,.27,.6,.51,.95,.72,1.31,.76,2.81,.91,4.16,.54l.25-.08c.99-.33,1.87-.93,2.54-1.78l2.31,1.72s-.04,.05-.05,.08c-.56,.95-.24,2.18,.71,2.74,.96,.56,2.18,.24,2.74-.71,.56-.96,.25-2.19-.71-2.74-.85-.5-1.91-.3-2.54,.43l-2.31-1.73c.1-.13,.17-.25,.26-.38,.65-1.12,.86-2.37,.68-3.54l16.6-2.94c.19,.8,.68,1.52,1.44,1.98,1.46,.86,3.33,.37,4.18-1.09,.86-1.45,.37-3.33-1.08-4.18-1.46-.86-3.33-.37-4.19,1.09-.36,.61-.48,1.3-.39,1.95l-16.6,2.93c-.3-1.44-1.17-2.77-2.55-3.56-.43-.25-.88-.43-1.34-.55l2.76-11.56c1.65,.33,3.4-.38,4.3-1.91,1.13-1.93,.49-4.41-1.45-5.55-1.92-1.13-4.4-.48-5.54,1.44-1.13,1.93-.49,4.41,1.44,5.54,.32,.18,.65,.31,.98,.41l-2.76,11.56c-.91-.19-1.84-.13-2.71,.13l-.25,.09c-1.13,.41-2.14,1.19-2.8,2.31-.29,.48-.49,1-.61,1.51l-.05,.27c-.3,1.69,.23,3.44,1.43,4.69l-10.64,10.85c-.13-.12-.27-.23-.44-.32-1.32-.77-3.01-.33-3.78,.99-.06,.11-.11,.21-.16,.32l-2.52-.99c.2-.59-.03-1.26-.59-1.59-.64-.37-1.46-.16-1.83,.48Z" style="fill:#7b7b7b;"/><path d="M761.46,129.56c.99-.25,1.57-1.26,1.32-2.24-.25-.98-1.26-1.57-2.24-1.31-.07,.02-.12,.05-.19,.08l-1.47-3.41c1.62-.75,2.52-2.57,2.06-4.37-.27-1.07-.98-1.9-1.88-2.37l3.35-6.75c.5,.23,1.09,.29,1.66,.14,1.33-.35,2.14-1.71,1.8-3.05-.35-1.34-1.71-2.14-3.05-1.8-1.33,.34-2.14,1.71-1.79,3.05,.18,.7,.64,1.24,1.23,1.57l-3.36,6.73c-.77-.37-1.66-.47-2.55-.23-1.65,.43-2.76,1.88-2.82,3.5l-20.76,.2c-.02-.54-.09-1.07-.23-1.61-.52-2.01-1.83-3.6-3.5-4.55l-.32-.16c-1.26-.63-2.7-.91-4.18-.74l-.57-3.89s.09-.01,.12-.03c1.46-.38,2.34-1.87,1.96-3.33-.38-1.46-1.87-2.34-3.33-1.96-1.46,.39-2.34,1.88-1.96,3.34,.34,1.3,1.56,2.14,2.85,2.04l.56,3.89c-.21,.03-.41,.07-.61,.12-1.71,.45-3.11,1.46-4.07,2.77l-18.87-13.2c.6-.95,.83-2.13,.53-3.3-.58-2.24-2.87-3.57-5.09-2.99-2.24,.58-3.58,2.86-3,5.1,.58,2.24,2.86,3.57,5.1,3,.94-.25,1.71-.8,2.26-1.51l18.88,13.21c-1.11,1.68-1.54,3.8-.99,5.9,.17,.66,.44,1.27,.76,1.83l-13.84,8.5c-1.27-1.92-3.65-2.92-6-2.31-2.95,.76-4.73,3.78-3.96,6.75,.77,2.95,3.79,4.72,6.74,3.96,2.96-.76,4.73-3.79,3.97-6.74-.13-.48-.32-.93-.56-1.34l13.83-8.5c.7,1.06,1.66,1.9,2.75,2.49l.32,.16c1.5,.69,3.22,.91,4.93,.46,.75-.19,1.43-.49,2.05-.88l.3-.21c1.91-1.34,3.1-3.54,3.15-5.91l20.76-.2c0,.24,.05,.48,.11,.73,.52,2.01,2.58,3.22,4.6,2.7,.16-.05,.32-.1,.47-.16l1.48,3.39c-.76,.37-1.19,1.25-.97,2.11,.26,.98,1.26,1.57,2.24,1.31Z" style="fill:#7b7b7b;"/></g><g><g><path d="M1115.6,26.69c-2.74,.32-4.69,2.8-4.37,5.54,.11,.98,.51,1.87,1.1,2.58l-29.2,26.15c-.67-.66-1.62-1.02-2.63-.9-.61,.07-1.17,.32-1.63,.68l-13.2-14.49c1.05-1.05,1.63-2.54,1.44-4.12-.24-2.07-1.72-3.69-3.61-4.23l5.27-22.48c.29,.05,.59,.06,.9,.02,1.77-.21,3.03-1.81,2.82-3.57-.21-1.76-1.81-3.03-3.57-2.82-1.77,.21-3.03,1.81-2.82,3.58,.16,1.3,1.07,2.33,2.25,2.7l-5.26,22.48c-.49-.09-1-.12-1.51-.06-2.74,.33-4.69,2.8-4.37,5.54,.06,.52,.21,1.02,.41,1.48l-19.06,9.64c-.87-1.57-2.41-2.67-4.2-2.96l3.69-29.4c.22,.02,.44,0,.65-.02,1.97-.23,3.37-2.01,3.14-3.98-.23-1.97-2.01-3.38-3.98-3.15-.91,.11-1.7,.55-2.26,1.19l-9.24-6.87c.27-.41,.41-.9,.35-1.42-.13-1.16-1.18-1.99-2.34-1.85-1.16,.14-1.99,1.18-1.84,2.35,.13,1.16,1.18,1.99,2.34,1.85,.57-.07,1.04-.35,1.38-.75l9.22,6.86c-.57,.72-.86,1.66-.74,2.63,.19,1.6,1.4,2.83,2.9,3.11l-3.68,29.4c-.4-.03-.8-.03-1.21,.02-1.9,.22-3.47,1.33-4.37,2.86l-8.28-4.48c.32-.66,.45-1.4,.36-2.18-.26-2.2-2.25-3.77-4.44-3.51-2.2,.26-3.76,2.25-3.5,4.45,.26,2.19,2.25,3.76,4.44,3.51,1.27-.15,2.33-.88,2.94-1.89l8.28,4.48c-.49,.99-.71,2.12-.57,3.29,.23,1.9,1.34,3.48,2.87,4.38l-16.17,30.08c-1.14-.58-2.46-.83-3.83-.67-.25,.03-.49,.07-.73,.13l-3.37-12.78c1.72-.56,2.87-2.27,2.65-4.13-.25-2.12-2.17-3.64-4.29-3.4-2.12,.25-3.63,2.17-3.39,4.3,.25,2.12,2.17,3.64,4.29,3.39,.11,0,.22-.03,.33-.06l3.37,12.78c-1.49,.44-2.74,1.37-3.61,2.59l-33.08-21.91c.81-1.3,1.2-2.88,1.01-4.52-.24-2.01-1.31-3.73-2.83-4.84l16.88-23.44c.87,.57,1.93,.85,3.04,.72,2.52-.3,4.32-2.58,4.03-5.11-.23-1.93-1.63-3.44-3.41-3.91l5.35-22.87c.19,.04,.37,.05,.56,.03,1.05-.13,1.81-1.08,1.69-2.14-.12-1.06-1.08-1.81-2.14-1.69-1.05,.13-1.81,1.08-1.68,2.13,.09,.8,.65,1.42,1.36,1.62l-5.35,22.86c-.47-.1-.97-.13-1.48-.07-2.52,.3-4.33,2.58-4.03,5.1,.15,1.26,.8,2.33,1.71,3.06l-16.87,23.45c-1.29-.84-2.87-1.26-4.52-1.09l-4.6-39.78c2.48-.4,4.23-2.69,3.93-5.21-.3-2.59-2.65-4.44-5.23-4.14-1.7,.2-3.06,1.28-3.74,2.74l-9.35-4.02c.11-.3,.16-.62,.12-.95-.13-1.13-1.15-1.94-2.28-1.81-1.13,.13-1.93,1.16-1.8,2.28,.13,1.13,1.16,1.94,2.29,1.81,.72-.08,1.3-.54,1.6-1.14l9.34,4.01c-.29,.71-.4,1.5-.31,2.31,.3,2.51,2.52,4.33,5.01,4.15l4.61,39.8c-1.88,.3-3.48,1.33-4.54,2.76l-3.59-2.57c.25-.39,.37-.85,.32-1.35-.13-1.13-1.16-1.94-2.29-1.8-1.13,.13-1.93,1.15-1.8,2.28,.13,1.13,1.16,1.94,2.28,1.81,.56-.07,1.05-.35,1.37-.77l3.58,2.57c-.86,1.25-1.32,2.78-1.24,4.39l-38.67,4.54c-.5-2.78-2.45-4.98-4.99-5.87l3.33-10.24c.69,.2,1.43,.26,2.18,.17,3.06-.36,5.26-3.14,4.9-6.21-.19-1.58-1.01-2.92-2.18-3.81l8.79-12.12c.37,.25,.82,.36,1.3,.32,1.08-.13,1.85-1.11,1.73-2.19-.13-1.08-1.1-1.86-2.18-1.73-1.08,.13-1.85,1.11-1.73,2.19,.07,.53,.33,.98,.72,1.29l-8.8,12.12c-1.08-.76-2.43-1.14-3.85-.98-1.69,.2-3.1,1.13-3.98,2.44l-7.72-4.98c.19-.34,.29-.73,.24-1.15-.12-1.04-1.06-1.78-2.1-1.66-1.04,.12-1.78,1.06-1.66,2.1,.12,1.04,1.07,1.78,2.1,1.66,.55-.06,1-.36,1.3-.77l7.72,4.97c-.63,1.04-.95,2.29-.79,3.59,.25,2.16,1.71,3.89,3.62,4.59l-3.33,10.24c-.95-.27-1.96-.37-3-.25-2.84,.33-5.13,2.19-6.16,4.66l-.15,.4c-.37,1.07-.52,2.22-.39,3.42,.21,1.78,1.02,3.35,2.21,4.53l-51.79,57.88c-.93-.77-2.08-1.28-3.31-1.45l1.36-12.35c.31,.02,.63,.01,.95-.02,2.8-.33,4.8-2.87,4.47-5.68-.23-1.93-1.51-3.48-3.2-4.15l7.16-19.26c.26,.08,.54,.11,.82,.08,1.08-.13,1.86-1.11,1.74-2.2-.13-1.09-1.12-1.87-2.2-1.74-1.09,.13-1.86,1.12-1.73,2.2,.08,.73,.55,1.31,1.18,1.58l-7.16,19.27c-.71-.25-1.48-.35-2.28-.26-1.4,.17-2.6,.88-3.41,1.91l-9.08-6.88c.36-.51,.54-1.16,.46-1.83-.17-1.46-1.5-2.51-2.96-2.33-1.45,.17-2.5,1.49-2.33,2.95,.17,1.46,1.5,2.5,2.95,2.33,.71-.09,1.33-.44,1.74-.95l9.09,6.89c-.73,1-1.1,2.26-.94,3.59,.27,2.34,2.08,4.12,4.3,4.46l-1.36,12.34c-.43-.04-.86-.03-1.3,.02-1.83,.21-3.39,1.14-4.46,2.48l-44.68-32.69c.94-1.37,1.5-3,1.52-4.74l4.62-.03s0,.1,0,.14c.21,1.76,1.8,3.03,3.56,2.82,1.76-.21,3.02-1.8,2.81-3.57-.21-1.76-1.8-3.02-3.56-2.82-1.57,.18-2.74,1.47-2.83,2.99l-4.62,.03c0-.24-.02-.49-.05-.74-.24-2.05-1.19-3.85-2.57-5.19l18.39-19.84c1,.85,2.34,1.3,3.75,1.14,2.69-.32,4.62-2.76,4.3-5.45-.31-2.69-2.76-4.62-5.45-4.3-2.69,.31-4.61,2.75-4.3,5.45,.14,1.13,.64,2.12,1.39,2.87l-18.4,19.85c-1.77-1.57-4.17-2.4-6.7-2.1-.8,.09-1.56,.31-2.27,.6l-7.66-17.48c2.44-1.17,3.98-3.78,3.65-6.62-.42-3.57-3.65-6.12-7.21-5.7-3.56,.42-6.11,3.65-5.7,7.21,.43,3.56,3.66,6.12,7.22,5.7,.58-.07,1.13-.22,1.65-.43l7.66,17.48c-3.27,1.54-5.35,5.04-4.9,8.83,.11,.89,.34,1.74,.7,2.53l.2,.38c1.25,2.46,3.61,4.19,6.36,4.62l-3.09,24.21c-.28-.03-.57-.02-.87,.02-2.43,.28-4.17,2.49-3.88,4.92,.02,.2,.07,.39,.11,.57l-4.18,1.18c-.32-.95-1.26-1.58-2.3-1.46-1.19,.14-2.03,1.21-1.89,2.4,.14,1.18,1.21,2.03,2.39,1.89,1.18-.14,2.03-1.21,1.89-2.4-.01-.08-.04-.15-.05-.23l4.18-1.17c.62,2,2.59,3.35,4.75,3.1,1.29-.15,2.37-.84,3.07-1.82l7.31,5.01c-.35,.55-.52,1.22-.44,1.91,.18,1.61,1.64,2.77,3.26,2.57,1.61-.19,2.76-1.65,2.58-3.26-.2-1.61-1.66-2.76-3.27-2.58-.84,.1-1.55,.55-2.01,1.18l-7.31-5c.54-.84,.81-1.87,.68-2.93-.23-1.99-1.76-3.52-3.63-3.85l3.1-24.21c.62,.06,1.26,.08,1.91,0,2.41-.29,4.47-1.54,5.84-3.33l44.67,32.68c-.92,1.31-1.38,2.94-1.18,4.65,.13,1.12,.54,2.14,1.13,3.01l-8.82,6.55c-.89-1.08-2.3-1.7-3.79-1.53-2.34,.27-4.01,2.39-3.74,4.74,.27,2.34,2.39,4.02,4.73,3.74,2.34-.28,4.01-2.4,3.74-4.73-.09-.7-.33-1.33-.69-1.87l8.82-6.55c1.4,1.79,3.66,2.83,6.08,2.55,.95-.11,1.81-.41,2.59-.86l10,16.22c-1.27,.87-2.03,2.4-1.83,4.04,.28,2.36,2.42,4.06,4.78,3.77,2.36-.28,4.04-2.41,3.76-4.78-.28-2.36-2.42-4.05-4.78-3.77-.57,.07-1.1,.24-1.57,.51l-10.01-16.22c1.52-1.02,2.58-2.63,2.9-4.45l5.04,.75c0,.13,0,.26,0,.39,.15,1.26,1.28,2.16,2.55,2.02,1.25-.15,2.15-1.29,2.01-2.55-.15-1.26-1.29-2.16-2.55-2.01-.98,.11-1.73,.82-1.95,1.73l-5.04-.75c.05-.5,.06-1,0-1.51-.2-1.65-.98-3.09-2.11-4.15l51.78-57.88c.91,.81,2.01,1.4,3.22,1.7l-5.43,25.33c-.25-.03-.5-.04-.76,0-1.63,.19-2.79,1.67-2.6,3.29,.19,1.63,1.66,2.79,3.29,2.61,1.62-.2,2.79-1.67,2.6-3.3-.14-1.22-1.01-2.18-2.12-2.5l5.43-25.32c.75,.14,1.53,.18,2.32,.08,1.23-.14,2.34-.57,3.3-1.21l21.59,31.31c-1.3,.98-2.05,2.6-1.85,4.34,.19,1.66,1.21,3,2.59,3.7l-7.72,16.36c-.45-.2-.94-.28-1.47-.22-.75,.09-1.39,.46-1.84,.99l-5.22-4.12c.28-.4,.43-.9,.37-1.43-.14-1.13-1.16-1.93-2.29-1.8-1.13,.13-1.93,1.16-1.8,2.29,.14,1.13,1.16,1.93,2.29,1.8,.53-.06,.98-.32,1.3-.69l5.21,4.13c-.41,.57-.62,1.28-.54,2.03,.04,.39,.17,.75,.35,1.07l-18.16,11.13c-.37-.54-1.02-.87-1.73-.78-1.01,.12-1.74,1.04-1.62,2.05,.12,1.01,1.04,1.74,2.05,1.62,1.02-.12,1.74-1.04,1.62-2.05-.02-.23-.1-.46-.21-.65l18.16-11.12c.58,.87,1.61,1.4,2.72,1.26,1.58-.18,2.7-1.61,2.51-3.18-.11-.98-.71-1.79-1.52-2.22l7.72-16.36c.76,.33,1.61,.49,2.49,.38,2.6-.3,4.47-2.67,4.16-5.28-.31-2.61-2.67-4.48-5.28-4.16-.72,.08-1.38,.33-1.96,.69l-21.59-31.31c2.12-1.57,3.37-4.21,3.04-7.02,0,0,0-.01,0-.02l38.62-4.53s0,.02,0,.02c.32,2.71,2.14,4.88,4.54,5.78l-3.65,11.53c-.58-.15-1.2-.2-1.83-.13-2.66,.31-4.57,2.73-4.25,5.39,.31,2.67,2.72,4.57,5.39,4.26,2.66-.31,4.56-2.72,4.25-5.39-.22-1.88-1.49-3.38-3.15-4l3.65-11.52c.91,.27,1.88,.38,2.88,.26,2.07-.24,3.82-1.37,4.93-2.95l33.08,21.91c-.78,1.26-1.16,2.78-.98,4.37,.24,2.04,1.38,3.77,2.97,4.84l-7.52,11.99c-.6-.33-1.31-.49-2.04-.4-1.89,.21-3.24,1.93-3.01,3.82,.22,1.89,1.93,3.24,3.82,3.02,1.88-.22,3.23-1.93,3.01-3.82-.12-1-.65-1.85-1.41-2.39l7.53-11.99c1.23,.72,2.69,1.07,4.22,.89,1.87-.22,3.48-1.19,4.55-2.57l15.97,11.73c-.46,.71-.69,1.58-.58,2.49,.24,2.07,2.12,3.54,4.17,3.3,2.06-.24,3.54-2.11,3.29-4.17-.24-2.06-2.11-3.54-4.17-3.29-1,.12-1.86,.62-2.46,1.34l-15.98-11.73c.81-1.19,1.25-2.62,1.18-4.14l3.37-.19s0,0,0,.01c.13,1.13,1.16,1.94,2.28,1.81,1.13-.13,1.94-1.16,1.8-2.29-.13-1.13-1.15-1.94-2.28-1.8-1.05,.12-1.82,1.02-1.81,2.06l-3.38,.19c0-.1,0-.2-.02-.29-.26-2.21-1.56-4.05-3.35-5.09l16.18-30.08c.98,.48,2.11,.71,3.28,.57,.79-.09,1.54-.34,2.19-.71l10.14,16.6c-1.26,.87-2.01,2.38-1.82,4,.27,2.33,2.39,4,4.71,3.72,2.33-.27,3.99-2.38,3.72-4.71-.27-2.33-2.38-4-4.71-3.72-.55,.06-1.07,.24-1.53,.49l-10.14-16.61c1.79-1.18,2.86-3.3,2.59-5.58-.07-.63-.25-1.22-.5-1.77l19.06-9.64c.95,1.71,2.87,2.76,4.93,2.52,1.01-.11,1.9-.52,2.62-1.13l13.2,14.49c-.64,.67-.99,1.62-.88,2.62,.21,1.77,1.82,3.03,3.59,2.83,1.76-.21,3.03-1.81,2.82-3.59-.07-.61-.31-1.16-.67-1.61l29.21-26.15c1.04,1.07,2.55,1.66,4.15,1.48,2.73-.32,4.69-2.8,4.37-5.54-.32-2.74-2.8-4.7-5.54-4.38Z" style="fill:#7b7b7b;"/><path d="M765.64,102.19c-.61-.19-1.08-.62-1.36-1.14l-4.02,1.64c.53,1.34,.63,2.85,.16,4.34-.78,2.48-2.91,4.15-5.33,4.46l-.41,.04c-.78,.05-1.59-.03-2.38-.28-3.42-1.07-5.32-4.71-4.24-8.12,.09-.28,.19-.55,.32-.81l-37.72-17.3c-1.03,2.01-3.38,3.04-5.6,2.34-2.48-.78-3.86-3.42-3.08-5.9,.78-2.48,3.42-3.86,5.9-3.08,2.48,.78,3.87,3.42,3.09,5.9-.04,.12-.08,.24-.14,.36l37.74,17.3c1.45-2.65,4.62-4.01,7.62-3.06,1.79,.56,3.16,1.84,3.91,3.42l4.04-1.65c-.13-.42-.14-.89,0-1.36,.38-1.21,1.67-1.88,2.88-1.5,1.21,.38,1.88,1.66,1.5,2.87-.37,1.2-1.67,1.88-2.87,1.5Z" style="fill:#7b7b7b;"/><path d="M874.83,51.23c-.17,.09-.34,.18-.52,.25-1.73,.7-3.59,.51-5.08-.35l-3,4.57c.61,.5,.88,1.33,.63,2.12-.33,1.04-1.45,1.61-2.48,1.27-1.03-.34-1.6-1.45-1.27-2.48,.33-1.04,1.44-1.6,2.48-1.27,.1,.03,.2,.08,.29,.13l2.99-4.56c-.93-.63-1.69-1.53-2.14-2.65-.35-.87-.47-1.77-.4-2.64l-15.65-1.71c-.17,.9-.77,1.71-1.68,2.08-1.42,.58-3.04-.11-3.61-1.53-.58-1.42,.1-3.04,1.52-3.62,1.42-.58,3.04,.11,3.62,1.53,.15,.38,.21,.78,.19,1.16l15.65,1.72c.29-1.98,1.58-3.77,3.57-4.58,.7-.29,1.44-.42,2.15-.43l.2-7.94c-1.5-.11-2.89-1.05-3.49-2.54-.85-2.1,.15-4.48,2.25-5.33,2.1-.85,4.48,.16,5.33,2.25,.85,2.1-.15,4.49-2.25,5.34-.48,.19-.97,.29-1.46,.3l-.2,7.94c2.17,.13,4.19,1.47,5.06,3.63,1.09,2.68,.03,5.7-2.36,7.16l-.33,.19Z" style="fill:#7b7b7b;"/><path d="M810.09,176.5c.44,1.07,.27,2.25-.34,3.14l9.33,7.39c.35-.4,.8-.74,1.32-.94,.91-.37,1.88-.34,2.72,0l.43,.22c.69,.39,1.27,1,1.6,1.79,.54,1.33,.22,2.78-.67,3.79l-.35,.33c-.29,.25-.61,.47-.99,.62-1.38,.57-2.89,.21-3.9-.76l-9.78,8.86c.21,.26,.4,.55,.53,.88,.76,1.87-.14,3.98-2,4.74-1.87,.76-4-.14-4.75-2-.75-1.86,.14-3.98,2.01-4.74,1.38-.56,2.9-.21,3.9,.76l9.78-8.86c-.21-.27-.4-.55-.54-.88-.48-1.18-.29-2.46,.38-3.44l-9.32-7.39c-.33,.36-.73,.65-1.2,.85-1.72,.69-3.66-.13-4.36-1.84-.69-1.7,.14-3.65,1.84-4.34,1.71-.7,3.66,.13,4.35,1.84Z" style="fill:#7b7b7b;"/><path d="M823.31,33.67c-1.42,.58-2.96,.32-4.12-.54l-7.29,8.87c.65,.58,1.19,1.31,1.54,2.18,.58,1.43,.55,2.95,.05,4.28l-.17,.39c-.6,1.3-1.67,2.38-3.1,2.96-2.5,1.01-5.27,.18-6.84-1.85l-.25-.34c-.21-.32-.4-.68-.55-1.04-.81-2.01-.44-4.19,.79-5.78l.27-.32c.58-.65,1.31-1.18,2.17-1.53,2-.81,4.17-.44,5.76,.77l7.29-8.87c-.45-.41-.83-.92-1.08-1.53-.67-1.63-.24-3.43,.95-4.6l-17.24-19.23c-.32,.25-.66,.49-1.06,.65-2.17,.88-4.64-.16-5.52-2.34-.89-2.16,.16-4.63,2.33-5.51,2.17-.88,4.64,.16,5.53,2.33,.66,1.63,.23,3.44-.95,4.61l17.24,19.22c.31-.26,.66-.48,1.06-.64,2.17-.88,4.64,.16,5.52,2.33,.88,2.17-.16,4.64-2.33,5.52Z" style="fill:#7b7b7b;"/><path d="M736.39,146.83c.48-.54,1.08-.97,1.8-1.27,1.97-.8,4.16-.22,5.5,1.28l11.75-9.63c-.17-.24-.33-.49-.44-.77-.75-1.87,.14-4,2.01-4.77,1.87-.76,4,.14,4.76,2.01,.37,.92,.34,1.9,0,2.76l-.19,.38c-.39,.71-1,1.3-1.82,1.63-1.44,.59-3.04,.17-4.05-.92l-11.74,9.64c.25,.33,.46,.69,.62,1.09,1.02,2.52-.18,5.39-2.7,6.4-2.52,1.03-5.38-.18-6.4-2.7-.68-1.67-.37-3.48,.63-4.82l.27-.32Z" style="fill:#7b7b7b;"/></g><g><path d="M712.6,82.64c.11,3.39-2.56,6.23-5.94,6.34-3.39,.11-6.23-2.56-6.34-5.94-.11-3.39,2.56-6.23,5.95-6.34,3.39-.11,6.23,2.56,6.33,5.95Zm-12.01,.39c.1,3.23,2.82,5.78,6.06,5.68,3.24-.1,5.78-2.82,5.68-6.06-.1-3.24-2.82-5.79-6.06-5.68-3.23,.1-5.78,2.82-5.68,6.06Z" style="fill:#7b7b7b;"/><path d="M746.78,149.9c.12,3.72-2.81,6.84-6.52,6.96-3.72,.12-6.84-2.81-6.96-6.52-.12-3.72,2.8-6.84,6.52-6.96,3.72-.12,6.84,2.81,6.96,6.53Zm-13.18,.42c.11,3.55,3.09,6.35,6.64,6.23,3.55-.11,6.35-3.09,6.23-6.64-.12-3.55-3.09-6.35-6.64-6.23-3.55,.11-6.34,3.09-6.23,6.64Z" style="fill:#7b7b7b;"/><path d="M821.95,194.32c-2.68,.08-4.94-2.03-5.02-4.71-.09-2.68,2.03-4.94,4.71-5.02,2.68-.09,4.94,2.03,5.02,4.71,.08,2.68-2.03,4.94-4.71,5.02Zm-.31-9.49c-2.55,.08-4.56,2.22-4.47,4.77,.08,2.55,2.22,4.56,4.77,4.48,2.54-.08,4.55-2.22,4.47-4.77-.08-2.54-2.23-4.55-4.77-4.47Z" style="fill:#7b7b7b;"/><path d="M840.03,156.54c.1,3.13-2.37,5.76-5.5,5.86-3.13,.1-5.76-2.37-5.86-5.5-.1-3.13,2.37-5.76,5.5-5.86,3.13-.1,5.76,2.37,5.86,5.49Zm-11.11,.36c.09,3,2.61,5.35,5.61,5.26,3-.09,5.36-2.61,5.26-5.61-.09-3-2.61-5.35-5.61-5.26-2.99,.1-5.35,2.61-5.26,5.6Z" style="fill:#7b7b7b;"/><path d="M935.08,139.79c.07,2.2-1.66,4.04-3.85,4.11-2.19,.07-4.04-1.66-4.11-3.86-.07-2.19,1.66-4.03,3.85-4.11,2.19-.07,4.04,1.66,4.11,3.85Zm-7.81,.25c.07,2.11,1.84,3.77,3.95,3.71,2.11-.07,3.77-1.84,3.7-3.95-.07-2.11-1.84-3.77-3.95-3.7-2.11,.07-3.77,1.84-3.7,3.95Z" style="fill:#7b7b7b;"/><path d="M795.97,138.89c.1,3.17-2.4,5.83-5.56,5.93-3.17,.1-5.83-2.39-5.93-5.56-.1-3.17,2.39-5.83,5.56-5.93,3.17-.1,5.83,2.4,5.93,5.57Zm-11.29,.36c.1,3.06,2.66,5.47,5.72,5.37,3.06-.1,5.47-2.67,5.37-5.72-.1-3.06-2.66-5.47-5.72-5.37-3.06,.1-5.47,2.66-5.37,5.72Z" style="fill:#7b7b7b;"/><path d="M828.63,71.95c.11,3.35-2.53,6.17-5.88,6.27-3.35,.11-6.17-2.53-6.28-5.88-.11-3.36,2.53-6.17,5.89-6.28,3.35-.11,6.17,2.53,6.28,5.89Zm-11.92,.38c.1,3.22,2.81,5.75,6.02,5.65,3.22-.1,5.75-2.81,5.65-6.02-.1-3.22-2.8-5.75-6.02-5.65-3.22,.1-5.75,2.81-5.65,6.03Z" style="fill:#7b7b7b;"/><path d="M825.65,25.59c2.31,2.16,2.42,5.8,.26,8.12-2.17,2.31-5.8,2.42-8.11,.26-2.31-2.16-2.42-5.81-.26-8.12,2.16-2.31,5.81-2.42,8.12-.26Zm-7.69,8.2c2.21,2.07,5.69,1.96,7.77-.25,2.08-2.21,1.96-5.7-.25-7.77-2.21-2.08-5.7-1.96-7.77,.25-2.07,2.21-1.96,5.7,.25,7.77Z" style="fill:#7b7b7b;"/><path d="M864.7,46.26c-.13-4.11,3.1-7.55,7.2-7.69,4.11-.13,7.55,3.1,7.68,7.21,.13,4.11-3.1,7.55-7.2,7.68-4.11,.13-7.55-3.1-7.68-7.21Zm14.64-.47c-.13-3.97-3.46-7.1-7.43-6.97-3.97,.13-7.1,3.47-6.97,7.43,.13,3.97,3.46,7.1,7.43,6.97,3.97-.13,7.1-3.46,6.97-7.43Z" style="fill:#7b7b7b;"/><path d="M922.93,74.84c.17,5.23-3.95,9.62-9.18,9.79-5.23,.17-9.62-3.95-9.79-9.18-.17-5.23,3.95-9.62,9.18-9.79,5.23-.17,9.62,3.95,9.79,9.18Zm-18.73,.6c.16,5.1,4.44,9.11,9.54,8.95,5.09-.16,9.1-4.44,8.94-9.54-.16-5.1-4.44-9.11-9.54-8.95-5.09,.17-9.11,4.44-8.95,9.54Z" style="fill:#7b7b7b;"/><path d="M1019.91,98.27c.15,4.78-3.61,8.79-8.39,8.94-4.78,.15-8.79-3.61-8.94-8.39-.15-4.78,3.61-8.79,8.39-8.94,4.78-.15,8.79,3.61,8.95,8.39Zm-17.09,.55c.15,4.64,4.05,8.3,8.69,8.15,4.65-.15,8.3-4.05,8.15-8.7-.15-4.64-4.05-8.3-8.69-8.15-4.64,.15-8.3,4.05-8.15,8.7Z" style="fill:#7b7b7b;"/><path d="M996.09,35.79c.1,3.24-2.45,5.97-5.69,6.07-3.25,.1-5.97-2.45-6.08-5.7-.1-3.25,2.46-5.97,5.7-6.08,3.25-.1,5.97,2.45,6.07,5.7Zm-11.62,.37c.1,3.16,2.76,5.65,5.92,5.55,3.16-.1,5.65-2.76,5.55-5.92-.1-3.16-2.75-5.65-5.92-5.55-3.16,.1-5.65,2.76-5.55,5.92Z" style="fill:#7b7b7b;"/><path d="M1043.08,18.3c.09,2.64-1.99,4.86-4.63,4.94-2.64,.09-4.85-1.99-4.94-4.63-.08-2.64,1.99-4.85,4.63-4.94,2.64-.09,4.86,1.99,4.94,4.63Zm-9.42,.3c.08,2.55,2.22,4.57,4.78,4.49,2.55-.08,4.56-2.23,4.48-4.78-.08-2.55-2.23-4.56-4.78-4.48-2.55,.08-4.56,2.23-4.48,4.78Z" style="fill:#7b7b7b;"/><path d="M1085.75,63.13c.09,2.69-2.03,4.94-4.71,5.03-2.68,.09-4.94-2.03-5.03-4.72-.09-2.68,2.03-4.94,4.71-5.03,2.69-.08,4.94,2.03,5.02,4.71Zm-9.54,.3c.08,2.58,2.25,4.61,4.82,4.52,2.57-.08,4.6-2.25,4.52-4.82-.08-2.57-2.25-4.6-4.82-4.52-2.57,.08-4.6,2.24-4.52,4.82Z" style="fill:#7b7b7b;"/><path d="M843.16,107.94c.07,2.08-1.57,3.82-3.65,3.89-2.08,.07-3.82-1.57-3.89-3.65-.07-2.08,1.57-3.82,3.65-3.89,2.08-.07,3.83,1.57,3.89,3.65Zm-7.38,.24c.06,2,1.74,3.56,3.73,3.5,2-.06,3.57-1.74,3.5-3.73-.07-2-1.74-3.56-3.74-3.5-1.99,.06-3.56,1.74-3.5,3.73Z" style="fill:#7b7b7b;"/></g></g></g><g><g style="opacity:.4;"><path d="M295.16,204.77c-1.05-.62-2.4-.26-3.02,.8-.14,.25-.23,.52-.27,.79l-10.09-.96c.06-1.12-.49-2.23-1.52-2.83-.29-.18-.59-.29-.89-.35l1.94-10.97c1.01,.14,2.05-.33,2.59-1.27,.27-.46,.37-.96,.35-1.45l-.02-.22c-.11-.76-.55-1.47-1.27-1.89-.94-.54-2.08-.43-2.89,.19l-.16,.14c-.19,.18-.36,.38-.49,.61-.73,1.24-.3,2.84,.93,3.56,.24,.14,.49,.23,.74,.29l-1.95,10.97c-.92-.13-1.86,.17-2.54,.82l-.15,.16c-.14,.15-.27,.32-.38,.51-.5,.86-.52,1.87-.17,2.72l-4.45,2.05c-.18-.33-.44-.63-.79-.83-.99-.58-2.27-.24-2.85,.75-.59,.99-.24,2.27,.75,2.85,1,.57,2.27,.24,2.86-.76,.33-.58,.36-1.23,.13-1.81l4.45-2.05c.26,.51,.67,.96,1.2,1.26,.86,.51,1.87,.54,2.72,.17l.2-.09c.51-.26,.95-.66,1.26-1.19,.21-.37,.34-.76,.4-1.14l10.09,.96c-.04,.79,.36,1.58,1.09,2.02,1.06,.61,2.41,.25,3.02-.81,.62-1.05,.26-2.41-.8-3.02Z" style="fill:#7b7b7b;"/><path d="M134.56,118.96c.4,1.51,1.95,2.41,3.46,2.01,.36-.09,.69-.26,.96-.47l8.26,10c-1.07,.95-1.57,2.46-1.19,3.94,.11,.42,.28,.79,.5,1.12l-11.68,8.17c-.79-1.05-2.16-1.56-3.49-1.2-.66,.17-1.2,.53-1.63,1l-.18,.22c-.59,.79-.83,1.83-.57,2.86,.36,1.34,1.49,2.28,2.79,2.45l.28,.03c.33,.01,.67-.02,1-.11,1.78-.47,2.84-2.29,2.37-4.07-.09-.34-.23-.66-.41-.93l11.69-8.16c.71,.95,1.85,1.54,3.05,1.56h.29c.26-.02,.53-.06,.8-.12,1.23-.33,2.16-1.21,2.62-2.3l5.89,2.17c-.14,.47-.17,.97-.03,1.47,.38,1.42,1.85,2.28,3.26,1.9,1.43-.38,2.28-1.83,1.91-3.27-.38-1.42-1.84-2.27-3.28-1.89-.82,.22-1.43,.8-1.76,1.52l-5.89-2.17c.23-.7,.27-1.47,.07-2.23-.32-1.23-1.2-2.18-2.31-2.62l-.26-.1c-.69-.22-1.45-.27-2.21-.06-.52,.14-.99,.36-1.39,.67l-8.26-10c.75-.68,1.11-1.76,.84-2.82-.41-1.51-1.95-2.4-3.47-2-1.51,.39-2.41,1.94-2.01,3.46Z" style="fill:#7b7b7b;"/><path d="M284.16,32.37c.41,.1,.82,.09,1.2,0l1.9,6.35c-1.3,.43-2.36,1.5-2.7,2.93-.13,.55-.14,1.11-.05,1.63l.05,.26c.26,1.07,.95,2,1.92,2.57l-1.47,2.71c-.06-.04-.14-.06-.21-.08-.75-.18-1.49,.28-1.67,1.02-.17,.74,.29,1.49,1.03,1.67,.75,.17,1.49-.29,1.66-1.03,.14-.58-.11-1.15-.58-1.47l1.47-2.71c.27,.13,.55,.25,.85,.31,.98,.24,1.95,.09,2.79-.34l.23-.12c.62-.38,1.15-.92,1.51-1.58l6.71,3.32c-.08,.17-.14,.35-.19,.54-.39,1.66,.64,3.32,2.3,3.71,1.14,.27,2.29-.13,3.01-.95l.08-.11c.29-.35,.5-.76,.61-1.23,.19-.83,.04-1.66-.38-2.33l-.07-.11c-.42-.62-1.06-1.09-1.85-1.27-1.38-.33-2.76,.33-3.4,1.51l-6.71-3.32c.11-.24,.19-.48,.25-.74,.25-1.08,.05-2.16-.48-3.05l-.14-.21c-.55-.79-1.38-1.39-2.39-1.64-.66-.15-1.32-.13-1.94,.02l-1.89-6.36c.8-.28,1.44-.94,1.65-1.83,.34-1.38-.52-2.77-1.91-3.09-1.38-.33-2.77,.53-3.1,1.91-.32,1.39,.53,2.77,1.92,3.1Z" style="fill:#7b7b7b;"/><path d="M268.44,37.67c-.43,.27-.73,.69-.85,1.16l-9.96-1.98c.12-.73,.01-1.49-.35-2.18l1.53-.83s0,0,0,.01c.31,.49,.95,.65,1.46,.34,.5-.31,.65-.96,.33-1.45-.3-.5-.95-.65-1.44-.34-.47,.28-.62,.86-.39,1.35l-1.54,.82s-.04-.09-.07-.13c-.6-.97-1.61-1.54-2.66-1.64h-.21c-.66-.03-1.33,.14-1.93,.5-.11,.06-.21,.14-.31,.22l-4.34-5.21c.68-.63,.85-1.68,.34-2.5-.58-.93-1.8-1.22-2.73-.64-.93,.57-1.22,1.79-.65,2.73,.58,.94,1.8,1.22,2.73,.65,.05-.04,.1-.07,.14-.1l4.33,5.2c-.59,.54-.98,1.25-1.11,1.99l-.04,.22c-.09,.76,.07,1.54,.5,2.24,.55,.9,1.46,1.46,2.44,1.61l-.91,7.21c-.35-.03-.71,.05-1.04,.25-.83,.51-1.09,1.6-.58,2.43,.51,.83,1.6,1.08,2.43,.58,.83-.51,1.09-1.6,.58-2.43-.27-.44-.7-.72-1.17-.8l.9-7.2c.73,.07,1.48-.1,2.15-.5,.82-.51,1.36-1.31,1.56-2.19l9.97,1.99c-.07,.43,.02,.89,.26,1.28,.57,.91,1.75,1.19,2.65,.63,.91-.56,1.19-1.75,.63-2.65-.56-.9-1.75-1.19-2.66-.63Z" style="fill:#7b7b7b;"/><path d="M318.26,175.81c.22-.96,.04-1.93-.41-2.73l16.23-10.85c.83,1.15,2,2.04,3.44,2.5l-.96,3.19s0-.02-.02,0c-1.08-.26-2.17,.42-2.43,1.51-.26,1.1,.42,2.18,1.51,2.43,1.09,.26,2.18-.41,2.43-1.5,.25-1.01-.34-2.03-1.29-2.37l.97-3.2c.08,.03,.18,.07,.27,.09,2.13,.5,4.27-.08,5.83-1.39l.32-.27c.91-.87,1.59-2.01,1.91-3.32,.05-.24,.1-.48,.12-.72l12.96,1.18c-.06,1.79,1.13,3.43,2.93,3.85,2.05,.48,4.11-.78,4.59-2.84,.49-2.04-.78-4.09-2.83-4.57-2.06-.48-4.11,.78-4.58,2.82-.02,.11-.05,.22-.06,.32l-12.95-1.17c.08-1.54-.36-3.01-1.19-4.22l-.25-.35c-.9-1.14-2.18-2-3.71-2.36-1.98-.47-3.96,0-5.49,1.12l-8.56-11.02c.5-.45,.89-1.05,1.05-1.76,.44-1.83-.69-3.66-2.51-4.08-1.83-.43-3.65,.71-4.08,2.51-.43,1.82,.7,3.65,2.52,4.08,.97,.23,1.93,.02,2.69-.5l8.56,11.01c-1.08,.9-1.89,2.14-2.25,3.61-.42,1.81-.07,3.63,.85,5.09l-16.24,10.84c-.5-.67-1.23-1.17-2.11-1.38-1.99-.46-3.99,.77-4.46,2.76-.48,1.99,.76,3.99,2.75,4.46,1.99,.47,3.98-.75,4.46-2.76Z" style="fill:#7b7b7b;"/><path d="M360.85,75.14c-2.09-.57-4.25,.64-4.84,2.74-.18,.62-.19,1.24-.07,1.83l-9.79,2.5c-.57-2.01-2.14-3.68-4.3-4.29-.84-.23-1.69-.27-2.5-.17l-2.89-17.29c1.39-.3,2.58-1.34,2.98-2.81,.57-2.1-.65-4.29-2.76-4.87-2.11-.59-4.29,.65-4.88,2.76-.58,2.1,.66,4.28,2.76,4.88,.51,.14,1.02,.17,1.51,.11l2.89,17.3c-1.65,.34-3.12,1.33-4.02,2.78l-4.03-2.4c.05-.1,.1-.22,.13-.33,.31-1.12-.35-2.28-1.47-2.6-1.12-.3-2.29,.35-2.61,1.47-.31,1.13,.35,2.29,1.48,2.6,.88,.24,1.76-.11,2.27-.8l4.05,2.4c-.22,.41-.41,.83-.53,1.29-.42,1.47-.25,2.97,.35,4.27l-22.16,10.77c-.06-.1-.11-.21-.19-.3-.65-.88-1.62-1.39-2.62-1.5l1.53-15.45c.56,.02,1.12-.13,1.61-.5,1.09-.81,1.32-2.36,.5-3.45-.63-.84-1.69-1.17-2.65-.9l-.11,.03c-.25,.08-.48,.21-.71,.37-1.09,.82-1.32,2.36-.5,3.46,.41,.55,1,.87,1.63,.96l-1.53,15.46c-.83-.04-1.68,.2-2.4,.71l-12.88-17.26c1.05-.85,1.25-2.39,.43-3.48-.84-1.12-2.43-1.35-3.55-.51-.73,.56-1.09,1.43-1,2.28v.11c.07,.41,.23,.81,.49,1.17,.82,1.08,2.34,1.33,3.45,.58l12.88,17.26c-.79,.65-1.26,1.56-1.36,2.5v.12c-.06,.54,.02,1.09,.22,1.61l-35.37,17.2c-.5-1.01-1.23-1.9-2.15-2.57l13.45-19.66c.19,.11,.41,.21,.64,.27,1.45,.4,2.96-.45,3.36-1.91,.4-1.45-.44-2.95-1.9-3.35-1.46-.4-2.96,.44-3.36,1.9-.3,1.09,.11,2.21,.93,2.87l-13.44,19.66c-.59-.38-1.24-.68-1.94-.88-1.11-.3-2.2-.32-3.24-.11l-7.5-34.18c1.44-.38,2.66-1.5,3.08-3.05,.41-1.46,.02-2.97-.92-4.05l12.27-11.24c.32,.32,.71,.56,1.18,.7,.66,.19,1.34,.09,1.92-.2l3,5.32c-.38,.25-.68,.62-.82,1.09-.28,1,.31,2.04,1.32,2.33,1.01,.27,2.06-.31,2.34-1.33,.28-1-.31-2.05-1.31-2.33-.48-.13-.95-.06-1.36,.13l-3.01-5.32c.55-.33,.98-.87,1.16-1.53,.1-.35,.12-.7,.08-1.04l-.03-.19c-.19-.95-.89-1.75-1.88-2.03-1.41-.39-2.87,.44-3.25,1.84-.25,.88-.02,1.78,.52,2.42l-12.27,11.23c-.53-.55-1.2-.97-1.99-1.19-2.33-.65-4.74,.71-5.39,3.04-.65,2.33,.72,4.74,3.04,5.38,.65,.18,1.3,.21,1.92,.1l7.5,34.17c-2.36,.6-4.34,2.41-5.03,4.92,0,0,0,.01,0,.02l-34.5-9.58s0-.01,0-.02c.67-2.42-.13-4.9-1.86-6.5l7.13-8.55c.44,.34,.95,.6,1.51,.76,2.38,.67,4.84-.73,5.5-3.11,.66-2.38-.73-4.84-3.12-5.5-2.37-.66-4.84,.72-5.5,3.1-.48,1.68,.09,3.4,1.3,4.5l-7.13,8.54c-.66-.54-1.46-.97-2.36-1.22-1.85-.51-3.72-.16-5.22,.8l-20.56-30.17c1.1-.8,1.94-1.96,2.33-3.38,.52-1.83,.15-3.69-.83-5.16l10.59-7.59c.41,.49,.95,.87,1.61,1.05,1.69,.47,3.44-.51,3.91-2.2,.47-1.69-.52-3.43-2.21-3.9-1.69-.47-3.43,.52-3.9,2.21-.25,.89-.09,1.8,.37,2.52l-10.58,7.59c-.8-1.04-1.93-1.84-3.29-2.22-1.67-.47-3.38-.2-4.78,.6l-.33,.2c-1.1,.73-1.97,1.79-2.45,3.12l-2.94-1.01s0-.01,0-.02c.28-1-.32-2.04-1.32-2.32-1.01-.28-2.06,.31-2.33,1.32-.28,1.01,.3,2.05,1.31,2.33,.94,.26,1.9-.23,2.25-1.12l2.95,1.01c-.03,.09-.07,.17-.09,.26-.55,1.97-.08,3.99,1.08,5.5l.25,.31c.78,.88,1.82,1.56,3.03,1.89,.22,.07,.45,.12,.67,.15l-1.57,12.05c-1.66-.12-3.23,.93-3.7,2.59-.52,1.89,.58,3.86,2.48,4.38,1.89,.53,3.84-.58,4.37-2.47,.53-1.89-.58-3.86-2.47-4.38-.1-.03-.2-.05-.3-.07l1.57-12.05c1.43,.15,2.82-.22,3.98-.95l20.58,30.17c-1.14,.83-2.03,2.03-2.43,3.49-.5,1.8-.19,3.64,.72,5.12l-22.54,14.08c-.54-.79-1.35-1.4-2.35-1.66-2.25-.63-4.58,.69-5.2,2.93-.48,1.73,.19,3.51,1.54,4.51l.16,.12c.37,.25,.79,.45,1.24,.58,2.25,.62,4.58-.69,5.21-2.94,.32-1.13,.14-2.27-.39-3.21l22.55-14.08c.8,1.16,2.01,2.07,3.47,2.5l-9.93,35.47c-2.25-.52-4.54,.81-5.16,3.06-.64,2.31,.71,4.7,3.02,5.35,1.52,.41,3.06-.02,4.13-1.04l6.58,6.68c-.2,.21-.35,.47-.43,.76-.29,1.01,.31,2.06,1.32,2.34,1.01,.27,2.05-.32,2.34-1.32,.27-1.01-.32-2.06-1.33-2.33-.65-.19-1.3,0-1.76,.42l-6.57-6.67c.48-.5,.86-1.14,1.07-1.86,.62-2.24-.64-4.56-2.83-5.28l9.93-35.48c1.71,.4,3.43,.08,4.83-.77l2.17,3.44c-.34,.24-.62,.59-.75,1.03-.26,1.01,.32,2.06,1.33,2.34,1.01,.28,2.05-.32,2.33-1.32,.29-1.01-.3-2.05-1.31-2.33-.5-.13-1.01-.06-1.43,.18l-2.16-3.43c1.17-.75,2.1-1.9,2.58-3.3l34.54,9.59c-.55,2.54,.36,5.09,2.2,6.73l-6.39,7.56c-.51-.41-1.12-.72-1.8-.91-2.74-.76-5.57,.85-6.33,3.59-.39,1.4-.15,2.83,.54,4l-11.72,7.25c-.24-.33-.57-.59-.99-.71-.97-.26-1.97,.29-2.24,1.26-.26,.96,.29,1.96,1.26,2.23,.97,.27,1.97-.3,2.23-1.26,.14-.47,.07-.96-.15-1.36l11.72-7.25c.66,1.02,1.68,1.82,2.94,2.17,1.51,.42,3.04,.12,4.25-.69l4.84,6.92c-.27,.22-.5,.53-.6,.9-.26,.93,.29,1.89,1.21,2.15,.93,.25,1.88-.28,2.14-1.21,.26-.93-.28-1.89-1.22-2.14-.48-.14-.98-.05-1.38,.21l-4.84-6.93c.9-.66,1.61-1.62,1.93-2.78,.53-1.93-.11-3.9-1.49-5.18l6.4-7.55c.71,.56,1.54,1,2.47,1.26,2.55,.7,5.14-.08,6.87-1.83l23.1,21.15c-.35,.42-.61,.9-.76,1.45-.57,2.09,.64,4.24,2.72,4.81,2.08,.59,4.23-.64,4.81-2.72,.58-2.08-.63-4.24-2.72-4.81-1.39-.39-2.82,.03-3.79,.99l-23.1-21.15c.69-.78,1.23-1.71,1.52-2.78,.44-1.59,.3-3.21-.31-4.62l35.36-17.19c.06,.13,.13,.27,.21,.4l.14,.19s0,0,0,.01c.88,1.17,2.32,1.68,3.67,1.46l1.42,6.35c-.32,.09-.62,.23-.89,.44-1.16,.86-1.39,2.5-.53,3.65,.87,1.16,2.5,1.39,3.66,.52,1.16-.86,1.39-2.5,.52-3.65-.6-.82-1.6-1.17-2.54-1.01l-1.41-6.34c.49-.12,.98-.33,1.41-.66,.9-.67,1.41-1.66,1.49-2.7l.02-.22c.02-.59-.11-1.18-.37-1.73l22.13-10.77c.53,.99,1.33,1.81,2.32,2.39l-5.45,10.04c-.26-.13-.53-.24-.81-.31-2.5-.7-5.09,.77-5.8,3.27-.47,1.72,.07,3.49,1.28,4.65l-12.82,13.9c-.19-.16-.41-.29-.67-.35-.97-.27-1.97,.3-2.24,1.27-.28,.97,.3,1.97,1.26,2.24,.97,.27,1.97-.3,2.25-1.27,.18-.65-.02-1.3-.45-1.75l12.82-13.91c.52,.45,1.14,.81,1.85,1.01,1.25,.35,2.52,.16,3.58-.43l5.34,9.02c-.49,.32-.86,.8-1.04,1.4-.36,1.31,.41,2.66,1.71,3.02,1.3,.37,2.65-.4,3.01-1.71,.37-1.3-.4-2.65-1.7-3.02-.64-.19-1.29-.08-1.82,.21l-5.35-9.03c.97-.6,1.73-1.55,2.06-2.73,.58-2.09-.34-4.23-2.11-5.28l5.46-10.04c.35,.18,.71,.33,1.11,.43,1.63,.46,3.29,.21,4.66-.55l.33-.2c1.24-.79,2.2-2.02,2.63-3.56,.27-.99,.29-2,.08-2.95l9.8-2.5c.39,1.23,1.36,2.25,2.7,2.62,2.09,.58,4.25-.63,4.83-2.73,.59-2.09-.64-4.25-2.73-4.84Z" style="fill:#7b7b7b;"/><path d="M282.28,168.18c.38-.64,.16-1.46-.48-1.84-.64-.38-1.46-.17-1.84,.48-.02,.04-.03,.09-.05,.14l-2.52-1c.45-1.23-.03-2.64-1.2-3.33-.69-.41-1.49-.48-2.2-.25l-1.76-5.23c.38-.14,.71-.41,.93-.79,.51-.87,.22-2-.65-2.51-.88-.52-1.99-.22-2.51,.65-.51,.87-.22,1.99,.65,2.5,.46,.27,.98,.31,1.45,.17l1.75,5.23c-.59,.21-1.1,.62-1.44,1.2-.63,1.07-.45,2.4,.35,3.27l-10.64,10.85c-.29-.27-.6-.51-.95-.72-1.31-.76-2.81-.91-4.16-.54l-.25,.08c-.99,.33-1.87,.93-2.54,1.78l-2.31-1.72s.04-.05,.05-.08c.56-.95,.24-2.18-.71-2.74-.96-.56-2.18-.24-2.74,.7-.56,.96-.25,2.19,.71,2.74,.85,.5,1.91,.3,2.54-.43l2.31,1.73c-.1,.13-.17,.25-.26,.38-.65,1.12-.86,2.37-.68,3.54l-16.6,2.94c-.19-.8-.68-1.52-1.44-1.98-1.46-.86-3.33-.37-4.18,1.09-.86,1.45-.37,3.33,1.08,4.18,1.46,.86,3.33,.37,4.19-1.09,.36-.61,.48-1.3,.39-1.95l16.6-2.93c.3,1.44,1.17,2.77,2.55,3.56,.43,.25,.88,.43,1.34,.55l-2.76,11.56c-1.65-.33-3.4,.38-4.3,1.91-1.13,1.93-.49,4.41,1.45,5.55,1.92,1.13,4.4,.48,5.54-1.44,1.13-1.93,.49-4.41-1.44-5.54-.32-.18-.65-.31-.98-.41l2.76-11.56c.91,.19,1.84,.13,2.71-.13l.25-.09c1.13-.41,2.14-1.19,2.8-2.31,.29-.48,.49-1,.61-1.51l.05-.27c.3-1.69-.23-3.44-1.43-4.69l10.64-10.85c.13,.12,.27,.23,.44,.32,1.32,.77,3.01,.33,3.78-.99,.06-.11,.11-.21,.16-.32l2.52,.99c-.2,.59,.03,1.26,.59,1.59,.64,.37,1.46,.16,1.83-.48Z" style="fill:#7b7b7b;"/><path d="M359.71,98.97c-.99,.25-1.57,1.26-1.32,2.24,.25,.98,1.26,1.57,2.24,1.31,.07-.02,.12-.05,.19-.08l1.47,3.4c-1.62,.75-2.52,2.57-2.06,4.37,.27,1.07,.98,1.9,1.88,2.37l-3.35,6.75c-.5-.23-1.09-.29-1.66-.14-1.33,.35-2.14,1.71-1.8,3.05,.35,1.34,1.71,2.14,3.05,1.8,1.33-.34,2.14-1.71,1.79-3.05-.18-.7-.64-1.24-1.23-1.57l3.36-6.73c.77,.37,1.66,.47,2.55,.23,1.65-.43,2.76-1.88,2.82-3.5l20.76-.2c.02,.54,.09,1.07,.23,1.61,.52,2.01,1.83,3.6,3.5,4.55l.32,.16c1.26,.63,2.7,.91,4.18,.74l.57,3.89s-.09,.01-.12,.03c-1.46,.38-2.34,1.87-1.96,3.33,.38,1.46,1.87,2.34,3.33,1.96,1.46-.39,2.34-1.88,1.96-3.34-.34-1.3-1.56-2.14-2.85-2.04l-.56-3.89c.21-.03,.41-.07,.61-.12,1.71-.45,3.11-1.46,4.07-2.77l18.87,13.2c-.6,.95-.83,2.13-.53,3.3,.58,2.24,2.87,3.57,5.09,2.99,2.24-.58,3.58-2.86,3-5.1-.58-2.24-2.86-3.57-5.1-3-.94,.25-1.71,.8-2.26,1.51l-18.88-13.21c1.11-1.68,1.54-3.8,.99-5.9-.17-.66-.44-1.27-.76-1.83l13.84-8.5c1.27,1.92,3.65,2.92,6,2.31,2.95-.76,4.73-3.78,3.96-6.75-.77-2.96-3.79-4.72-6.74-3.96-2.96,.76-4.73,3.79-3.97,6.74,.13,.48,.32,.93,.56,1.34l-13.83,8.5c-.7-1.06-1.66-1.9-2.75-2.49l-.32-.16c-1.5-.69-3.22-.91-4.93-.46-.75,.19-1.43,.49-2.05,.88l-.3,.21c-1.92,1.34-3.1,3.54-3.15,5.91l-20.76,.2c0-.24-.05-.48-.11-.73-.52-2.01-2.58-3.22-4.6-2.7-.16,.05-.32,.1-.47,.16l-1.48-3.39c.76-.37,1.19-1.25,.97-2.11-.26-.98-1.26-1.57-2.24-1.31Z" style="fill:#7b7b7b;"/></g><g><g><path d="M5.57,201.84c2.74-.32,4.69-2.8,4.37-5.54-.11-.98-.51-1.87-1.1-2.58l29.2-26.15c.67,.66,1.62,1.02,2.63,.9,.61-.07,1.17-.32,1.63-.68l13.2,14.49c-1.05,1.05-1.63,2.54-1.44,4.12,.24,2.07,1.72,3.69,3.61,4.23l-5.27,22.48c-.29-.05-.59-.06-.9-.02-1.77,.21-3.03,1.81-2.82,3.57,.21,1.76,1.81,3.03,3.57,2.82,1.77-.21,3.03-1.81,2.82-3.58-.16-1.3-1.07-2.33-2.25-2.7l5.26-22.48c.49,.09,1,.12,1.51,.06,2.74-.33,4.69-2.8,4.37-5.54-.06-.52-.21-1.02-.41-1.48l19.06-9.64c.87,1.57,2.41,2.67,4.2,2.96l-3.69,29.4c-.22-.02-.44,0-.65,.02-1.97,.23-3.37,2.01-3.14,3.98,.23,1.97,2.01,3.38,3.98,3.15,.91-.11,1.7-.55,2.26-1.19l9.24,6.87c-.27,.41-.41,.9-.35,1.42,.13,1.16,1.18,1.99,2.34,1.85,1.16-.14,1.99-1.18,1.84-2.35-.13-1.16-1.18-1.99-2.34-1.85-.57,.07-1.04,.35-1.38,.75l-9.22-6.86c.57-.72,.86-1.66,.74-2.63-.19-1.6-1.4-2.83-2.9-3.11l3.68-29.4c.4,.03,.8,.03,1.21-.02,1.9-.22,3.47-1.33,4.37-2.86l8.28,4.48c-.32,.66-.45,1.4-.36,2.18,.26,2.2,2.25,3.77,4.44,3.51,2.2-.26,3.76-2.25,3.5-4.45-.26-2.19-2.25-3.76-4.44-3.51-1.27,.15-2.33,.88-2.94,1.89l-8.28-4.48c.49-.99,.71-2.12,.57-3.29-.23-1.9-1.34-3.48-2.88-4.38l16.17-30.08c1.14,.58,2.46,.83,3.83,.67,.25-.03,.49-.07,.73-.13l3.38,12.78c-1.72,.56-2.87,2.27-2.65,4.13,.25,2.12,2.17,3.64,4.29,3.4,2.12-.25,3.63-2.17,3.39-4.3-.25-2.12-2.17-3.64-4.29-3.39-.11,0-.22,.03-.33,.06l-3.38-12.78c1.49-.44,2.74-1.37,3.61-2.59l33.08,21.91c-.81,1.3-1.2,2.88-1.01,4.52,.24,2.01,1.31,3.73,2.83,4.84l-16.88,23.44c-.87-.57-1.93-.85-3.04-.72-2.52,.3-4.32,2.58-4.03,5.11,.23,1.93,1.63,3.44,3.41,3.91l-5.35,22.87c-.19-.04-.37-.05-.56-.03-1.05,.13-1.81,1.08-1.69,2.14,.12,1.06,1.08,1.81,2.14,1.69,1.05-.13,1.81-1.08,1.68-2.13-.09-.8-.65-1.42-1.36-1.62l5.35-22.86c.47,.1,.97,.13,1.48,.07,2.52-.3,4.33-2.58,4.03-5.1-.15-1.26-.8-2.33-1.71-3.06l16.87-23.45c1.29,.84,2.87,1.26,4.52,1.09l4.6,39.78c-2.48,.4-4.23,2.69-3.93,5.21,.3,2.58,2.65,4.44,5.23,4.14,1.7-.2,3.06-1.28,3.74-2.74l9.35,4.02c-.11,.3-.16,.62-.12,.95,.13,1.13,1.15,1.94,2.28,1.81,1.13-.13,1.93-1.16,1.8-2.28-.13-1.13-1.16-1.94-2.29-1.81-.72,.08-1.3,.54-1.6,1.14l-9.34-4.01c.29-.71,.4-1.5,.31-2.31-.3-2.51-2.52-4.33-5.01-4.15l-4.61-39.8c1.88-.3,3.48-1.33,4.54-2.76l3.59,2.57c-.25,.39-.37,.85-.32,1.35,.13,1.13,1.16,1.94,2.29,1.8,1.13-.13,1.93-1.15,1.8-2.28-.13-1.13-1.16-1.94-2.28-1.81-.56,.07-1.05,.35-1.37,.77l-3.58-2.57c.86-1.25,1.32-2.78,1.24-4.39l38.67-4.54c.5,2.78,2.45,4.98,4.99,5.87l-3.33,10.24c-.69-.2-1.43-.26-2.18-.17-3.06,.36-5.26,3.14-4.9,6.21,.19,1.58,1.01,2.92,2.18,3.81l-8.79,12.12c-.37-.25-.82-.36-1.3-.32-1.08,.13-1.85,1.11-1.73,2.19,.13,1.08,1.1,1.86,2.18,1.73,1.08-.13,1.85-1.11,1.73-2.19-.07-.53-.33-.98-.72-1.29l8.8-12.12c1.08,.76,2.43,1.14,3.85,.98,1.69-.2,3.1-1.13,3.98-2.44l7.72,4.98c-.19,.34-.29,.73-.24,1.15,.12,1.04,1.06,1.78,2.1,1.66,1.04-.12,1.78-1.06,1.66-2.1-.12-1.04-1.07-1.78-2.1-1.66-.55,.06-1,.36-1.3,.77l-7.72-4.97c.63-1.04,.95-2.29,.79-3.59-.25-2.16-1.71-3.89-3.62-4.59l3.33-10.24c.95,.27,1.96,.37,3,.25,2.84-.33,5.13-2.19,6.16-4.66l.15-.4c.37-1.07,.52-2.22,.39-3.42-.21-1.78-1.02-3.35-2.21-4.53l51.79-57.88c.93,.77,2.08,1.28,3.31,1.45l-1.36,12.34c-.31-.02-.63-.01-.95,.02-2.8,.33-4.8,2.87-4.47,5.68,.23,1.93,1.51,3.48,3.2,4.15l-7.16,19.26c-.26-.08-.54-.11-.82-.08-1.09,.13-1.86,1.11-1.74,2.2,.13,1.09,1.12,1.87,2.2,1.74,1.09-.13,1.86-1.12,1.73-2.2-.08-.73-.55-1.31-1.18-1.58l7.16-19.27c.71,.25,1.48,.35,2.28,.26,1.4-.17,2.6-.88,3.41-1.91l9.08,6.88c-.36,.51-.54,1.16-.46,1.83,.17,1.46,1.5,2.51,2.96,2.33,1.45-.17,2.5-1.49,2.33-2.95-.17-1.46-1.5-2.5-2.95-2.33-.71,.08-1.33,.44-1.74,.95l-9.09-6.89c.73-1,1.1-2.26,.94-3.59-.27-2.34-2.08-4.11-4.3-4.46l1.36-12.34c.43,.04,.86,.03,1.3-.02,1.83-.22,3.39-1.15,4.46-2.48l44.68,32.69c-.94,1.37-1.5,3-1.52,4.74l-4.62,.03s0-.1,0-.14c-.21-1.76-1.8-3.03-3.56-2.82-1.76,.21-3.02,1.8-2.81,3.57,.21,1.76,1.8,3.02,3.56,2.82,1.57-.18,2.74-1.47,2.83-2.99l4.62-.03c0,.24,.02,.49,.05,.74,.24,2.05,1.19,3.85,2.57,5.19l-18.39,19.84c-1-.85-2.34-1.3-3.75-1.14-2.69,.32-4.62,2.76-4.3,5.45,.31,2.69,2.76,4.62,5.45,4.3,2.69-.31,4.61-2.75,4.3-5.45-.14-1.13-.64-2.12-1.39-2.87l18.4-19.85c1.77,1.57,4.17,2.4,6.7,2.1,.8-.09,1.56-.31,2.27-.6l7.66,17.48c-2.44,1.17-3.98,3.78-3.65,6.62,.42,3.57,3.65,6.12,7.21,5.7,3.56-.42,6.11-3.65,5.7-7.21-.43-3.56-3.66-6.12-7.22-5.7-.58,.07-1.13,.22-1.65,.43l-7.66-17.48c3.27-1.54,5.35-5.04,4.9-8.83-.11-.89-.34-1.74-.7-2.53l-.2-.38c-1.25-2.46-3.61-4.19-6.36-4.62l3.09-24.21c.28,.03,.57,.02,.87-.02,2.43-.28,4.17-2.49,3.88-4.92-.02-.2-.07-.39-.11-.57l4.18-1.18c.32,.95,1.26,1.58,2.3,1.46,1.19-.14,2.03-1.21,1.89-2.4-.14-1.18-1.21-2.03-2.39-1.89-1.18,.14-2.03,1.21-1.89,2.4,.01,.08,.04,.15,.05,.23l-4.18,1.17c-.62-2-2.59-3.35-4.75-3.1-1.29,.15-2.37,.84-3.07,1.82l-7.31-5.01c.35-.55,.52-1.22,.44-1.91-.18-1.61-1.64-2.77-3.26-2.57-1.61,.19-2.76,1.65-2.58,3.26,.2,1.61,1.66,2.76,3.27,2.58,.84-.1,1.55-.55,2.01-1.18l7.31,5c-.54,.84-.81,1.86-.68,2.93,.23,1.99,1.76,3.52,3.63,3.85l-3.1,24.21c-.62-.06-1.26-.08-1.91,0-2.41,.29-4.47,1.54-5.84,3.33l-44.67-32.69c.92-1.3,1.38-2.94,1.18-4.65-.13-1.12-.54-2.14-1.13-3.01l8.82-6.55c.89,1.08,2.3,1.7,3.79,1.53,2.34-.27,4.01-2.39,3.74-4.74-.27-2.34-2.39-4.02-4.73-3.74-2.34,.28-4.01,2.4-3.74,4.73,.09,.7,.33,1.33,.69,1.87l-8.82,6.55c-1.4-1.79-3.66-2.83-6.08-2.55-.95,.11-1.81,.41-2.59,.86l-10-16.22c1.27-.87,2.03-2.4,1.83-4.04-.28-2.36-2.42-4.06-4.78-3.77-2.36,.27-4.04,2.41-3.76,4.78,.28,2.36,2.42,4.05,4.78,3.77,.57-.07,1.1-.24,1.57-.51l10.01,16.22c-1.52,1.02-2.58,2.63-2.9,4.46l-5.04-.75c0-.13,0-.26,0-.39-.15-1.26-1.28-2.16-2.55-2.02-1.25,.15-2.15,1.29-2.01,2.55,.15,1.26,1.29,2.16,2.55,2.01,.98-.11,1.73-.82,1.95-1.73l5.04,.75c-.05,.5-.06,1,0,1.51,.2,1.66,.98,3.09,2.11,4.15l-51.78,57.88c-.91-.81-2.01-1.4-3.22-1.7l5.43-25.33c.25,.03,.5,.04,.76,0,1.63-.19,2.79-1.67,2.6-3.29-.19-1.63-1.66-2.79-3.29-2.61-1.62,.2-2.79,1.67-2.6,3.3,.14,1.22,1.01,2.18,2.12,2.5l-5.43,25.32c-.75-.14-1.53-.18-2.32-.08-1.23,.14-2.34,.57-3.3,1.21l-21.59-31.31c1.3-.98,2.05-2.6,1.85-4.34-.19-1.66-1.21-3-2.59-3.7l7.72-16.36c.45,.2,.94,.28,1.47,.22,.75-.09,1.39-.46,1.84-.99l5.22,4.12c-.28,.4-.43,.9-.37,1.43,.14,1.13,1.16,1.93,2.29,1.8,1.13-.13,1.93-1.16,1.8-2.29-.14-1.13-1.16-1.93-2.29-1.8-.53,.06-.98,.32-1.3,.69l-5.21-4.13c.41-.57,.62-1.28,.54-2.03-.04-.39-.17-.75-.35-1.07l18.16-11.12c.37,.54,1.02,.87,1.73,.78,1.01-.12,1.74-1.04,1.62-2.05-.12-1.01-1.04-1.74-2.05-1.62-1.02,.12-1.74,1.04-1.62,2.05,.02,.23,.1,.46,.21,.65l-18.16,11.12c-.58-.87-1.61-1.4-2.72-1.26-1.58,.18-2.7,1.61-2.51,3.18,.11,.98,.71,1.79,1.52,2.22l-7.72,16.36c-.76-.34-1.61-.49-2.49-.38-2.6,.3-4.47,2.66-4.16,5.28,.31,2.61,2.67,4.48,5.28,4.16,.72-.08,1.38-.33,1.96-.69l21.59,31.31c-2.12,1.57-3.37,4.21-3.04,7.02,0,0,0,.01,0,.02l-38.62,4.53s0-.02,0-.02c-.32-2.71-2.14-4.88-4.54-5.78l3.65-11.53c.58,.15,1.2,.2,1.83,.13,2.66-.31,4.57-2.73,4.25-5.39-.31-2.67-2.72-4.57-5.39-4.26-2.66,.31-4.56,2.72-4.25,5.39,.22,1.88,1.49,3.38,3.15,4l-3.65,11.52c-.91-.27-1.88-.38-2.88-.26-2.07,.24-3.82,1.37-4.93,2.95l-33.09-21.91c.78-1.26,1.16-2.78,.98-4.37-.24-2.04-1.38-3.77-2.97-4.84l7.52-11.99c.6,.33,1.31,.49,2.04,.4,1.89-.21,3.24-1.93,3.01-3.82-.22-1.89-1.93-3.24-3.82-3.02-1.88,.22-3.23,1.93-3.01,3.82,.12,1,.65,1.85,1.41,2.39l-7.53,11.99c-1.23-.72-2.69-1.07-4.22-.89-1.87,.22-3.48,1.19-4.55,2.57l-15.97-11.73c.46-.71,.69-1.58,.58-2.49-.24-2.07-2.12-3.54-4.17-3.3-2.06,.24-3.54,2.11-3.29,4.17,.24,2.06,2.11,3.54,4.17,3.29,1-.12,1.86-.62,2.46-1.34l15.98,11.73c-.81,1.19-1.25,2.62-1.18,4.14l-3.37,.19s0,0,0-.01c-.13-1.13-1.16-1.94-2.28-1.81-1.13,.13-1.94,1.16-1.8,2.29,.13,1.13,1.15,1.94,2.28,1.8,1.05-.12,1.82-1.02,1.81-2.06l3.38-.19c0,.1,0,.2,.02,.29,.26,2.21,1.56,4.05,3.35,5.09l-16.18,30.08c-.98-.48-2.11-.71-3.28-.57-.79,.09-1.54,.34-2.19,.71l-10.14-16.6c1.26-.87,2.01-2.38,1.82-4-.27-2.33-2.39-4-4.71-3.72-2.33,.27-3.99,2.38-3.72,4.71,.27,2.33,2.38,4,4.71,3.72,.55-.06,1.07-.24,1.53-.49l10.14,16.61c-1.79,1.18-2.86,3.3-2.59,5.58,.07,.63,.25,1.22,.5,1.77l-19.06,9.64c-.95-1.71-2.87-2.76-4.93-2.52-1.01,.11-1.9,.52-2.62,1.13l-13.2-14.49c.64-.67,.99-1.62,.88-2.62-.21-1.77-1.82-3.03-3.59-2.83-1.76,.21-3.03,1.81-2.82,3.59,.07,.61,.31,1.16,.67,1.61l-29.21,26.15c-1.04-1.07-2.55-1.66-4.15-1.48-2.73,.32-4.69,2.8-4.37,5.54,.32,2.74,2.8,4.7,5.54,4.38Z" style="fill:#7b7b7b;"/><path d="M355.53,126.34c.61,.19,1.08,.62,1.36,1.14l4.02-1.64c-.53-1.34-.63-2.85-.16-4.34,.78-2.48,2.91-4.15,5.33-4.46l.41-.04c.78-.05,1.59,.03,2.38,.28,3.42,1.07,5.32,4.71,4.24,8.12-.09,.28-.19,.55-.32,.81l37.72,17.3c1.03-2.01,3.38-3.04,5.6-2.34,2.48,.78,3.86,3.42,3.08,5.9-.78,2.48-3.42,3.86-5.9,3.08-2.48-.78-3.87-3.42-3.09-5.9,.04-.12,.08-.24,.14-.36l-37.74-17.3c-1.45,2.65-4.62,4.01-7.62,3.06-1.79-.56-3.16-1.84-3.91-3.42l-4.04,1.65c.13,.42,.14,.89,0,1.36-.38,1.21-1.67,1.88-2.88,1.5-1.21-.38-1.88-1.66-1.5-2.87,.38-1.2,1.67-1.88,2.87-1.5Z" style="fill:#7b7b7b;"/><path d="M246.35,177.3c.17-.09,.34-.18,.52-.25,1.73-.7,3.59-.51,5.08,.35l3-4.57c-.61-.5-.88-1.33-.63-2.12,.33-1.04,1.45-1.61,2.48-1.27,1.03,.34,1.6,1.45,1.27,2.48-.33,1.04-1.44,1.6-2.48,1.27-.1-.03-.2-.08-.29-.13l-2.99,4.56c.93,.63,1.69,1.53,2.14,2.65,.35,.87,.47,1.77,.4,2.64l15.65,1.71c.17-.9,.77-1.71,1.68-2.08,1.42-.58,3.04,.11,3.61,1.53,.58,1.42-.1,3.04-1.52,3.62-1.42,.58-3.04-.11-3.62-1.53-.15-.38-.21-.78-.19-1.16l-15.65-1.72c-.29,1.98-1.58,3.77-3.57,4.58-.7,.29-1.44,.42-2.15,.43l-.2,7.94c1.5,.11,2.89,1.05,3.49,2.54,.85,2.1-.15,4.48-2.25,5.33-2.1,.85-4.48-.16-5.33-2.25-.85-2.1,.15-4.49,2.25-5.34,.48-.19,.97-.29,1.46-.3l.2-7.94c-2.17-.13-4.19-1.47-5.06-3.63-1.09-2.68-.03-5.7,2.36-7.16l.33-.19Z" style="fill:#7b7b7b;"/><path d="M311.08,52.03c-.44-1.07-.27-2.24,.34-3.14l-9.33-7.39c-.35,.4-.8,.74-1.32,.94-.91,.37-1.88,.34-2.72,0l-.43-.22c-.69-.39-1.27-1-1.6-1.79-.54-1.33-.22-2.78,.67-3.79l.35-.33c.29-.25,.61-.47,.99-.62,1.38-.57,2.89-.21,3.9,.76l9.78-8.86c-.21-.26-.4-.55-.53-.88-.76-1.87,.14-3.98,2-4.74,1.87-.76,4,.14,4.75,2,.75,1.86-.14,3.98-2.01,4.74-1.38,.56-2.9,.21-3.9-.76l-9.78,8.86c.21,.27,.4,.55,.54,.88,.48,1.18,.29,2.46-.38,3.44l9.32,7.39c.33-.36,.73-.65,1.2-.85,1.72-.69,3.66,.13,4.36,1.84,.69,1.7-.14,3.65-1.84,4.34-1.71,.7-3.66-.13-4.35-1.84Z" style="fill:#7b7b7b;"/><path d="M297.86,194.85c1.42-.58,2.96-.32,4.12,.54l7.29-8.87c-.65-.58-1.19-1.31-1.54-2.18-.58-1.43-.55-2.95-.05-4.28l.17-.39c.6-1.3,1.67-2.38,3.1-2.96,2.5-1.01,5.27-.18,6.84,1.85l.25,.34c.21,.32,.4,.68,.55,1.04,.81,2.01,.44,4.19-.79,5.78l-.27,.32c-.58,.65-1.31,1.18-2.17,1.53-2,.81-4.17,.44-5.76-.77l-7.29,8.87c.45,.41,.83,.92,1.08,1.53,.67,1.63,.24,3.43-.95,4.6l17.24,19.23c.32-.25,.66-.49,1.06-.65,2.17-.88,4.64,.16,5.52,2.34,.89,2.16-.16,4.63-2.33,5.51-2.17,.88-4.64-.16-5.53-2.33-.66-1.63-.23-3.44,.95-4.61l-17.24-19.22c-.31,.26-.66,.48-1.06,.64-2.17,.88-4.64-.16-5.52-2.33-.88-2.17,.16-4.64,2.33-5.52Z" style="fill:#7b7b7b;"/><path d="M384.79,81.7c-.48,.54-1.09,.97-1.8,1.27-1.97,.8-4.16,.22-5.5-1.28l-11.75,9.63c.17,.24,.33,.49,.44,.77,.75,1.87-.14,4-2.01,4.77-1.87,.76-4-.14-4.76-2.01-.37-.92-.34-1.9,0-2.76l.19-.38c.39-.71,1-1.3,1.82-1.63,1.44-.59,3.04-.17,4.05,.92l11.74-9.64c-.25-.33-.46-.69-.62-1.09-1.02-2.52,.18-5.39,2.7-6.4,2.52-1.03,5.38,.18,6.4,2.7,.68,1.67,.37,3.48-.63,4.82l-.27,.32Z" style="fill:#7b7b7b;"/></g><g><path d="M408.57,145.88c-.11-3.39,2.56-6.23,5.94-6.34,3.39-.11,6.23,2.56,6.34,5.94,.11,3.39-2.56,6.23-5.95,6.34-3.39,.11-6.23-2.56-6.34-5.95Zm12.01-.39c-.1-3.23-2.82-5.78-6.06-5.68-3.24,.1-5.78,2.82-5.68,6.06,.1,3.24,2.82,5.79,6.06,5.68,3.23-.1,5.78-2.82,5.68-6.06Z" style="fill:#7b7b7b;"/><path d="M374.39,78.62c-.12-3.72,2.81-6.84,6.52-6.96,3.72-.12,6.84,2.81,6.96,6.52,.12,3.72-2.8,6.84-6.52,6.96-3.72,.12-6.84-2.81-6.96-6.53Zm13.18-.42c-.11-3.55-3.09-6.35-6.64-6.23-3.55,.11-6.35,3.09-6.23,6.64,.12,3.55,3.09,6.35,6.64,6.23,3.55-.12,6.34-3.09,6.23-6.64Z" style="fill:#7b7b7b;"/><path d="M299.22,34.21c2.68-.08,4.94,2.03,5.02,4.71,.09,2.68-2.03,4.94-4.71,5.02-2.68,.09-4.94-2.03-5.02-4.71-.08-2.68,2.03-4.94,4.71-5.02Zm.31,9.49c2.55-.08,4.56-2.22,4.47-4.77-.08-2.55-2.22-4.56-4.77-4.48-2.54,.08-4.55,2.22-4.47,4.77,.08,2.54,2.23,4.55,4.77,4.47Z" style="fill:#7b7b7b;"/><path d="M281.14,71.98c-.1-3.13,2.37-5.76,5.5-5.86,3.13-.1,5.76,2.37,5.86,5.5,.1,3.13-2.37,5.76-5.5,5.86-3.13,.1-5.76-2.37-5.86-5.49Zm11.11-.36c-.09-3-2.61-5.35-5.61-5.26-3,.09-5.36,2.61-5.26,5.61,.09,3,2.61,5.35,5.61,5.26,2.99-.1,5.35-2.61,5.26-5.6Z" style="fill:#7b7b7b;"/><path d="M186.09,88.73c-.07-2.2,1.66-4.04,3.85-4.11,2.19-.07,4.04,1.66,4.11,3.86,.07,2.19-1.66,4.03-3.85,4.1-2.19,.07-4.04-1.66-4.11-3.85Zm7.81-.25c-.07-2.11-1.84-3.77-3.95-3.71-2.11,.07-3.77,1.84-3.7,3.95,.07,2.11,1.84,3.77,3.95,3.7,2.11-.07,3.77-1.84,3.7-3.95Z" style="fill:#7b7b7b;"/><path d="M325.2,89.64c-.1-3.17,2.4-5.83,5.56-5.93,3.17-.1,5.83,2.39,5.93,5.56,.1,3.17-2.39,5.83-5.56,5.93-3.17,.1-5.83-2.4-5.93-5.57Zm11.29-.36c-.1-3.06-2.66-5.47-5.72-5.37-3.06,.1-5.47,2.67-5.37,5.72,.1,3.06,2.66,5.47,5.72,5.37,3.06-.1,5.47-2.66,5.37-5.72Z" style="fill:#7b7b7b;"/><path d="M292.54,156.57c-.11-3.35,2.53-6.17,5.88-6.27,3.35-.11,6.17,2.53,6.28,5.88,.11,3.36-2.53,6.17-5.89,6.28-3.35,.11-6.17-2.53-6.28-5.89Zm11.92-.38c-.1-3.22-2.81-5.75-6.02-5.65-3.22,.1-5.75,2.81-5.65,6.02,.1,3.22,2.8,5.75,6.02,5.65,3.22-.1,5.75-2.81,5.65-6.03Z" style="fill:#7b7b7b;"/><path d="M295.52,202.94c-2.31-2.16-2.42-5.8-.26-8.12,2.17-2.31,5.8-2.42,8.11-.26,2.31,2.16,2.42,5.81,.26,8.12-2.16,2.31-5.81,2.42-8.12,.26Zm7.69-8.2c-2.21-2.07-5.69-1.96-7.77,.25-2.08,2.21-1.96,5.7,.25,7.77,2.21,2.08,5.7,1.96,7.77-.25,2.07-2.21,1.96-5.7-.25-7.77Z" style="fill:#7b7b7b;"/><path d="M256.48,182.27c.13,4.11-3.1,7.55-7.2,7.69-4.11,.13-7.55-3.1-7.68-7.21-.13-4.11,3.1-7.55,7.2-7.68,4.11-.13,7.55,3.1,7.68,7.21Zm-14.64,.47c.13,3.97,3.46,7.1,7.43,6.97,3.97-.13,7.1-3.47,6.97-7.43-.13-3.97-3.46-7.1-7.43-6.97-3.97,.13-7.1,3.46-6.97,7.43Z" style="fill:#7b7b7b;"/><path d="M198.25,153.68c-.17-5.23,3.95-9.62,9.18-9.79,5.23-.17,9.62,3.95,9.79,9.18,.17,5.23-3.95,9.62-9.18,9.79-5.23,.17-9.62-3.95-9.79-9.18Zm18.73-.6c-.16-5.1-4.44-9.11-9.54-8.95-5.09,.16-9.1,4.44-8.94,9.54,.16,5.1,4.44,9.11,9.54,8.95,5.09-.17,9.11-4.44,8.95-9.54Z" style="fill:#7b7b7b;"/><path d="M101.26,130.26c-.15-4.78,3.61-8.79,8.39-8.94,4.78-.15,8.79,3.61,8.94,8.39,.15,4.78-3.61,8.79-8.39,8.94-4.78,.15-8.79-3.61-8.95-8.39Zm17.09-.55c-.15-4.64-4.05-8.3-8.69-8.15-4.65,.15-8.3,4.05-8.15,8.7,.15,4.64,4.05,8.3,8.69,8.15,4.64-.15,8.3-4.05,8.15-8.7Z" style="fill:#7b7b7b;"/><path d="M125.08,192.73c-.1-3.24,2.45-5.97,5.69-6.07,3.25-.1,5.97,2.45,6.08,5.7,.1,3.25-2.46,5.97-5.7,6.08-3.25,.1-5.97-2.45-6.07-5.7Zm11.62-.37c-.1-3.16-2.76-5.65-5.92-5.55-3.16,.1-5.65,2.76-5.55,5.92,.1,3.16,2.75,5.65,5.92,5.55,3.16-.1,5.65-2.76,5.55-5.92Z" style="fill:#7b7b7b;"/><path d="M78.09,210.23c-.09-2.64,1.99-4.86,4.63-4.94,2.64-.09,4.85,1.99,4.94,4.63,.08,2.64-1.99,4.85-4.63,4.94-2.64,.09-4.86-1.99-4.94-4.63Zm9.42-.3c-.08-2.55-2.22-4.57-4.78-4.49-2.55,.08-4.56,2.23-4.48,4.78,.08,2.55,2.23,4.56,4.78,4.48,2.55-.08,4.56-2.23,4.48-4.78Z" style="fill:#7b7b7b;"/><path d="M35.42,165.39c-.09-2.69,2.03-4.94,4.71-5.03,2.68-.09,4.94,2.03,5.03,4.72,.09,2.68-2.03,4.94-4.71,5.03-2.69,.08-4.94-2.03-5.02-4.71Zm9.54-.3c-.08-2.58-2.25-4.61-4.82-4.52-2.57,.08-4.6,2.25-4.52,4.82,.08,2.57,2.25,4.6,4.82,4.52,2.57-.08,4.6-2.24,4.52-4.82Z" style="fill:#7b7b7b;"/><path d="M278.01,120.59c-.07-2.08,1.57-3.82,3.65-3.89,2.08-.07,3.82,1.57,3.89,3.65,.07,2.08-1.57,3.82-3.65,3.89-2.08,.07-3.83-1.57-3.89-3.65Zm7.38-.24c-.06-2-1.74-3.56-3.73-3.5-2,.06-3.57,1.74-3.5,3.73,.07,2,1.74,3.56,3.74,3.5,1.99-.06,3.56-1.74,3.5-3.73Z" style="fill:#7b7b7b;"/></g></g></g></g></svg>