<?xml version="1.0" encoding="UTF-8" standalone="no"?>
<!-- Generator: Adobe Illustrator 23.0.3, SVG Export Plug-In . SVG Version: 6.00 Build 0)  -->

<svg
   version="1.1"
   id="Layer_1"
   x="0px"
   y="0px"
   viewBox="0 8 366.28812 54"
   xml:space="preserve"
   width="366.28812"
   height="54"
   xmlns="http://www.w3.org/2000/svg"
   xmlns:svg="http://www.w3.org/2000/svg"><defs
   id="defs1747" />
<style
   type="text/css"
   id="style1600">
	.st0{fill:#606060;}
	.st1{fill:#BB0E3D;}
	.st2{fill:#FFFFFF;}
</style>
<g
   id="g1616"
   transform="translate(-23)">
	<g
   id="g1606">
		<path
   class="st0"
   d="M 98,35 83,8 H 28.8 C 25.6,8 23,10.6 23,13.8 v 42.4 c 0,3.2 2.6,5.8 5.8,5.8 H 83 Z"
   id="path1602" />
		<path
   class="st1"
   d="M 96.5,10.8 C 95.4,9.1 93.5,8 91.5,8 H 87 L 102.2,35 87,62 h 4.5 c 2.1,0 4,-1.1 5,-2.8 L 110,35 Z"
   id="path1604" />
	</g>
	<g
   id="g1614">
		<rect
   x="55"
   y="23"
   class="st2"
   width="4"
   height="24"
   id="rect1608" />
		<polygon
   class="st2"
   points="36,23 32,23 32,47 36,47 36,29.4 47,47 51,47 51,23 47,23 47,40.6 "
   id="polygon1610" />
		<polygon
   class="st2"
   points="67,33 67,23 63,23 63,47 67,47 67,37 78,37 78,47 82,47 82,23 78,23 78,33 "
   id="polygon1612" />
	</g>
</g>
<g
   id="g1666"
   transform="translate(-23)">
	<g
   id="g1664">
		<path
   class="st1"
   d="m 130.9,16 h 2.5 v 11.2 h -2.5 l -5.3,-7 v 7 H 123 V 16 h 2.3 l 5.5,7.2 V 16 Z"
   id="path1618" />
		<path
   class="st1"
   d="m 144.1,27.2 -1,-2.4 h -4.7 l -1,2.4 h -2.7 L 139.5,16 h 2.4 l 4.8,11.2 z m -3.4,-7.9 -1.4,3.2 h 2.8 z"
   id="path1620" />
		<path
   class="st1"
   d="m 151.9,18.2 v 9 h -2.5 v -9 h -3.2 V 16 h 8.8 v 2.2 z"
   id="path1622" />
		<path
   class="st1"
   d="m 156.9,16 h 2.5 v 11.2 h -2.5 z"
   id="path1624" />
		<path
   class="st1"
   d="m 171.6,25.6 c -1.1,1.1 -2.5,1.7 -4.2,1.7 -1.7,0 -3,-0.6 -4.2,-1.7 -1.1,-1.1 -1.7,-2.5 -1.7,-4.1 0,-1.6 0.6,-3 1.7,-4.1 1.1,-1.1 2.5,-1.7 4.2,-1.7 1.7,0 3,0.6 4.2,1.7 1.1,1.1 1.7,2.5 1.7,4.1 0,1.6 -0.6,3 -1.7,4.1 z m -0.9,-4.1 c 0,-1 -0.3,-1.8 -1,-2.6 -0.6,-0.7 -1.4,-1.1 -2.4,-1.1 -1,0 -1.7,0.4 -2.4,1.1 -0.7,0.7 -1,1.6 -1,2.6 0,1 0.3,1.8 1,2.5 0.6,0.7 1.4,1 2.4,1 1,0 1.7,-0.3 2.4,-1 0.7,-0.6 1,-1.5 1,-2.5 z"
   id="path1626" />
		<path
   class="st1"
   d="m 183.2,16 h 2.5 v 11.2 h -2.5 l -5.3,-7 v 7 h -2.5 V 16 h 2.3 l 5.5,7.2 z"
   id="path1628" />
		<path
   class="st1"
   d="m 196.4,27.2 -1,-2.4 h -4.7 l -1,2.4 H 187 L 191.8,16 h 2.4 l 4.8,11.2 z m -3.3,-7.9 -1.4,3.2 h 2.8 z"
   id="path1630" />
		<path
   class="st1"
   d="M 200.4,27.2 V 16 h 2.5 v 9 h 4.8 v 2.2 z"
   id="path1632" />
		<path
   class="st1"
   d="m 218.8,25 c 1.2,0 2.2,-0.5 3,-1.5 l 1.6,1.6 c -1.3,1.4 -2.8,2.1 -4.5,2.1 -1.7,0 -3.1,-0.5 -4.3,-1.6 -1.1,-1.1 -1.7,-2.5 -1.7,-4.1 0,-1.7 0.6,-3 1.7,-4.2 1.1,-1.1 2.5,-1.7 4.2,-1.7 1.8,0 3.4,0.7 4.6,2.1 l -1.6,1.8 C 221,18.5 220,18 218.9,18 c -0.9,0 -1.7,0.3 -2.4,0.9 -0.7,0.6 -1,1.4 -1,2.5 0,1.1 0.3,1.9 0.9,2.5 0.8,0.8 1.5,1.1 2.4,1.1 z"
   id="path1634" />
		<path
   class="st1"
   d="m 233.3,27.2 -1,-2.4 h -4.7 l -1,2.4 h -2.7 L 228.7,16 h 2.4 l 4.8,11.2 z m -3.4,-7.9 -1.4,3.2 h 2.8 z"
   id="path1636" />
		<path
   class="st1"
   d="m 245.1,16 h 2.5 v 11.2 h -2.5 l -5.3,-7 v 7 h -2.5 V 16 h 2.3 l 5.5,7.2 z"
   id="path1638" />
		<path
   class="st1"
   d="m 255.5,25 c 1.2,0 2.2,-0.5 3,-1.5 l 1.6,1.6 c -1.3,1.4 -2.8,2.1 -4.5,2.1 -1.7,0 -3.1,-0.5 -4.3,-1.6 -1.1,-1.1 -1.7,-2.5 -1.7,-4.1 0,-1.7 0.6,-3 1.7,-4.2 1.1,-1.1 2.5,-1.7 4.2,-1.7 1.8,0 3.4,0.7 4.6,2.1 l -1.6,1.8 c -0.8,-1 -1.8,-1.5 -2.9,-1.5 -0.9,0 -1.7,0.3 -2.4,0.9 -0.7,0.6 -1,1.4 -1,2.5 0,1.1 0.3,1.9 0.9,2.5 0.7,0.8 1.5,1.1 2.4,1.1 z"
   id="path1640" />
		<path
   class="st1"
   d="m 270.1,16 v 2.2 h -5.6 v 2.3 h 5 v 2.1 h -5 V 25 h 5.7 v 2.2 H 262 V 16 Z"
   id="path1642" />
		<path
   class="st1"
   d="m 281.6,19.7 c 0,1.8 -0.7,2.9 -2.1,3.5 l 2.8,4 h -3.1 l -2.5,-3.6 H 275 v 3.6 h -2.5 V 16 h 4.2 c 1.7,0 3,0.3 3.7,0.9 0.7,0.6 1.2,1.5 1.2,2.8 z m -3,1.3 c 0.3,-0.3 0.5,-0.7 0.5,-1.3 0,-0.6 -0.2,-1 -0.5,-1.2 -0.3,-0.2 -0.9,-0.3 -1.7,-0.3 H 275 v 3.3 h 1.8 c 0.9,0 1.5,-0.2 1.8,-0.5 z"
   id="path1644" />
		<path
   class="st1"
   d="m 288.4,16 h 2.5 v 11.2 h -2.5 z"
   id="path1646" />
		<path
   class="st1"
   d="m 301.4,16 h 2.5 v 11.2 h -2.5 l -5.3,-7 v 7 h -2.5 V 16 h 2.3 l 5.5,7.2 z"
   id="path1648" />
		<path
   class="st1"
   d="m 309.3,18.2 c -0.2,0.2 -0.4,0.5 -0.4,0.8 0,0.3 0.1,0.6 0.4,0.8 0.3,0.2 1,0.4 2,0.7 1,0.3 1.9,0.7 2.5,1.2 0.6,0.5 0.9,1.3 0.9,2.3 0,1 -0.4,1.8 -1.1,2.4 -0.7,0.6 -1.7,0.9 -3,0.9 -1.8,0 -3.4,-0.7 -4.8,-2 l 1.5,-1.8 c 1.2,1.1 2.3,1.6 3.3,1.6 0.5,0 0.8,-0.1 1.1,-0.3 0.3,-0.2 0.4,-0.5 0.4,-0.8 0,-0.3 -0.1,-0.6 -0.4,-0.8 -0.3,-0.2 -0.8,-0.4 -1.6,-0.6 -1.3,-0.3 -2.3,-0.7 -2.9,-1.2 -0.6,-0.5 -0.9,-1.3 -0.9,-2.3 0,-1 0.4,-1.9 1.1,-2.5 0.8,-0.6 1.7,-0.9 2.9,-0.9 0.7,0 1.5,0.1 2.2,0.4 0.7,0.3 1.4,0.6 2,1.1 l -1.3,1.8 c -1,-0.7 -2,-1.1 -3,-1.1 -0.3,0 -0.7,0.1 -0.9,0.3 z"
   id="path1650" />
		<path
   class="st1"
   d="m 321.5,18.2 v 9 H 319 v -9 h -3.2 V 16 h 8.8 v 2.2 z"
   id="path1652" />
		<path
   class="st1"
   d="m 326.5,16 h 2.5 v 11.2 h -2.5 z"
   id="path1654" />
		<path
   class="st1"
   d="m 336.5,18.2 v 9 H 334 v -9 h -3.2 V 16 h 8.8 v 2.2 z"
   id="path1656" />
		<path
   class="st1"
   d="m 344.5,24.3 c 0.4,0.5 1,0.8 1.7,0.8 0.7,0 1.3,-0.3 1.7,-0.8 0.4,-0.5 0.6,-1.2 0.6,-2.1 V 16 h 2.5 v 6.3 c 0,1.6 -0.4,2.9 -1.3,3.7 -0.9,0.9 -2,1.3 -3.4,1.3 -1.4,0 -2.5,-0.4 -3.4,-1.3 -0.9,-0.9 -1.4,-2.1 -1.4,-3.7 V 16 h 2.5 v 6.2 c -0.2,0.9 0,1.6 0.5,2.1 z"
   id="path1658" />
		<path
   class="st1"
   d="m 358.2,18.2 v 9 h -2.5 v -9 h -3.2 V 16 h 8.8 v 2.2 z"
   id="path1660" />
		<path
   class="st1"
   d="m 371.3,16 v 2.2 h -5.6 v 2.3 h 5 v 2.1 h -5 V 25 h 5.7 v 2.2 h -8.2 V 16 Z"
   id="path1662" />
	</g>
</g>

<g
   aria-label="Center for Global Health"
   id="text1757"
   style="font-weight:bold;font-size:21.3333px;font-family:Montserrat;-inkscape-font-specification:'Montserrat Bold';fill:#606060"><path
     d="m 106.51236,54.255973 q -1.728,0 -3.22133,-0.554666 -1.472,-0.575999 -2.56,-1.621331 -1.087994,-1.045331 -1.70666,-2.453329 -0.597332,-1.407998 -0.597332,-3.093329 0,-1.68533 0.597332,-3.093328 0.618666,-1.407998 1.70666,-2.453329 1.10934,-1.045332 2.58133,-1.599998 1.472,-0.575999 3.22133,-0.575999 1.94133,0 3.49866,0.682666 1.57867,0.661332 2.64533,1.962663 l -2.21866,2.047997 q -0.768,-0.874665 -1.70666,-1.301331 -0.93867,-0.448 -2.048,-0.448 -1.04533,0 -1.92,0.341333 -0.87466,0.341333 -1.51466,0.981332 -0.64,0.639999 -1.00267,1.514664 -0.34133,0.874665 -0.34133,1.94133 0,1.066665 0.34133,1.941331 0.36267,0.874665 1.00267,1.514664 0.64,0.639999 1.51466,0.981332 0.87467,0.341333 1.92,0.341333 1.10933,0 2.048,-0.426666 0.93866,-0.448 1.70666,-1.343998 l 2.21866,2.047996 q -1.06666,1.301332 -2.64533,1.983997 -1.55733,0.682666 -3.51999,0.682666 z"
     id="path1798" /><path
     d="m 120.05902,54.17064 q -1.96266,0 -3.456,-0.767999 -1.47199,-0.767999 -2.28266,-2.090663 -0.81066,-1.343998 -0.81066,-3.050662 0,-1.727998 0.78933,-3.050662 0.81066,-1.343998 2.19733,-2.090664 1.38666,-0.767998 3.13599,-0.767998 1.68533,0 3.02933,0.725332 1.36533,0.703999 2.15466,2.047997 0.78934,1.322664 0.78934,3.178661 0,0.192 -0.0213,0.448 -0.0213,0.234666 -0.0427,0.447999 h -9.32266 v -1.94133 h 7.57333 l -1.28,0.575999 q 0,-0.895999 -0.36267,-1.557331 -0.36266,-0.661332 -1.00266,-1.023999 -0.64,-0.383999 -1.49333,-0.383999 -0.85334,0 -1.51467,0.383999 -0.64,0.362667 -1.00266,1.045332 -0.36267,0.661332 -0.36267,1.578664 v 0.511999 q 0,0.938666 0.40533,1.663998 0.42667,0.703999 1.17333,1.087998 0.768,0.362666 1.792,0.362666 0.91733,0 1.6,-0.277333 0.704,-0.277333 1.28,-0.831998 l 1.77066,1.919997 q -0.78933,0.895998 -1.984,1.386664 -1.19466,0.469333 -2.75199,0.469333 z"
     id="path1800" /><path
     d="m 134.80034,42.351992 q 1.36533,0 2.432,0.554665 1.08799,0.533333 1.70666,1.663998 0.61867,1.109331 0.61867,2.858662 v 6.570656 h -3.328 v -6.058657 q 0,-1.386664 -0.61867,-2.047997 -0.59733,-0.661332 -1.70666,-0.661332 -0.78933,0 -1.42933,0.341333 -0.61867,0.319999 -0.98133,1.002665 -0.34133,0.682666 -0.34133,1.749331 v 5.674657 h -3.328 V 42.522658 h 3.17866 v 3.178662 l -0.59733,-0.959999 q 0.61867,-1.151998 1.77066,-1.770664 1.152,-0.618665 2.624,-0.618665 z"
     id="path1802" /><path
     d="m 147.25899,54.17064 q -2.02667,0 -3.15733,-1.023999 -1.13067,-1.045331 -1.13067,-3.093328 V 39.983995 h 3.328 v 10.026651 q 0,0.725332 0.384,1.130665 0.384,0.384 1.04533,0.384 0.78933,0 1.344,-0.426666 l 0.896,2.346663 q -0.512,0.362666 -1.23734,0.554665 -0.70399,0.170667 -1.47199,0.170667 z m -6.05866,-8.831986 v -2.559996 h 7.95732 v 2.559996 z"
     id="path1804" /><path
     d="m 157.17896,54.17064 q -1.96267,0 -3.456,-0.767999 -1.472,-0.767999 -2.28266,-2.090663 -0.81067,-1.343998 -0.81067,-3.050662 0,-1.727998 0.78934,-3.050662 0.81066,-1.343998 2.19733,-2.090664 1.38666,-0.767998 3.13599,-0.767998 1.68533,0 3.02933,0.725332 1.36533,0.703999 2.15466,2.047997 0.78933,1.322664 0.78933,3.178661 0,0.192 -0.0213,0.448 -0.0213,0.234666 -0.0427,0.447999 h -9.32265 v -1.94133 h 7.57332 l -1.27999,0.575999 q 0,-0.895999 -0.36267,-1.557331 -0.36267,-0.661332 -1.00267,-1.023999 -0.63999,-0.383999 -1.49333,-0.383999 -0.85333,0 -1.51466,0.383999 -0.64,0.362667 -1.00267,1.045332 -0.36266,0.661332 -0.36266,1.578664 v 0.511999 q 0,0.938666 0.40533,1.663998 0.42667,0.703999 1.17333,1.087998 0.768,0.362666 1.792,0.362666 0.91733,0 1.6,-0.277333 0.704,-0.277333 1.28,-0.831998 l 1.77066,1.919997 q -0.78933,0.895998 -1.984,1.386664 -1.19466,0.469333 -2.75199,0.469333 z"
     id="path1806" /><path
     d="M 164.94428,53.999973 V 42.522658 h 3.17867 v 3.242662 l -0.448,-0.938666 q 0.512,-1.215998 1.64266,-1.834663 1.13067,-0.639999 2.752,-0.639999 v 3.071995 q -0.21334,-0.02133 -0.384,-0.02133 -0.17067,-0.02133 -0.36267,-0.02133 -1.36533,0 -2.21866,0.789332 -0.832,0.767999 -0.832,2.410663 v 5.418658 z"
     id="path1808" /><path
     d="M 180.58161,53.999973 V 42.266658 q 0,-1.94133 1.152,-3.093328 1.152,-1.173331 3.28533,-1.173331 0.72533,0 1.38666,0.149333 0.68267,0.149333 1.152,0.469332 l -0.87466,2.410663 q -0.27734,-0.192 -0.61867,-0.298666 -0.34133,-0.106667 -0.72533,-0.106667 -0.72533,0 -1.13067,0.426666 -0.384,0.405333 -0.384,1.237332 v 1.066665 l 0.0853,1.429331 v 9.215985 z m -1.77066,-8.661319 v -2.559996 h 7.95732 v 2.559996 z"
     id="path1810" /><path
     d="m 193.74424,54.17064 q -1.83466,0 -3.26399,-0.767999 -1.408,-0.767999 -2.24,-2.090663 -0.81067,-1.343998 -0.81067,-3.050662 0,-1.727998 0.81067,-3.050662 0.832,-1.343998 2.24,-2.090664 1.42933,-0.767998 3.26399,-0.767998 1.81333,0 3.24266,0.767998 1.42933,0.746666 2.24,2.069331 0.81066,1.322664 0.81066,3.071995 0,1.706664 -0.81066,3.050662 -0.81067,1.322664 -2.24,2.090663 -1.42933,0.767999 -3.24266,0.767999 z m 0,-2.730663 q 0.832,0 1.49333,-0.383999 0.66133,-0.383999 1.04533,-1.087998 0.384,-0.725333 0.384,-1.706664 0,-1.002665 -0.384,-1.706664 -0.384,-0.703999 -1.04533,-1.087999 -0.66133,-0.383999 -1.49333,-0.383999 -0.832,0 -1.49333,0.383999 -0.66133,0.384 -1.06667,1.087999 -0.384,0.703999 -0.384,1.706664 0,0.981331 0.384,1.706664 0.40534,0.703999 1.06667,1.087998 0.66133,0.383999 1.49333,0.383999 z"
     id="path1812" /><path
     d="M 202.25624,53.999973 V 42.522658 h 3.17866 v 3.242662 l -0.44799,-0.938666 q 0.51199,-1.215998 1.64266,-1.834663 1.13066,-0.639999 2.752,-0.639999 v 3.071995 q -0.21334,-0.02133 -0.384,-0.02133 -0.17067,-0.02133 -0.36267,-0.02133 -1.36533,0 -2.21866,0.789332 -0.832,0.767999 -0.832,2.410663 v 5.418658 z"
     id="path1814" /><path
     d="m 224.93355,54.255973 q -1.77066,0 -3.26399,-0.554666 -1.472,-0.575999 -2.58133,-1.621331 -1.088,-1.045331 -1.70667,-2.453329 -0.59733,-1.407998 -0.59733,-3.093329 0,-1.68533 0.59733,-3.093328 0.61867,-1.407998 1.728,-2.453329 1.10933,-1.045332 2.60266,-1.599998 1.49333,-0.575999 3.28533,-0.575999 1.984,0 3.56266,0.661332 1.6,0.661333 2.688,1.919997 l -2.21866,2.047997 q -0.81067,-0.853332 -1.77067,-1.258665 -0.96,-0.426666 -2.09066,-0.426666 -1.088,0 -1.984,0.341333 -0.896,0.341333 -1.55733,0.981332 -0.64,0.639999 -1.00267,1.514664 -0.34133,0.874665 -0.34133,1.94133 0,1.045332 0.34133,1.919997 0.36267,0.874666 1.00267,1.535998 0.66133,0.639999 1.536,0.981332 0.896,0.341333 1.96266,0.341333 1.024,0 1.984,-0.32 0.98133,-0.341333 1.89866,-1.130665 l 1.96267,2.495996 q -1.216,0.917332 -2.83733,1.407998 -1.6,0.490666 -3.2,0.490666 z m 2.88,-2.346663 v -5.610658 h 3.15733 v 6.058657 z"
     id="path1816" /><path
     d="M 233.9362,53.999973 V 38.170665 h 3.32799 v 15.829308 z"
     id="path1818" /><path
     d="m 245.81886,54.17064 q -1.83466,0 -3.26399,-0.767999 -1.408,-0.767999 -2.24,-2.090663 -0.81066,-1.343998 -0.81066,-3.050662 0,-1.727998 0.81066,-3.050662 0.832,-1.343998 2.24,-2.090664 1.42933,-0.767998 3.26399,-0.767998 1.81333,0 3.24266,0.767998 1.42934,0.746666 2.24,2.069331 0.81067,1.322664 0.81067,3.071995 0,1.706664 -0.81067,3.050662 -0.81066,1.322664 -2.24,2.090663 -1.42933,0.767999 -3.24266,0.767999 z m 0,-2.730663 q 0.832,0 1.49333,-0.383999 0.66134,-0.383999 1.04534,-1.087998 0.384,-0.725333 0.384,-1.706664 0,-1.002665 -0.384,-1.706664 -0.384,-0.703999 -1.04534,-1.087999 -0.66133,-0.383999 -1.49333,-0.383999 -0.832,0 -1.49333,0.383999 -0.66133,0.384 -1.06666,1.087999 -0.384,0.703999 -0.384,1.706664 0,0.981331 0.384,1.706664 0.40533,0.703999 1.06666,1.087998 0.66133,0.383999 1.49333,0.383999 z"
     id="path1820" /><path
     d="m 261.11486,54.17064 q -1.51467,0 -2.60267,-0.639999 -1.088,-0.639999 -1.66399,-1.941331 -0.576,-1.322664 -0.576,-3.327994 0,-2.026664 0.59733,-3.327995 0.61866,-1.301331 1.70666,-1.94133 1.088,-0.639999 2.53867,-0.639999 1.62133,0 2.90132,0.725332 1.30134,0.725332 2.048,2.047997 0.768,1.322664 0.768,3.135995 0,1.791997 -0.768,3.114661 -0.74666,1.322665 -2.048,2.069331 -1.27999,0.725332 -2.90132,0.725332 z m -6.78399,-0.170667 V 38.170665 h 3.32799 v 6.677323 l -0.21333,3.391994 0.064,3.413328 v 2.346663 z m 6.20799,-2.559996 q 0.83199,0 1.47199,-0.383999 0.66134,-0.383999 1.04534,-1.087998 0.40533,-0.725333 0.40533,-1.706664 0,-1.002665 -0.40533,-1.706664 -0.384,-0.703999 -1.04534,-1.087999 -0.64,-0.383999 -1.47199,-0.383999 -0.832,0 -1.49333,0.383999 -0.66134,0.384 -1.04534,1.087999 -0.384,0.703999 -0.384,1.706664 0,0.981331 0.384,1.706664 0.384,0.703999 1.04534,1.087998 0.66133,0.383999 1.49333,0.383999 z"
     id="path1822" /><path
     d="m 275.89882,53.999973 v -2.239996 l -0.21333,-0.490666 v -4.01066 q 0,-1.066665 -0.66133,-1.663998 -0.64,-0.597332 -1.984,-0.597332 -0.91733,0 -1.81333,0.298666 -0.87466,0.277333 -1.49333,0.767999 l -1.19466,-2.32533 q 0.93866,-0.661332 2.26133,-1.023998 1.32266,-0.362666 2.68799,-0.362666 2.624,0 4.07466,1.237331 1.45067,1.237331 1.45067,3.861327 v 6.549323 z m -3.49866,0.170667 q -1.34399,0 -2.30399,-0.448 -0.96,-0.469332 -1.472,-1.258664 -0.512,-0.789332 -0.512,-1.770664 0,-1.023999 0.49067,-1.791997 0.51199,-0.767999 1.59999,-1.194665 1.088,-0.447999 2.83733,-0.447999 h 3.05066 v 1.94133 h -2.68799 q -1.17333,0 -1.62133,0.383999 -0.42667,0.384 -0.42667,0.959999 0,0.639999 0.49067,1.023998 0.512,0.362666 1.38666,0.362666 0.832,0 1.49333,-0.383999 0.66134,-0.405333 0.96,-1.173332 l 0.512,1.535998 q -0.36267,1.109332 -1.32266,1.685331 -0.96,0.575999 -2.47467,0.575999 z"
     id="path1824" /><path
     d="M 282.02149,53.999973 V 38.170665 h 3.328 v 15.829308 z"
     id="path1826" /><path
     d="m 304.95482,39.066664 h 3.456 v 14.933309 h -3.456 z m -6.78399,14.933309 h -3.45599 V 39.066664 h 3.45599 z m 7.03999,-6.122657 h -7.29599 v -2.922662 h 7.29599 z"
     id="path1828" /><path
     d="m 317.41348,54.17064 q -1.96266,0 -3.45599,-0.767999 -1.472,-0.767999 -2.28266,-2.090663 -0.81067,-1.343998 -0.81067,-3.050662 0,-1.727998 0.78933,-3.050662 0.81067,-1.343998 2.19733,-2.090664 1.38667,-0.767998 3.136,-0.767998 1.68533,0 3.02933,0.725332 1.36533,0.703999 2.15466,2.047997 0.78933,1.322664 0.78933,3.178661 0,0.192 -0.0213,0.448 -0.0213,0.234666 -0.0427,0.447999 h -9.32265 v -1.94133 h 7.57332 l -1.28,0.575999 q 0,-0.895999 -0.36266,-1.557331 -0.36267,-0.661332 -1.00267,-1.023999 -0.64,-0.383999 -1.49333,-0.383999 -0.85333,0 -1.51466,0.383999 -0.64,0.362667 -1.00267,1.045332 -0.36266,0.661332 -0.36266,1.578664 v 0.511999 q 0,0.938666 0.40533,1.663998 0.42666,0.703999 1.17333,1.087998 0.768,0.362666 1.792,0.362666 0.91733,0 1.59999,-0.277333 0.704,-0.277333 1.28,-0.831998 l 1.77067,1.919997 q -0.78934,0.895998 -1.984,1.386664 -1.19466,0.469333 -2.752,0.469333 z"
     id="path1830" /><path
     d="m 331.89882,53.999973 v -2.239996 l -0.21333,-0.490666 v -4.01066 q 0,-1.066665 -0.66133,-1.663998 -0.64,-0.597332 -1.984,-0.597332 -0.91733,0 -1.81333,0.298666 -0.87466,0.277333 -1.49333,0.767999 l -1.19466,-2.32533 q 0.93866,-0.661332 2.26133,-1.023998 1.32266,-0.362666 2.68799,-0.362666 2.624,0 4.07466,1.237331 1.45067,1.237331 1.45067,3.861327 v 6.549323 z m -3.49866,0.170667 q -1.34399,0 -2.30399,-0.448 -0.96,-0.469332 -1.472,-1.258664 -0.512,-0.789332 -0.512,-1.770664 0,-1.023999 0.49067,-1.791997 0.51199,-0.767999 1.59999,-1.194665 1.088,-0.447999 2.83733,-0.447999 h 3.05066 v 1.94133 h -2.68799 q -1.17333,0 -1.62133,0.383999 -0.42667,0.384 -0.42667,0.959999 0,0.639999 0.49067,1.023998 0.512,0.362666 1.38666,0.362666 0.832,0 1.49333,-0.383999 0.66134,-0.405333 0.96,-1.173332 l 0.512,1.535998 q -0.36267,1.109332 -1.32266,1.685331 -0.96,0.575999 -2.47467,0.575999 z"
     id="path1832" /><path
     d="M 338.02149,53.999973 V 38.170665 h 3.328 v 15.829308 z"
     id="path1834" /><path
     d="m 349.96813,54.17064 q -2.02666,0 -3.15733,-1.023999 -1.13066,-1.045331 -1.13066,-3.093328 V 39.983995 h 3.32799 v 10.026651 q 0,0.725332 0.384,1.130665 0.384,0.384 1.04533,0.384 0.78934,0 1.344,-0.426666 l 0.896,2.346663 q -0.512,0.362666 -1.23733,0.554665 -0.704,0.170667 -1.472,0.170667 z m -6.05866,-8.831986 v -2.559996 h 7.95732 v 2.559996 z"
     id="path1836" /><path
     d="m 361.53078,42.351992 q 1.36533,0 2.43199,0.554665 1.088,0.533333 1.70667,1.663998 0.61866,1.109331 0.61866,2.858662 v 6.570656 h -3.32799 v -6.058657 q 0,-1.386664 -0.61867,-2.047997 -0.59733,-0.661332 -1.70666,-0.661332 -0.78933,0 -1.42933,0.341333 -0.61867,0.319999 -0.98133,1.002665 -0.34134,0.682666 -0.34134,1.749331 v 5.674657 h -3.32799 V 38.170665 h 3.32799 v 7.530655 l -0.74666,-0.959999 q 0.61866,-1.151998 1.77066,-1.770664 1.152,-0.618665 2.624,-0.618665 z"
     id="path1838" /></g></svg>
